<?xml version="1.0" standalone="no"?>
<!DOCTYPE svg PUBLIC "-//W3C//DTD SVG 1.1//EN" "http://www.w3.org/Graphics/SVG/1.1/DTD/svg11.dtd" >
<svg>
<metadata>
Created by FontForge 20120731 at Fri May 31 22:17:44 2013
 By Jenkins
2005 Erik Spiekermann, Christian Schwartz published by FSI FontShop International GmbH
</metadata>
<defs>
<font id="UnitOT-Light" horiz-adv-x="550" >
  <font-face 
    font-family="UnitOT-Light"
    font-weight="350"
    font-stretch="normal"
    units-per-em="1000"
    panose-1="2 1 5 4 4 1 1 2 1 4"
    ascent="793"
    descent="-207"
    x-height="478"
    cap-height="687"
    bbox="-78 -252 1739 918"
    underline-thickness="52"
    underline-position="-49"
    unicode-range="U+0020-FB06"
  />
<missing-glyph horiz-adv-x="504" 
d="M89 687h326v-687h-326v687zM363 52v583h-222v-583h222z" />
    <glyph glyph-name="uniFB00" unicode="ff" horiz-adv-x="543" 
d="M39 478h57v110q0 33 9 56.5t24 38.5t34.5 22t40.5 7q28 0 48 -4.5t41 -18.5l-22 -45q-16 8 -29 12.5t-32 4.5q-26 0 -40 -17.5t-14 -56.5v-109h190v118q0 67 33 96.5t80 29.5q29 0 51.5 -5.5t42.5 -19.5l-23 -44q-16 8 -30.5 13t-33.5 5q-29 0 -44.5 -18t-15.5 -58v-117
h97v-49h-97v-429h-60v429h-190v-429h-60v429h-57v49z" />
    <glyph glyph-name="fi" unicode="fi" horiz-adv-x="494" 
d="M156 0h-60v429h-57v49h57v97q0 39 11 66.5t30 45.5t45 26.5t55 8.5q42 0 68 -8.5t52 -25.5l-24 -47q-21 13 -40 20.5t-51 7.5q-42 0 -64 -21t-22 -74v-96h250v-478h-60v429h-190v-429z" />
    <glyph glyph-name="fl" unicode="fl" horiz-adv-x="507" 
d="M263 478v-49h-107v-429h-60v429h-57v49h57v91q0 41 13 70t35 47.5t52 27t64 8.5q31 0 53 -2t39 -5h54v-635q0 -23 8.5 -31t25.5 -8h9t7 1q4 1 6 2l9 -43q-9 -4 -21 -6.5t-26 -2.5q-35 0 -56.5 20.5t-21.5 73.5v576q-16 4 -35 6.5t-46 2.5q-52 0 -80.5 -23t-28.5 -80v-90
h107z" />
    <glyph glyph-name="uniFB03" unicode="ffi" horiz-adv-x="744" 
d="M346 429h-190v-429h-60v429h-57v49h57v110q0 33 9 56.5t24 38.5t34.5 22t40.5 7q28 0 48 -4.5t41 -18.5l-22 -45q-16 8 -29 12.5t-32 4.5q-26 0 -40 -17.5t-14 -56.5v-109h190v97q0 39 11 66.5t30.5 45.5t45 26.5t54.5 8.5q42 0 68.5 -8.5t52.5 -25.5l-25 -47
q-20 13 -39.5 20.5t-50.5 7.5q-42 0 -64.5 -21t-22.5 -74v-96h250v-478h-59v429h-191v-429h-60v429z" />
    <glyph glyph-name="uniFB04" unicode="ffl" horiz-adv-x="758" 
d="M346 429h-190v-429h-60v429h-57v49h57v110q0 33 9 56.5t24 38.5t34.5 22t40.5 7q28 0 48 -4.5t41 -18.5l-22 -45q-16 8 -29 12.5t-32 4.5q-26 0 -40 -17.5t-14 -56.5v-109h190v91q0 41 13 70t35.5 47.5t52 27t63.5 8.5q31 0 53.5 -2t39.5 -5h53v-635q0 -23 9 -31t26 -8
q11 0 15 1t6 2l10 -43q-10 -4 -22 -6.5t-25 -2.5q-35 0 -56.5 20.5t-21.5 73.5v576q-17 4 -35.5 6.5t-45.5 2.5q-52 0 -81 -23t-29 -80v-90h107v-49h-107v-429h-60v429z" />
    <glyph glyph-name=".notdef" horiz-adv-x="504" 
d="M89 687h326v-687h-326v687zM363 52v583h-222v-583h222z" />
    <glyph glyph-name=".null" horiz-adv-x="0" 
 />
    <glyph glyph-name="nonmarkingreturn" horiz-adv-x="230" 
 />
    <glyph glyph-name="space" unicode=" " horiz-adv-x="230" 
 />
    <glyph glyph-name="exclam" unicode="!" horiz-adv-x="252" 
d="M89 687h72l-13 -501h-47zM126 -7q-22 0 -36.5 14.5t-14.5 36.5t14.5 37t36.5 15q21 0 36 -15t15 -37t-15 -36.5t-36 -14.5z" />
    <glyph glyph-name="quotedbl" unicode="&#x22;" horiz-adv-x="370" 
d="M229 710h57v-242h-57v242zM84 710h56v-242h-56v242z" />
    <glyph glyph-name="numbersign" unicode="#" horiz-adv-x="544" 
d="M69 408v52h105l26 175h51l-26 -175h136l26 175h51l-26 -175h91v-52h-99l-26 -171h96v-52h-104l-27 -185h-51l28 185h-137l-27 -185h-51l28 185h-93v52h100l26 171h-97zM217 408l-26 -171h136l26 171h-136z" />
    <glyph glyph-name="dollar" unicode="$" horiz-adv-x="496" 
d="M231 761h46v-117q43 -4 75 -16.5t59 -31.5l-27 -45q-23 17 -49.5 27.5t-58.5 13.5v-236q35 -14 65 -30t52 -38t34.5 -51.5t12.5 -71.5q0 -33 -8.5 -63t-28 -53t-50.5 -38.5t-76 -19.5v-106h-46v105q-60 3 -107 24t-81 54l33 41q32 -30 68.5 -48t87.5 -20v270
q-32 13 -60.5 28t-49.5 35.5t-33 48t-12 65.5q0 72 42 112t112 45v116zM276 43q55 7 79 37.5t24 81.5q0 27 -6.5 47t-19.5 35t-32.5 26.5t-44.5 22.5v-250zM232 593q-45 -4 -70 -29t-25 -73q0 -25 6 -42.5t18 -31t30 -23.5t41 -20v219z" />
    <glyph glyph-name="percent" unicode="%" horiz-adv-x="809" 
d="M608 -9q-69 0 -109.5 46.5t-40.5 126.5q0 79 40 125t107 46t108.5 -46.5t41.5 -127.5q0 -78 -39.5 -124t-107.5 -46zM203 300q-69 0 -109 46.5t-40 126.5q0 79 40 125t107 46q66 0 107.5 -46t41.5 -128q0 -78 -39 -124t-108 -46zM202 346q90 0 90 121q0 69 -23 100
t-68 31q-89 0 -89 -122q0 -69 22.5 -99.5t67.5 -30.5zM607 37q89 0 89 121q0 69 -22.5 100t-67.5 31q-89 0 -89 -122q0 -69 22.5 -99.5t67.5 -30.5zM566 635h57l-380 -635h-58z" />
    <glyph glyph-name="ampersand" unicode="&#x26;" horiz-adv-x="639" 
d="M459 187q28 73 42 174l57 -5q-8 -66 -22.5 -120t-35.5 -96l118 -140h-78q-20 24 -36 43q-7 8 -13.5 15.5t-11.5 13.5l-12 14q-73 -99 -198 -99q-58 0 -98.5 16.5t-65.5 43.5t-36 62t-11 73q0 77 39.5 126t111.5 85l-8 9q-35 42 -55.5 78t-20.5 79q0 61 41 99t113 38
q32 0 59.5 -9t47.5 -27t31.5 -45t11.5 -63q0 -54 -34 -94t-101 -75zM239 356q-57 -30 -85.5 -71.5t-28.5 -102.5q0 -30 7 -56t23.5 -46t45 -31.5t70.5 -11.5q53 0 92 23.5t67 68.5q-14 18 -30 36q-14 16 -30.5 36t-34.5 42q-42 50 -96 113zM264 418q55 31 78 61t23 72
q0 96 -85 96q-44 0 -68 -24t-24 -63q0 -34 15.5 -62t41.5 -57z" />
    <glyph glyph-name="quotesingle" unicode="'" horiz-adv-x="224" 
d="M84 710h56v-242h-56v242z" />
    <glyph glyph-name="parenleft" unicode="(" horiz-adv-x="327" 
d="M267 -153q-48 25 -85.5 64.5t-63.5 96t-40 131t-14 169.5q0 96 13.5 170.5t39 131t63 96t86.5 65.5l22 -38q-41 -27 -70.5 -63t-49 -87t-28.5 -118.5t-9 -156.5q0 -90 9.5 -157.5t29 -118t49 -86t69.5 -61.5l-21 -38v0z" />
    <glyph glyph-name="parenright" unicode=")" horiz-adv-x="327" 
d="M38 -115q41 26 70.5 61.5t49 85.5t29 117.5t9.5 157.5q0 89 -9.5 157t-29 119t-49 87.5t-70.5 62.5l22 38q48 -26 86 -65.5t64 -96.5t39.5 -132t13.5 -172q0 -95 -13.5 -168.5t-40 -129.5t-64 -95t-85.5 -65z" />
    <glyph glyph-name="asterisk" unicode="*" horiz-adv-x="445" 
d="M102 378l83 120l-131 47l16 44l128 -49v147h49v-146l128 47l16 -44l-131 -47l84 -119l-38 -26l-83 119l-83 -119z" />
    <glyph glyph-name="plus" unicode="+" horiz-adv-x="524" 
d="M233 262h-160v51h160v178h58v-178h160v-51h-160v-177h-58v177z" />
    <glyph glyph-name="comma" unicode="," horiz-adv-x="241" 
d="M67 -75q21 8 36.5 26t15.5 42q-18 1 -34.5 14t-16.5 39q0 23 15 37.5t36 14.5q23 0 39 -18.5t16 -53.5q0 -46 -21.5 -83.5t-73.5 -51.5z" />
    <glyph glyph-name="hyphen" unicode="-" horiz-adv-x="292" 
d="M56 298h179v-60h-179v60z" />
    <glyph glyph-name="period" unicode="." horiz-adv-x="241" 
d="M120 -7q-21 0 -36.5 14.5t-15.5 37.5t15.5 38t36.5 15q22 0 37 -15t15 -38t-15 -37.5t-37 -14.5z" />
    <glyph glyph-name="slash" unicode="/" horiz-adv-x="354" 
d="M272 759h56l-246 -905h-56z" />
    <glyph glyph-name="zero.001" horiz-adv-x="598" 
d="M301 -9q-120 0 -178.5 82.5t-58.5 241.5q0 158 60.5 244t174.5 86q115 0 174.5 -84t59.5 -242q0 -161 -56.5 -244.5t-175.5 -83.5zM300 41q92 0 130 69t38 203q0 138 -39.5 209.5t-129.5 71.5t-129.5 -70.5t-39.5 -205.5q0 -136 39 -206.5t131 -70.5z" />
    <glyph glyph-name="one.001" horiz-adv-x="435" 
d="M71 51h132v508l-127 -66l-19 33l160 115h48v-590h121v-51h-315v51z" />
    <glyph glyph-name="two.001" horiz-adv-x="476" 
d="M46 56q96 84 154.5 143.5t90 105t41.5 82t10 74.5q0 69 -31.5 100.5t-90.5 31.5q-46 0 -79 -12t-68 -33l-24 43q42 27 82.5 40.5t91.5 13.5q38 0 71.5 -10.5t58.5 -33t39.5 -57t14.5 -82.5q0 -44 -13 -85.5t-45.5 -89t-89 -104.5t-143.5 -130h303v-53h-373v56z" />
    <glyph glyph-name="three.001" horiz-adv-x="497" 
d="M208 -65q-53 0 -96.5 9.5t-78.5 26.5l15 47q32 -12 71.5 -21t86.5 -9q82 0 121 37t39 116q0 44 -11.5 72.5t-32.5 45.5t-50.5 24t-65.5 7h-48v50h48q72 0 104.5 34.5t32.5 97.5q0 57 -29.5 88.5t-92.5 31.5q-42 0 -79.5 -11.5t-72.5 -31.5l-22 44q42 25 83.5 38.5
t96.5 13.5q43 0 77 -13t56.5 -36t34.5 -53.5t12 -64.5q0 -121 -103 -159q58 -15 93.5 -59t35.5 -120q0 -96 -57 -150.5t-168 -54.5z" />
    <glyph glyph-name="four.001" horiz-adv-x="545" 
d="M47 104v59l213 472h64l-217 -478h253v285l63 13v-298h78v-53h-78v-160h-63v160h-313z" />
    <glyph glyph-name="five.001" horiz-adv-x="498" 
d="M201 -65q-48 0 -87 9.5t-74 24.5l16 48q32 -13 68 -21.5t78 -8.5q89 0 130 48t41 130q0 88 -45 126.5t-123 38.5q-32 0 -63.5 -5t-59.5 -14l30 324h310v-53h-259l-20 -209q14 4 33.5 6t36.5 2q51 0 92.5 -14t71 -41t45.5 -66.5t16 -90.5q0 -53 -15.5 -96.5t-46 -74
t-74.5 -47t-101 -16.5z" />
    <glyph glyph-name="six.001" horiz-adv-x="557" 
d="M136 363q29 25 67.5 44.5t92.5 19.5q40 0 76 -14t63 -41t43 -67t16 -92q0 -55 -15.5 -96.5t-42.5 -69.5t-65 -42.5t-83 -14.5q-48 0 -88.5 18t-70 54t-46.5 89t-17 123q0 101 23 173.5t67 122.5t107 80t144 45l12 -48q-62 -14 -111 -34.5t-84 -53t-57 -80.5t-31 -116z
M132 313q-1 -11 -1 -21.5v-21.5q0 -121 42 -175.5t115 -54.5q69 0 105 45t36 126q0 82 -39 124t-104 42q-50 0 -86.5 -18t-67.5 -46z" />
    <glyph glyph-name="seven.001" horiz-adv-x="485" 
d="M128 -55q10 114 34.5 210t57.5 174.5t72.5 141.5t80.5 111h-329v53h389v-57q-47 -55 -87.5 -122.5t-72 -147.5t-52.5 -172.5t-28 -197.5z" />
    <glyph glyph-name="eight.001" horiz-adv-x="547" 
d="M208 362q-35 16 -58 36t-37 42t-20 45t-6 47q0 74 49 119t137 45q43 0 77.5 -12t58.5 -33.5t37 -51t13 -64.5q0 -53 -28.5 -95.5t-100.5 -76.5q44 -18 74 -38.5t48.5 -43.5t26.5 -50t8 -59q0 -43 -15.5 -76.5t-43 -57t-66.5 -36t-86 -12.5q-49 0 -89 12.5t-68 36.5
t-43.5 58.5t-15.5 77.5q0 37 11 66t30.5 51t46.5 39t60 31zM252 338q-63 -28 -96 -64t-33 -98q0 -72 41.5 -104.5t112.5 -32.5q68 0 107 33.5t39 92.5q0 51 -24 85t-88 63zM284 386q34 17 56 34t34.5 35t17.5 37.5t5 41.5q0 54 -32.5 84t-92.5 30q-58 0 -90 -30t-32 -83
q0 -24 5 -43t17 -35.5t32.5 -30.5t52.5 -28z" />
    <glyph glyph-name="nine.001" horiz-adv-x="557" 
d="M420 270q-27 -26 -65.5 -44.5t-88.5 -18.5q-41 0 -78 14.5t-65 42t-44 68t-16 91.5q0 54 16 96t44 70.5t66 43t82 14.5q48 0 88.5 -17.5t69.5 -52.5t45.5 -88.5t16.5 -125.5q0 -100 -24 -172t-70 -122.5t-111.5 -80.5t-147.5 -46l-13 48q63 15 113.5 36t88 53t61 78.5
t32.5 112.5zM425 319q1 11 1 23v25q0 61 -11 104.5t-31.5 71.5t-49 41t-64.5 13q-69 0 -105.5 -45.5t-36.5 -126.5q0 -86 40 -127t106 -41q46 0 83 17.5t68 44.5z" />
    <glyph glyph-name="colon" unicode=":" horiz-adv-x="258" 
d="M129 -7q-22 0 -37 14.5t-15 37.5t15 38t37 15t37 -15t15 -38t-15 -37.5t-37 -14.5zM129 279q-22 0 -37 15t-15 38q0 22 15 37t37 15t37 -15t15 -37q0 -23 -15 -38t-37 -15z" />
    <glyph glyph-name="semicolon" unicode=";" horiz-adv-x="258" 
d="M75 -75q21 8 36.5 26t15.5 42q-18 1 -34 14t-16 39q0 23 15 37.5t35 14.5q23 0 39.5 -18.5t16.5 -53.5q0 -46 -21.5 -83.5t-73.5 -51.5zM129 279q-22 0 -37 15t-15 38q0 22 15 37t37 15t37 -15t15 -37q0 -23 -15 -38t-37 -15z" />
    <glyph glyph-name="less" unicode="&#x3c;" horiz-adv-x="342" 
d="M54 276v25l205 196l36 -37l-179 -171l179 -172l-36 -37z" />
    <glyph glyph-name="equal" unicode="=" horiz-adv-x="533" 
d="M74 401h384v-52h-384v52zM74 228h384v-52h-384v52z" />
    <glyph glyph-name="greater" unicode="&#x3e;" horiz-adv-x="342" 
d="M47 116l178 172l-178 172l35 37l206 -196v-25l-206 -196z" />
    <glyph glyph-name="question" unicode="?" horiz-adv-x="424" 
d="M156 277q0 31 5.5 52.5t15 37.5t23 28.5t29.5 24.5q13 10 25.5 21t22 25t15 33t5.5 46q0 53 -22 75.5t-75 22.5q-35 0 -69.5 -13.5t-58.5 -29.5l-24 45q29 20 69.5 35.5t85.5 15.5q69 0 112.5 -35t43.5 -114q0 -36 -8 -61.5t-21.5 -44.5t-30.5 -33t-35 -27
q-16 -13 -26.5 -23.5t-16.5 -22.5t-8.5 -26.5t-2.5 -35.5v-87h-54v91zM184 -7q-21 0 -36 14.5t-15 36.5t15 37t36 15q22 0 36.5 -15t14.5 -37t-14.5 -36.5t-36.5 -14.5z" />
    <glyph glyph-name="at" unicode="@" horiz-adv-x="801" 
d="M366 -152q-82 0 -140 24.5t-95 70.5t-54 112.5t-17 150.5t22.5 159t68 131t113.5 89t158 33q86 0 146.5 -27.5t99 -74.5t56 -111t17.5 -137q0 -134 -39 -205t-126 -71q-54 0 -82 26.5t-32 71.5q-14 -16 -30 -31t-34.5 -27t-39 -19.5t-43.5 -7.5q-20 0 -37 7t-30.5 23
t-21 42t-7.5 63q0 23 3.5 50.5t10.5 59.5q25 111 68.5 160t111.5 49q37 0 63.5 -17t42.5 -33l8 38h58l-62 -293q-6 -27 -6 -48q0 -67 58 -67t83 56.5t25 172.5q0 67 -12.5 122.5t-42.5 95.5t-80 62t-126 22q-80 0 -137 -29.5t-94.5 -79t-55 -116t-17.5 -139.5q0 -75 12 -133
t40.5 -97t76 -59.5t118.5 -20.5q45 0 77.5 6t61.5 15l13 -43q-33 -11 -68.5 -18.5t-82.5 -7.5zM328 54q35 0 68 23.5t63 54.5l51 237q-17 17 -39.5 30.5t-52.5 13.5q-23 0 -41.5 -8.5t-33.5 -28t-27 -52.5t-22 -81q-16 -73 -16 -115q0 -43 13.5 -58.5t36.5 -15.5z" />
    <glyph glyph-name="A" unicode="A" horiz-adv-x="555" 
d="M94 0h-64l215 687h69l210 -687h-68l-65 221h-229zM317 470q-17 57 -24.5 92t-12.5 64h-2q-5 -29 -13.5 -65t-25.5 -91l-60 -195h196z" />
    <glyph glyph-name="B" unicode="B" horiz-adv-x="551" 
d="M93 687h183q52 0 88 -14t58.5 -38.5t32 -57.5t9.5 -71q0 -54 -18 -89t-68 -53q52 -14 85 -56t33 -119q0 -50 -15.5 -86t-43.5 -59t-67 -33.5t-86 -10.5h-191v687zM280 53q82 0 115.5 35t33.5 104q0 72 -33 106t-114 34h-126v-279h124zM280 385q68 0 93.5 30t25.5 91
q0 60 -26.5 94t-95.5 34h-122v-249h125z" />
    <glyph glyph-name="C" unicode="C" horiz-adv-x="540" 
d="M324 -10q-69 0 -117.5 23t-79 67t-45 109.5t-14.5 150.5q0 84 14.5 150.5t45 112t78 69.5t114.5 24q51 0 91 -14t71 -39l-31 -45q-26 20 -58 32.5t-73 12.5q-53 0 -88.5 -19t-56.5 -56.5t-30 -93.5t-9 -131q0 -76 8.5 -132t30.5 -93t58 -55.5t92 -18.5q45 0 78.5 16
t59.5 36l31 -46q-32 -26 -74.5 -43t-95.5 -17z" />
    <glyph glyph-name="D" unicode="D" horiz-adv-x="587" 
d="M93 687h155q73 0 124.5 -19t84 -61t47.5 -109.5t15 -163.5q0 -93 -15.5 -157t-48 -103.5t-83 -56.5t-121.5 -17h-158v687zM255 54q58 0 96 15.5t60.5 49.5t31.5 87.5t9 130.5q0 80 -8.5 136.5t-30.5 92t-60.5 52t-97.5 16.5h-99v-580h99z" />
    <glyph glyph-name="E" unicode="E" horiz-adv-x="504" 
d="M98 687h340v-54h-277v-245h225v-54h-225v-280h289v-54h-352v687z" />
    <glyph glyph-name="F" unicode="F" horiz-adv-x="486" 
d="M98 687h334v-54h-271v-245h224v-53h-224v-335h-63v687z" />
    <glyph glyph-name="G" unicode="G" horiz-adv-x="597" 
d="M458 51q-28 -26 -65 -43.5t-84 -17.5q-124 0 -182.5 88t-58.5 262q0 80 14 146t44 112.5t77 72t114 25.5q54 0 96 -15t76 -45l-32 -46q-34 27 -66 39.5t-74 12.5q-52 0 -87 -20t-56 -58.5t-29.5 -94t-8.5 -127.5q0 -150 39 -225t136 -75q42 0 77.5 15t62.5 40v206h-147
v54h209v-357h-43l-12 51v0z" />
    <glyph glyph-name="H" unicode="H" horiz-adv-x="609" 
d="M98 687h63v-293h286v293h64v-687h-64v339h-286v-339h-63v687z" />
    <glyph glyph-name="I" unicode="I" horiz-adv-x="329" 
d="M62 651v36h205v-36l-71 -6v-603l71 -6v-36h-205v36l71 6v603z" />
    <glyph glyph-name="J" unicode="J" horiz-adv-x="262" 
d="M4 -92q26 14 44 27t29.5 30t17 42.5t5.5 64.5v615h64v-601q0 -51 -6.5 -85.5t-22.5 -58.5t-43 -41.5t-67 -35.5z" />
    <glyph glyph-name="K" unicode="K" horiz-adv-x="530" 
d="M180 370l237 317h70l-236 -314l243 -373h-72zM98 687h63v-687h-63v687z" />
    <glyph glyph-name="L" unicode="L" horiz-adv-x="466" 
d="M98 687h63v-633h255v-54h-318v687z" />
    <glyph glyph-name="M" unicode="M" horiz-adv-x="717" 
d="M98 687h95l133 -384q13 -38 21.5 -71t10.5 -55h2q1 11 2.5 22.5t4.5 26t8.5 33.5t14.5 44l135 384h94v-687h-63v464q0 72 1.5 112t2.5 64h-1q-5 -23 -16.5 -64.5t-32.5 -99.5l-123 -343h-61l-122 337q-11 31 -18 54t-12.5 42.5t-9.5 37t-9 36.5h-1q1 -38 2.5 -79.5
t1.5 -96.5v-464h-60v687z" />
    <glyph glyph-name="N" unicode="N" horiz-adv-x="607" 
d="M98 687h71l226 -463q22 -45 36 -80t25 -68h2q-4 35 -6 75t-2 92v444h59v-687h-70l-218 443q-29 57 -43.5 96t-25.5 71h-2q4 -35 5.5 -80.5t1.5 -105.5v-424h-59v687z" />
    <glyph glyph-name="O" unicode="O" horiz-adv-x="623" 
d="M313 -10q-127 0 -186 88t-59 262q0 173 61.5 264.5t181.5 91.5q121 0 182.5 -90.5t61.5 -261.5q0 -175 -58 -264.5t-184 -89.5zM312 41q96 0 136 74.5t40 223.5q0 153 -41 229.5t-135 76.5t-135.5 -75t-41.5 -227t40.5 -227t136.5 -75z" />
    <glyph glyph-name="P" unicode="P" horiz-adv-x="530" 
d="M98 687h172q104 0 154.5 -51t50.5 -147q0 -101 -49 -153.5t-145 -52.5h-120v-283h-63v687zM274 336q68 0 101 34.5t33 115.5q0 79 -33 113t-109 34h-105v-297h113z" />
    <glyph glyph-name="Q" unicode="Q" horiz-adv-x="625" 
d="M568 -57l-20 -58l-310 112q-39 14 -70.5 39t-53.5 65.5t-34 99t-12 139.5q0 173 61.5 264.5t181.5 91.5q121 0 182.5 -90.5t61.5 -261.5q0 -158 -44.5 -242t-145.5 -100zM312 41q96 0 136 74.5t40 223.5q0 153 -41 229.5t-135 76.5t-135.5 -75t-41.5 -227t40.5 -227
t136.5 -75z" />
    <glyph glyph-name="R" unicode="R" horiz-adv-x="560" 
d="M98 687h175q44 0 81 -11t63.5 -33.5t41.5 -57.5t15 -84q0 -152 -128 -183q25 -10 45.5 -32.5t39.5 -73.5l79 -212h-68l-76 203q-12 31 -24 50.5t-26.5 30.5t-32.5 15.5t-42 4.5h-80v-304h-63v687zM272 356q77 0 107 36.5t30 107.5q0 66 -31.5 99.5t-109.5 33.5h-107v-277
h111z" />
    <glyph glyph-name="S" unicode="S" horiz-adv-x="513" 
d="M242 -10q-65 0 -117.5 22.5t-87.5 57.5l32 45q35 -33 75 -52t94 -19q76 0 109 34.5t33 96.5q0 35 -9 58.5t-27 41t-44.5 31t-60.5 27.5q-38 16 -68.5 32.5t-51.5 38.5t-32.5 52t-11.5 72q0 82 50 125t131 43q56 0 92.5 -12t67.5 -34l-27 -49q-29 20 -59.5 31t-70.5 11
q-53 0 -87.5 -27t-34.5 -86q0 -30 7.5 -50.5t22.5 -35.5t38.5 -27.5t56.5 -25.5q42 -17 75.5 -35t57.5 -42t37 -56.5t13 -80.5q0 -38 -11 -72t-35 -59.5t-63 -40.5t-94 -15z" />
    <glyph glyph-name="T" unicode="T" horiz-adv-x="496" 
d="M216 633h-169v54h401v-54h-169v-633h-63v633z" />
    <glyph glyph-name="U" unicode="U" horiz-adv-x="608" 
d="M446 687h64v-687h-45l-15 67q-30 -29 -73.5 -53t-102.5 -24q-38 0 -71 11t-57 35t-38 63t-14 95v493h63v-482q0 -87 28 -123.5t93 -36.5q30 0 55.5 7t46.5 17.5t37.5 23t28.5 23.5v571z" />
    <glyph glyph-name="V" unicode="V" horiz-adv-x="544" 
d="M32 687h68l138 -470q12 -42 20 -78t13 -62h2q5 26 13.5 61t21.5 79l140 470h64l-209 -687h-65z" />
    <glyph glyph-name="W" unicode="W" horiz-adv-x="795" 
d="M36 687h67l94 -450q11 -55 18.5 -99t12.5 -79h1q6 35 13 79.5t18 94.5l106 454h73l102 -455q10 -46 17 -91.5t12 -81.5h1q5 36 13 83t19 98l93 447h63l-149 -687h-81l-100 445q-9 45 -17 91.5t-11 73.5h-2q-2 -12 -4.5 -31.5t-6.5 -42t-8.5 -46t-8.5 -43.5l-104 -447h-81
z" />
    <glyph glyph-name="X" unicode="X" horiz-adv-x="533" 
d="M62 687h70l135 -261l138 261h67l-168 -307l203 -380h-70l-170 327l-173 -327h-68l204 374z" />
    <glyph glyph-name="Y" unicode="Y" horiz-adv-x="537" 
d="M234 271l-198 416h72l123 -268q14 -30 22 -51.5t15 -43.5q8 22 15 43t21 52l123 268h67l-196 -418v-269h-64v271z" />
    <glyph glyph-name="Z" unicode="Z" horiz-adv-x="478" 
d="M45 49l313 584h-296v54h367v-52l-312 -581h311v-54h-383v49z" />
    <glyph glyph-name="bracketleft" unicode="[" horiz-adv-x="306" 
d="M92 734h166v-49h-105v-791h105v-48h-166v888z" />
    <glyph glyph-name="backslash" unicode="\" horiz-adv-x="356" 
d="M26 759h57l246 -905h-56z" />
    <glyph glyph-name="bracketright" unicode="]" horiz-adv-x="305" 
d="M47 -106h106v791h-106v49h166v-888h-166v48z" />
    <glyph glyph-name="asciicircum" unicode="^" horiz-adv-x="465" 
d="M206 708h54l143 -258h-60l-110 199l-109 -199h-61z" />
    <glyph glyph-name="underscore" unicode="_" horiz-adv-x="302" 
d="M3 -75h296v-52h-296v52z" />
    <glyph glyph-name="grave" unicode="`" horiz-adv-x="492" 
d="M130 639l33 55l166 -118l-22 -35z" />
    <glyph glyph-name="a" unicode="a" horiz-adv-x="473" 
d="M327 342q0 45 -15.5 69.5t-63.5 24.5q-40 0 -75 -13.5t-68 -34.5l-24 44q35 23 75.5 39.5t96.5 16.5q66 0 100 -33t34 -105v-350h-42l-15 58q-10 -12 -23 -24t-30 -21.5t-37 -16t-43 -6.5q-66 0 -103 37t-37 107q0 78 49 116t160 38h61v54zM327 242h-55q-45 0 -74.5 -6
t-46.5 -19.5t-24 -34t-7 -49.5q0 -50 20.5 -71.5t63.5 -21.5t73.5 21.5t49.5 44.5v136z" />
    <glyph glyph-name="b" unicode="b" horiz-adv-x="512" 
d="M284 -10q-45 0 -80.5 20.5t-58.5 46.5l-14 -57h-42v715h60v-297q25 26 60.5 48t78.5 22q36 0 65.5 -13.5t51 -43t33.5 -77t12 -115.5q0 -130 -42.5 -189.5t-123.5 -59.5zM273 42q28 0 49.5 9t35.5 31.5t21.5 59t7.5 92.5q0 60 -7 99t-20.5 62t-33.5 32t-47 9
q-41 0 -72.5 -21t-57.5 -45v-269q26 -26 57 -42.5t67 -16.5z" />
    <glyph glyph-name="c" unicode="c" horiz-adv-x="429" 
d="M245 -10q-41 0 -75.5 13.5t-59.5 43.5t-38.5 77t-13.5 114q0 68 14 115.5t38.5 77.5t59 43.5t75.5 13.5q45 0 76 -14.5t58 -41.5l-36 -41q-21 23 -43 34.5t-57 11.5q-30 0 -52.5 -9.5t-38 -32t-23.5 -60.5t-8 -95t8 -95.5t23.5 -61.5t39.5 -32.5t56 -9.5q38 0 61 15
t40 33l39 -37q-24 -27 -58 -44.5t-85 -17.5z" />
    <glyph glyph-name="d" unicode="d" horiz-adv-x="512" 
d="M224 -10q-36 0 -66 13t-51 42.5t-33 77t-12 116.5q0 130 42 189.5t123 59.5q45 0 79 -21t57 -45v293h59v-715h-42l-14 61q-27 -29 -63 -50t-79 -21zM233 42q41 0 72 19.5t58 44.5v268q-26 27 -57 44.5t-68 17.5q-28 0 -49.5 -9t-35.5 -31.5t-21.5 -59.5t-7.5 -92
q0 -60 7 -99t20.5 -62t34 -32t47.5 -9z" />
    <glyph glyph-name="e" unicode="e" horiz-adv-x="470" 
d="M121 230q1 -54 9 -90.5t23.5 -58.5t40 -31t58.5 -9q42 0 69 12.5t50 30.5l33 -42q-31 -25 -66.5 -38.5t-85.5 -13.5q-43 0 -78.5 13t-61 42t-40 76.5t-14.5 116.5q0 68 13.5 115.5t38 77.5t58 43.5t73.5 13.5q84 0 127.5 -55t43.5 -178v-25h-291zM350 277q0 46 -7 77
t-20.5 50t-34 27t-48.5 8q-25 0 -45.5 -7.5t-36 -26.5t-24.5 -50t-12 -78h228z" />
    <glyph glyph-name="f" unicode="f" horiz-adv-x="293" 
d="M39 429v49h57v118q0 67 33 96.5t80 29.5q29 0 51 -5.5t43 -19.5l-23 -44q-16 8 -31 13t-34 5q-29 0 -44 -18t-15 -58v-117h97v-49h-97v-429h-60v429h-57z" />
    <glyph glyph-name="g" unicode="g" horiz-adv-x="465" 
d="M434 478v-37l-71 -12q29 -40 29 -95q0 -75 -45 -113.5t-117 -38.5q-37 0 -66 10q-14 -14 -25 -33.5t-11 -39.5q0 -14 9 -23t32 -9h96q77 0 119 -34t42 -102q0 -73 -50 -115t-147 -42q-96 0 -141 37.5t-45 96.5q0 42 21 68.5t48 45.5q-40 19 -40 65q0 35 17.5 59t38.5 42
q-29 19 -46 50.5t-17 75.5q0 75 46 114.5t119 39.5q19 0 35 -2.5t30 -7.5h139zM155 31q-23 -17 -37.5 -40.5t-14.5 -58.5q0 -20 5.5 -36.5t20 -28.5t38.5 -18.5t61 -6.5q137 0 137 108q0 81 -93 81h-117zM228 227q48 0 75.5 25.5t27.5 83.5q0 59 -26.5 81.5t-75.5 22.5
q-47 0 -75 -24.5t-28 -83.5q0 -58 28.5 -81.5t73.5 -23.5z" />
    <glyph glyph-name="h" unicode="h" horiz-adv-x="504" 
d="M89 715h60v-302q35 33 71 54t81 21q51 0 84.5 -30t33.5 -93v-365h-60v349q0 48 -17.5 67t-54.5 19q-36 0 -71 -20t-67 -49v-366h-60v715z" />
    <glyph glyph-name="i" unicode="i" horiz-adv-x="271" 
d="M118 431l-68 9v38h128v-478h-60v431zM142 588q-20 0 -32.5 13t-12.5 33t12.5 33.5t32.5 13.5t33 -13.5t13 -33.5t-13 -33t-33 -13z" />
    <glyph glyph-name="j" unicode="j" horiz-adv-x="271" 
d="M44 -167q21 12 35 24t23 27.5t12.5 36.5t3.5 52v458l-68 9v38h128v-506q0 -44 -7 -73t-20.5 -48.5t-34.5 -32.5t-48 -26zM142 588q-20 0 -32.5 13t-12.5 33t12.5 33.5t32.5 13.5t33 -13.5t13 -33.5t-13 -33t-33 -13z" />
    <glyph glyph-name="k" unicode="k" horiz-adv-x="453" 
d="M89 715h60v-715h-60v715zM168 270l171 208h69l-172 -207l197 -271h-71z" />
    <glyph glyph-name="l" unicode="l" horiz-adv-x="253" 
d="M168 -8q-35 0 -56.5 20.5t-21.5 73.5v629h60v-635q0 -23 8.5 -31t25.5 -8q11 0 15 1t6 2l10 -43q-10 -4 -22 -6.5t-25 -2.5z" />
    <glyph glyph-name="m" unicode="m" horiz-adv-x="745" 
d="M89 478h42l14 -66q34 32 69 54t78 22q40 0 66.5 -19.5t39.5 -54.5q37 33 72.5 53.5t76.5 20.5q50 0 81 -29.5t31 -92.5v-366h-60v350q0 48 -15.5 66.5t-49.5 18.5t-66 -17.5t-64 -45.5v-372h-60v350q0 48 -15.5 66.5t-49.5 18.5q-35 0 -66.5 -19t-63.5 -47v-369h-60v478z
" />
    <glyph glyph-name="n" unicode="n" horiz-adv-x="504" 
d="M89 478h42l14 -69q35 35 73 57t83 22q51 0 84.5 -30t33.5 -93v-365h-60v349q0 48 -17.5 67t-54.5 19q-36 0 -71 -20t-67 -49v-366h-60v478z" />
    <glyph glyph-name="o" unicode="o" horiz-adv-x="498" 
d="M249 -10q-42 0 -77 14t-60.5 44t-39.5 77t-14 113q0 67 14 114.5t39 77.5t59.5 44t76.5 14q41 0 76.5 -14t61 -44t40 -77t14.5 -114q0 -66 -14 -113.5t-39 -77.5t-60 -44t-77 -14zM249 38q31 0 55 10t40 33t24 61.5t8 94.5q0 57 -8.5 95.5t-24.5 62.5t-40 34.5t-55 10.5
t-55 -10t-40 -33.5t-24 -61.5t-8 -95t8.5 -95.5t24.5 -62t40 -34t55 -10.5z" />
    <glyph glyph-name="p" unicode="p" horiz-adv-x="512" 
d="M89 478h42l14 -64q27 30 63.5 52t79.5 22q36 0 65.5 -13.5t51 -43t33.5 -77t12 -115.5q0 -130 -42.5 -189.5t-123.5 -59.5q-45 0 -78.5 19.5t-56.5 43.5v-257h-60v682zM273 42q28 0 49.5 9t35.5 31.5t21.5 59t7.5 92.5q0 60 -7 99t-20.5 62t-33.5 32t-47 9
q-41 0 -72.5 -21t-57.5 -45v-269q26 -26 57 -42.5t67 -16.5z" />
    <glyph glyph-name="q" unicode="q" horiz-adv-x="512" 
d="M363 58q-26 -27 -61 -47.5t-78 -20.5q-36 0 -66 13t-51 42.5t-33 77t-12 116.5q0 130 42 189.5t123 59.5q45 0 80.5 -22t58.5 -47l14 59h42v-682h-59v262zM233 42q41 0 72 19.5t58 44.5v268q-26 27 -57 44.5t-68 17.5q-28 0 -49.5 -9t-35.5 -31.5t-21.5 -59.5t-7.5 -92
q0 -60 7 -99t20.5 -62t34 -32t47.5 -9z" />
    <glyph glyph-name="r" unicode="r" horiz-adv-x="336" 
d="M89 478h42l14 -81q30 37 66 62.5t79 25.5q4 0 9 -0.5t6 -1.5l-6 -64q-6 3 -21 3q-37 0 -67 -18t-62 -53v-351h-60v478z" />
    <glyph glyph-name="s" unicode="s" horiz-adv-x="409" 
d="M193 -10q-48 0 -88 15.5t-66 36.5l26 43q28 -20 59 -32.5t70 -12.5q54 0 77 22.5t23 61.5q0 22 -5.5 36.5t-18 26t-33 20t-51.5 18.5q-27 8 -49.5 19t-39 27.5t-26 39.5t-9.5 55q0 25 8.5 47.5t26 39t44 26t62.5 9.5q44 0 74.5 -9.5t55.5 -23.5l-22 -47q-26 14 -50 21.5
t-57 7.5q-41 0 -63 -17t-22 -53q0 -20 5 -33t15.5 -22.5t28 -17t42.5 -15.5q30 -10 56 -21t45 -27.5t30 -41.5t11 -62q0 -70 -42 -103.5t-117 -33.5z" />
    <glyph glyph-name="t" unicode="t" horiz-adv-x="311" 
d="M41 429v49h58v126l59 14v-140h100v-49h-100v-346q0 -44 40 -44q19 0 32.5 4.5t23.5 9.5l15 -44q-15 -8 -32.5 -13.5t-41.5 -5.5q-41 0 -68.5 20.5t-27.5 69.5v349h-58z" />
    <glyph glyph-name="u" unicode="u" horiz-adv-x="506" 
d="M206 -10q-52 0 -86.5 31t-34.5 95v362h59v-346q0 -49 19 -69t55 -20t70.5 18.5t67.5 45.5v371h60v-478h-43l-14 64q-34 -32 -71 -53t-82 -21z" />
    <glyph glyph-name="v" unicode="v" horiz-adv-x="452" 
d="M37 478h64l95 -302q10 -31 18 -66t13 -58h1q4 23 12.5 58t18.5 67l94 301h62l-160 -478h-61z" />
    <glyph glyph-name="w" unicode="w" horiz-adv-x="675" 
d="M41 478h63l74 -299q4 -16 7.5 -34t6.5 -34.5t5 -29t3 -16.5h1q1 4 3 16.5t5 28t7 33t8 32.5l83 303h66l80 -299q4 -16 8 -34t7 -34.5t5.5 -29t3.5 -16.5h1q1 4 3 17t5.5 29t7 33.5t7.5 32.5l74 301h60l-126 -478h-64l-85 315q-7 28 -12.5 58t-8.5 48h-1q-3 -17 -8.5 -47
t-13.5 -59l-87 -315h-63z" />
    <glyph glyph-name="x" unicode="x" horiz-adv-x="441" 
d="M188 260l-132 218h68l56 -96q14 -26 22.5 -41.5t19.5 -38.5h2q5 12 9.5 21t8.5 18t9 18.5t12 22.5l55 96h66l-132 -217l155 -261h-68l-72 127q-17 29 -27.5 48.5t-19.5 40.5h-2q-9 -20 -18.5 -38.5t-27.5 -49.5l-73 -128h-65z" />
    <glyph glyph-name="y" unicode="y" horiz-adv-x="453" 
d="M63 -161q32 10 54.5 22t39 30t29 44.5t23.5 64.5h-21l-151 478h64l93 -306q11 -38 19 -71t13 -59h1q5 26 14 58t21 72l92 306h62l-158 -499q-16 -50 -32.5 -81.5t-37 -52t-47.5 -32t-63 -21.5z" />
    <glyph glyph-name="z" unicode="z" horiz-adv-x="421" 
d="M53 55l249 374h-228v49h290v-55l-248 -374h256v-49h-319v55z" />
    <glyph glyph-name="braceleft" unicode="{" horiz-adv-x="369" 
d="M250 -154q-49 0 -80.5 25.5t-31.5 84.5v225q0 48 -21 66t-72 18v53q50 0 71.5 18t21.5 66v221q0 59 31.5 85t80.5 26h71v-49h-66q-32 0 -44 -16.5t-12 -51.5v-218q0 -29 -5.5 -48t-15 -31t-22 -18t-27.5 -9v-2q15 -3 27.5 -9.5t22 -18.5t15 -31t5.5 -48v-222
q0 -35 12 -51.5t44 -16.5h66v-48h-71v0z" />
    <glyph glyph-name="bar" unicode="|" horiz-adv-x="237" 
d="M94 759h49v-905h-49v905z" />
    <glyph glyph-name="braceright" unicode="}" horiz-adv-x="369" 
d="M47 -106h67q32 0 44 16.5t12 51.5v222q0 29 5.5 48t15 31t22 18.5t27.5 9.5v2q-15 3 -27.5 9t-22 18t-15 31t-5.5 48v218q0 35 -12 51.5t-44 16.5h-67v49h71q50 0 81.5 -26t31.5 -85v-221q0 -48 21 -66t72 -18v-53q-51 0 -72 -18t-21 -66v-225q0 -59 -31.5 -84.5
t-81.5 -25.5h-71v48z" />
    <glyph glyph-name="asciitilde" unicode="~" horiz-adv-x="486" 
d="M69 292q22 45 47 67.5t59 22.5q22 0 40.5 -8t35 -18t32 -18t31.5 -8q23 0 36.5 17t27.5 40l39 -22q-22 -46 -46.5 -68t-59.5 -22q-22 0 -40.5 8t-35 17.5t-32 17.5t-31.5 8q-23 0 -36.5 -16.5t-27.5 -39.5z" />
    <glyph glyph-name="uni00A0" unicode="&#xa0;" horiz-adv-x="230" 
 />
    <glyph glyph-name="exclamdown" unicode="&#xa1;" horiz-adv-x="252" 
d="M103 293h47l12 -491h-71zM126 381q-23 0 -37.5 15t-14.5 38q0 22 14.5 37t37.5 15q21 0 36 -15t15 -37q0 -23 -15 -38t-36 -15z" />
    <glyph glyph-name="cent" unicode="&#xa2;" horiz-adv-x="435" 
d="M220 600h47v-113q39 -2 67 -16.5t53 -38.5l-35 -39q-19 20 -38.5 31t-47.5 13v-397q33 3 54.5 17.5t38.5 31.5l37 -36q-23 -26 -53.5 -42.5t-75.5 -19.5v-106h-47v107q-72 8 -117 66t-45 180q0 62 12 107t33 75t51 46t66 20v114zM221 436q-24 -3 -43 -15t-31.5 -35.5
t-19 -59t-6.5 -86.5q0 -50 6 -86t18.5 -59.5t31 -36.5t44.5 -17v395z" />
    <glyph glyph-name="sterling" unicode="&#xa3;" horiz-adv-x="507" 
d="M209 292q7 -23 11.5 -47t4.5 -50q0 -42 -16 -78.5t-58 -63.5h304v-53h-380v56q47 25 69.5 57t22.5 81q0 27 -6 51t-14 47h-89v53h70q-10 28 -17 58t-7 65q0 45 14 78t39 55t57.5 33t70.5 11q54 0 92.5 -15t80.5 -44l-25 -43q-17 12 -33 21t-33 15.5t-36 10t-43 3.5
q-57 0 -88.5 -30.5t-31.5 -92.5q0 -34 7.5 -64.5t17.5 -60.5h191v-53h-175v0z" />
    <glyph glyph-name="currency" unicode="&#xa4;" horiz-adv-x="515" 
d="M35 97l75 85q-14 25 -22 56.5t-8 69.5q0 39 7.5 70.5t21.5 55.5l-12 14q-5 6 -12 13.5t-14 15.5q-17 18 -38 43l39 36q19 -21 35 -39q6 -8 12.5 -15.5t11.5 -12.5q6 -7 11 -12q46 43 114 43q70 0 116 -43q5 6 11 12q5 5 11 12t13 15q15 18 35 40l39 -37l-75 -85
q14 -24 22 -55.5t8 -69.5t-8 -70t-22 -57l76 -86l-39 -35l-70 79q-48 -42 -115 -42q-69 0 -115 42l-69 -80zM258 148q57 0 86 36.5t29 122.5q0 87 -29.5 125t-86.5 38t-85.5 -36.5t-28.5 -123.5t29.5 -124.5t85.5 -37.5z" />
    <glyph glyph-name="yen" unicode="&#xa5;" horiz-adv-x="568" 
d="M66 313v48h131l-136 274h71l115 -243q14 -30 22.5 -52.5t16.5 -45.5q7 23 14.5 45.5t21.5 51.5l117 244h68l-136 -274h132v-48h-156l-31 -62v-38h187v-47h-187v-166h-64v166h-186v47h186v38l-31 62h-155z" />
    <glyph glyph-name="brokenbar" unicode="&#xa6;" horiz-adv-x="237" 
d="M94 759h49v-398h-49v398zM94 250h49v-396h-49v396z" />
    <glyph glyph-name="section" unicode="&#xa7;" horiz-adv-x="546" 
d="M174 401q-26 20 -38.5 46.5t-12.5 65.5q0 28 9.5 52t29 42t49.5 28t70 10q48 0 82 -12t64 -32l-24 -44q-29 18 -56 28t-65 10q-54 0 -77 -21.5t-23 -58.5q0 -23 6 -38.5t20 -27t38.5 -21t60.5 -21.5q38 -12 69.5 -24.5t54.5 -31.5t36 -46t13 -67q0 -56 -28.5 -89.5
t-82.5 -49.5q29 -20 44 -47.5t15 -68.5q0 -68 -42 -104.5t-120 -36.5q-60 0 -102 18.5t-66 40.5l29 42q26 -22 57.5 -36.5t82.5 -14.5q101 0 101 89q0 23 -8 39.5t-25 29.5t-42.5 23.5t-61.5 21.5q-39 13 -69.5 27.5t-52 34t-33 46t-11.5 62.5q0 103 109 136zM316 128
q55 9 79 37t24 72q0 27 -8 44.5t-25 30t-42.5 21.5t-59.5 20q-16 5 -30 10t-27 10q-57 -10 -80.5 -38t-23.5 -71q0 -23 7.5 -40t23.5 -29.5t40.5 -23t58.5 -21.5q17 -5 33 -11t30 -11z" />
    <glyph glyph-name="dieresis" unicode="&#xa8;" horiz-adv-x="543" 
d="M357 552q-19 0 -32 12.5t-13 32.5t12.5 32.5t31.5 12.5t32 -12.5t13 -32.5t-12.5 -32.5t-31.5 -12.5zM186 552q-19 0 -32 12.5t-13 32.5t12.5 32.5t31.5 12.5t32 -12.5t13 -32.5t-12.5 -32.5t-31.5 -12.5z" />
    <glyph glyph-name="copyright" unicode="&#xa9;" horiz-adv-x="723" 
d="M362 -11q-68 0 -123 25t-94 72t-60.5 113t-21.5 149q0 82 21.5 148.5t60.5 113.5t94 72.5t123 25.5q67 0 122 -25.5t94 -72.5t60.5 -113.5t21.5 -148.5q0 -83 -21.5 -149t-60.5 -113t-94 -72t-122 -25zM362 27q60 0 107 22.5t79 64t49 101t17 133.5t-17 133.5t-49 101
t-79 64t-107 22.5t-107 -22.5t-79.5 -64t-49.5 -101t-17 -133.5t17 -133.5t49.5 -101t79.5 -64t107 -22.5zM367 124q-165 0 -165 221q0 117 42 170.5t122 53.5q70 0 115 -49l-33 -35q-19 19 -38 28t-46 9q-28 0 -47 -9t-31 -30t-17.5 -54.5t-5.5 -82.5t5.5 -82.5t18 -54.5
t33 -30t49.5 -9q27 0 46.5 11.5t36.5 28.5l34 -34q-22 -24 -51 -38t-68 -14z" />
    <glyph glyph-name="ordfeminine" unicode="&#xaa;" horiz-adv-x="436" 
d="M303 510q0 39 -14 61.5t-58 22.5q-35 0 -67.5 -12.5t-62.5 -31.5l-22 43q32 22 69 36.5t88 14.5q62 0 93 -30t31 -96v-320h-41l-13 53q-17 -22 -47.5 -42t-72.5 -20q-62 0 -96 34t-34 98q0 72 45.5 106.5t147.5 34.5h54v48zM303 419h-48q-41 0 -67.5 -6t-42.5 -18
t-22 -30.5t-6 -44.5q0 -45 19 -64.5t57 -19.5t65.5 19.5t44.5 39.5v124z" />
    <glyph glyph-name="guillemotleft" unicode="&#xab;" horiz-adv-x="465" 
d="M226 246l133 206l45 -30l-112 -176l111 -175l-44 -30zM57 246l132 206l45 -30l-112 -176l112 -175l-45 -30z" />
    <glyph glyph-name="logicalnot" unicode="&#xac;" horiz-adv-x="461" 
d="M322 297h-248v52h305v-192h-57v140z" />
    <glyph glyph-name="uni00AD" unicode="&#xad;" horiz-adv-x="292" 
d="M56 298h179v-60h-179v60z" />
    <glyph glyph-name="registered" unicode="&#xae;" horiz-adv-x="541" 
d="M270 211q-47 0 -85.5 16.5t-66.5 48t-43.5 78t-15.5 105.5q0 58 15.5 104.5t43.5 78t66.5 48.5t85.5 17t86 -17t66.5 -48.5t43 -78t15.5 -104.5q0 -59 -15.5 -105.5t-43 -78t-66.5 -48t-86 -16.5zM270 249q80 0 124 53.5t44 156.5t-44 156.5t-124 53.5
q-81 0 -124.5 -53.5t-43.5 -156.5t43.5 -156.5t124.5 -53.5zM189 603h81q91 0 91 -79q0 -33 -13 -50t-39 -25q23 -7 36 -47l27 -81h-49l-26 81q-8 23 -16.5 30.5t-22.5 7.5h-24v-119h-45v282zM270 475q25 0 34.5 11.5t9.5 35.5q0 22 -10 32.5t-34 10.5h-36v-90h36z" />
    <glyph glyph-name="macron" unicode="&#xaf;" horiz-adv-x="543" 
d="M156 641h230v-50h-230v50z" />
    <glyph glyph-name="degree" unicode="&#xb0;" horiz-adv-x="377" 
d="M188 371q-31 0 -57.5 11t-45.5 31.5t-30 50t-11 67.5t11 68.5t30 51.5t45.5 32t56.5 11q63 0 104 -43t41 -119q0 -38 -11 -67.5t-30.5 -50.5t-46 -32t-56.5 -11zM189 413q42 0 65 28t23 89q0 66 -24 93.5t-65 27.5q-42 0 -66 -27.5t-24 -89.5q0 -66 24.5 -93.5
t66.5 -27.5z" />
    <glyph glyph-name="plusminus" unicode="&#xb1;" horiz-adv-x="525" 
d="M234 281h-161v51h161v159h57v-159h160v-51h-160v-143h-57v143zM73 82h378v-52h-378v52z" />
    <glyph glyph-name="twosuperior" unicode="&#xb2;" horiz-adv-x="354" 
d="M55 266q61 51 98.5 88t58.5 65.5t28 51.5t7 47q0 42 -20.5 62t-57.5 20q-29 0 -49.5 -7.5t-45.5 -21.5l-19 39q26 16 53.5 25.5t64.5 9.5q57 0 93 -31.5t36 -93.5q0 -28 -8.5 -55.5t-29.5 -57.5t-57 -65t-90 -79h193v-43h-255v46z" />
    <glyph glyph-name="threesuperior" unicode="&#xb3;" horiz-adv-x="362" 
d="M152 177q-38 0 -69 8t-54 19l13 39q22 -9 47.5 -15.5t57.5 -6.5q103 0 103 93q0 26 -7.5 43.5t-21 28t-31.5 15t-40 4.5h-37v42h34q45 0 66.5 20.5t21.5 57.5q0 36 -19.5 56t-61.5 20q-28 0 -51 -8t-44 -19l-17 38q26 15 54 24t66 9q61 0 94 -32t33 -81q0 -42 -19.5 -67
t-51.5 -36q39 -10 63.5 -38t24.5 -80q0 -62 -39.5 -98t-114.5 -36z" />
    <glyph glyph-name="acute" unicode="&#xb4;" horiz-adv-x="493" 
d="M163 576l166 118l33 -55l-176 -98z" />
    <glyph glyph-name="uni00B5" unicode="&#xb5;" horiz-adv-x="508" 
d="M147 -204h-60v682h60v-346q0 -49 18.5 -69t55.5 -20q36 0 70.5 18.5t67.5 45.5v371h59v-478h-42l-14 64q-34 -32 -70.5 -53t-76.5 -21q-21 0 -39 6.5t-29 20.5v-221z" />
    <glyph glyph-name="paragraph" unicode="&#xb6;" horiz-adv-x="522" 
d="M233 367h-12q-75 0 -119 42.5t-44 117.5q0 76 40.5 118t118.5 42h212v-774h-57v723h-82v-723h-57v454z" />
    <glyph glyph-name="periodcentered" unicode="&#xb7;" horiz-adv-x="242" 
d="M121 286q-22 0 -37 15t-15 37q0 23 15 38t37 15t37 -15t15 -38q0 -22 -15 -37t-37 -15z" />
    <glyph glyph-name="cedilla" unicode="&#xb8;" horiz-adv-x="543" 
d="M274 -205q-21 0 -40.5 7.5t-33.5 18.5l20 33q14 -8 25.5 -12.5t28.5 -4.5q40 0 40 37q0 39 -40 39q-12 0 -21 -1.5t-18 -3.5l39 102h44l-27 -63q35 -2 52.5 -22t17.5 -53t-21 -55t-66 -22z" />
    <glyph glyph-name="onesuperior" unicode="&#xb9;" horiz-adv-x="317" 
d="M58 261h85v316l-79 -43l-17 29l110 81h41v-383h80v-41h-220v41z" />
    <glyph glyph-name="ordmasculine" unicode="&#xba;" horiz-adv-x="452" 
d="M233 189q-38 0 -70.5 12.5t-55.5 40t-36 70.5t-13 104t12.5 104.5t35.5 71t55 40t70 12.5t70.5 -12.5t56 -40t36.5 -70.5t13 -104t-12.5 -104t-35.5 -70.5t-55 -40.5t-71 -13zM233 235q28 0 49 9t35.5 30t21.5 55.5t7 85.5q0 102 -29 142t-85 40q-28 0 -49 -8.5
t-35.5 -29.5t-21.5 -55.5t-7 -86.5q0 -51 7.5 -86t21.5 -56.5t35.5 -30.5t49.5 -9z" />
    <glyph glyph-name="guillemotright" unicode="&#xbb;" horiz-adv-x="465" 
d="M230 72l112 175l-112 175l45 30l133 -205l-133 -206zM60 72l112 175l-111 175l44 30l133 -205l-133 -206z" />
    <glyph glyph-name="onequarter" unicode="&#xbc;" horiz-adv-x="942" 
d="M566 65v48l137 305h56l-139 -309h168v182l54 10v-192h50v-44h-50v-102h-54v102h-222zM627 636h56l-375 -636h-57zM62 261h86v316l-80 -43l-16 29l109 81h42v-383h79v-41h-220v41z" />
    <glyph glyph-name="onehalf" unicode="&#xbd;" horiz-adv-x="942" 
d="M625 46q61 51 98.5 88t58 65.5t27.5 51.5t7 47q0 42 -20.5 62t-56.5 20q-29 0 -49.5 -7.5t-46.5 -21.5l-18 39q26 16 53 25.5t64 9.5q57 0 93.5 -31.5t36.5 -93.5q0 -28 -8.5 -55.5t-30 -57.5t-57.5 -65t-90 -79h193v-43h-254v46zM626 636h56l-375 -636h-57zM62 261h86
v316l-80 -43l-16 29l109 81h42v-383h79v-41h-220v41z" />
    <glyph glyph-name="threequarters" unicode="&#xbe;" horiz-adv-x="970" 
d="M594 65v48l136 305h56l-139 -309h168v182l55 10v-192h50v-44h-50v-102h-55v102h-221zM169 176q-39 0 -70 7.5t-54 18.5l14 39q21 -8 46.5 -15t57.5 -7q103 0 103 94q0 52 -28 71.5t-71 19.5h-38v41h35q45 0 66 21t21 58q0 36 -19.5 56t-60.5 20q-29 0 -51.5 -8t-44.5 -19
l-17 37q26 16 54 25t66 9q61 0 94.5 -32t33.5 -81q0 -42 -19.5 -67t-51.5 -36q38 -10 62.5 -38t24.5 -80q0 -62 -39 -98t-114 -36zM664 636h56l-375 -636h-57z" />
    <glyph glyph-name="questiondown" unicode="&#xbf;" horiz-adv-x="424" 
d="M220 -206q-34 0 -62.5 8t-49 26t-32 46.5t-11.5 68.5q0 36 8 61.5t21.5 44t30.5 32.5l34 28q16 12 26.5 22.5t16.5 22.5t8.5 27t2.5 36v76h55v-81q0 -30 -5.5 -52t-15.5 -38t-23 -28t-29 -24q-14 -11 -26.5 -21.5t-22 -24.5t-15 -33t-5.5 -46q0 -54 22 -76t75 -22
q35 0 70 13t58 29l25 -44q-29 -21 -69.5 -36t-86.5 -15zM239 383q-21 0 -36 14.5t-15 37.5q0 22 15 36.5t36 14.5t36 -14.5t15 -36.5q0 -23 -15 -37.5t-36 -14.5z" />
    <glyph glyph-name="Agrave" unicode="&#xc0;" horiz-adv-x="555" 
d="M94 0h-64l215 687h69l210 -687h-68l-65 221h-229zM317 470q-17 57 -24.5 92t-12.5 64h-2q-5 -29 -13.5 -65t-25.5 -91l-60 -195h196zM161 833l33 55l166 -118l-22 -35z" />
    <glyph glyph-name="Aacute" unicode="&#xc1;" horiz-adv-x="555" 
d="M94 0h-64l215 687h69l210 -687h-68l-65 221h-229zM317 470q-17 57 -24.5 92t-12.5 64h-2q-5 -29 -13.5 -65t-25.5 -91l-60 -195h196zM194 770l166 118l33 -55l-176 -98z" />
    <glyph glyph-name="Acircumflex" unicode="&#xc2;" horiz-adv-x="555" 
d="M94 0h-64l215 687h69l210 -687h-68l-65 221h-229zM317 470q-17 57 -24.5 92t-12.5 64h-2q-5 -29 -13.5 -65t-25.5 -91l-60 -195h196zM147 769l112 117h39l113 -117l-25 -30l-108 87l-106 -87z" />
    <glyph glyph-name="Atilde" unicode="&#xc3;" horiz-adv-x="555" 
d="M94 0h-64l215 687h69l210 -687h-68l-65 221h-229zM317 470q-17 57 -24.5 92t-12.5 64h-2q-5 -29 -13.5 -65t-25.5 -91l-60 -195h196zM139 772q32 73 87 73q16 0 30.5 -6t27.5 -12.5t25.5 -12.5t26.5 -6q18 0 27.5 11.5t20.5 28.5l35 -22q-32 -72 -86 -72q-17 0 -31.5 5.5
t-27.5 12.5t-26 12.5t-26 5.5q-18 0 -27.5 -11.5t-20.5 -28.5z" />
    <glyph glyph-name="Adieresis" unicode="&#xc4;" horiz-adv-x="555" 
d="M94 0h-64l215 687h69l210 -687h-68l-65 221h-229zM317 470q-17 57 -24.5 92t-12.5 64h-2q-5 -29 -13.5 -65t-25.5 -91l-60 -195h196zM193 746q-19 0 -32 12.5t-13 32.5t12.5 32.5t31.5 12.5t32 -12.5t13 -32.5t-12.5 -32.5t-31.5 -12.5zM364 746q-19 0 -32 12.5t-13 32.5
t12.5 32.5t31.5 12.5t32 -12.5t13 -32.5t-12.5 -32.5t-31.5 -12.5z" />
    <glyph glyph-name="Aring" unicode="&#xc5;" horiz-adv-x="555" 
d="M94 0h-64l215 687h69l210 -687h-68l-65 221h-229zM317 470q-17 57 -24.5 92t-12.5 64h-2q-5 -29 -13.5 -65t-25.5 -91l-60 -195h196zM278 732q-41 0 -64 28.5t-23 64.5t23 64.5t64 28.5q21 0 37 -8t27.5 -20.5t17.5 -29.5t6 -35t-6 -35t-17.5 -29.5t-27.5 -20.5t-37 -8z
M278 769q20 0 32.5 13.5t12.5 42.5t-12.5 42.5t-32.5 13.5t-32 -13.5t-12 -42.5t12 -42.5t32 -13.5z" />
    <glyph glyph-name="AE" unicode="&#xc6;" horiz-adv-x="855" 
d="M96 0h-67l378 687h369v-54h-276v-245h224v-54h-224v-280h288v-54h-352v213h-224zM436 480v44.5t1 53.5q1 30 2 63h-2q-7 -18 -25.5 -56t-48.5 -93l-122 -225h195v213z" />
    <glyph glyph-name="Ccedilla" unicode="&#xc7;" horiz-adv-x="540" 
d="M266 -5q-105 18 -151.5 106t-46.5 239q0 84 14.5 150.5t45 112t78 69.5t114.5 24q51 0 91 -14t71 -39l-31 -45q-26 20 -58 32.5t-73 12.5q-53 0 -88.5 -19t-56.5 -56.5t-30 -93.5t-9 -131q0 -76 8.5 -132t30.5 -93t58 -55.5t92 -18.5q45 0 78.5 16t59.5 36l31 -46
q-32 -26 -74.5 -43t-95.5 -17h-16l-19 -43q35 -2 52.5 -22t17.5 -53t-21 -55t-66 -22q-21 0 -40.5 7.5t-33.5 18.5l20 33q14 -8 25.5 -12.5t28.5 -4.5q40 0 40 37q0 39 -40 39q-12 0 -21 -1.5t-18 -3.5l33 87v0z" />
    <glyph glyph-name="Egrave" unicode="&#xc8;" horiz-adv-x="504" 
d="M98 687h340v-54h-277v-245h225v-54h-225v-280h289v-54h-352v687zM154 833l33 55l166 -118l-22 -35z" />
    <glyph glyph-name="Eacute" unicode="&#xc9;" horiz-adv-x="504" 
d="M98 687h340v-54h-277v-245h225v-54h-225v-280h289v-54h-352v687zM183 770l166 118l33 -55l-176 -98z" />
    <glyph glyph-name="Ecircumflex" unicode="&#xca;" horiz-adv-x="504" 
d="M98 687h340v-54h-277v-245h225v-54h-225v-280h289v-54h-352v687zM135 769l112 117h39l113 -117l-25 -30l-108 87l-106 -87z" />
    <glyph glyph-name="Edieresis" unicode="&#xcb;" horiz-adv-x="504" 
d="M98 687h340v-54h-277v-245h225v-54h-225v-280h289v-54h-352v687zM179 746q-19 0 -32 12.5t-13 32.5t12.5 32.5t31.5 12.5t32 -12.5t13 -32.5t-12.5 -32.5t-31.5 -12.5zM350 746q-19 0 -32 12.5t-13 32.5t12.5 32.5t31.5 12.5t32 -12.5t13 -32.5t-12.5 -32.5t-31.5 -12.5z
" />
    <glyph glyph-name="Igrave" unicode="&#xcc;" horiz-adv-x="329" 
d="M62 651v36h205v-36l-71 -6v-603l71 -6v-36h-205v36l71 6v603zM50 833l33 55l166 -118l-22 -35z" />
    <glyph glyph-name="Iacute" unicode="&#xcd;" horiz-adv-x="329" 
d="M62 651v36h205v-36l-71 -6v-603l71 -6v-36h-205v36l71 6v603zM84 770l166 118l33 -55l-176 -98z" />
    <glyph glyph-name="Icircumflex" unicode="&#xce;" horiz-adv-x="329" 
d="M62 651v36h205v-36l-71 -6v-603l71 -6v-36h-205v36l71 6v603zM32 770l112 117h39l113 -117l-25 -30l-108 87l-106 -87z" />
    <glyph glyph-name="Idieresis" unicode="&#xcf;" horiz-adv-x="329" 
d="M62 651v36h205v-36l-71 -6v-603l71 -6v-36h-205v36l71 6v603zM80 746q-19 0 -32 12.5t-13 32.5t12.5 32.5t31.5 12.5t32 -12.5t13 -32.5t-12.5 -32.5t-31.5 -12.5zM251 746q-19 0 -32 12.5t-13 32.5t12.5 32.5t31.5 12.5t32 -12.5t13 -32.5t-12.5 -32.5t-31.5 -12.5z" />
    <glyph glyph-name="Eth" unicode="&#xd0;" horiz-adv-x="588" 
d="M21 314v54h72v319h156q73 0 124.5 -19t84 -61t47.5 -109.5t15 -163.5q0 -93 -15.5 -157t-48 -103.5t-83 -56.5t-121.5 -17h-159v314h-72zM306 368v-54h-150v-260h99q58 0 96.5 15.5t61 49.5t31.5 87.5t9 130.5q0 80 -8.5 136.5t-31 92t-61 52t-97.5 16.5h-99v-266h150z
" />
    <glyph glyph-name="Ntilde" unicode="&#xd1;" horiz-adv-x="607" 
d="M98 687h71l226 -463q22 -45 36 -80t25 -68h2q-4 35 -6 75t-2 92v444h59v-687h-70l-218 443q-29 57 -43.5 96t-25.5 71h-2q4 -35 5.5 -80.5t1.5 -105.5v-424h-59v687zM169 772q32 73 87 73q16 0 30.5 -6t27.5 -12.5t25.5 -12.5t26.5 -6q18 0 27.5 11.5t20.5 28.5l35 -22
q-32 -72 -86 -72q-17 0 -31.5 5.5t-27.5 12.5t-26 12.5t-26 5.5q-18 0 -27.5 -11.5t-20.5 -28.5z" />
    <glyph glyph-name="Ograve" unicode="&#xd2;" horiz-adv-x="623" 
d="M313 -10q-127 0 -186 88t-59 262q0 173 61.5 264.5t181.5 91.5q121 0 182.5 -90.5t61.5 -261.5q0 -175 -58 -264.5t-184 -89.5zM312 41q96 0 136 74.5t40 223.5q0 153 -41 229.5t-135 76.5t-135.5 -75t-41.5 -227t40.5 -227t136.5 -75zM195 833l33 55l166 -118l-22 -35z
" />
    <glyph glyph-name="Oacute" unicode="&#xd3;" horiz-adv-x="623" 
d="M313 -10q-127 0 -186 88t-59 262q0 173 61.5 264.5t181.5 91.5q121 0 182.5 -90.5t61.5 -261.5q0 -175 -58 -264.5t-184 -89.5zM312 41q96 0 136 74.5t40 223.5q0 153 -41 229.5t-135 76.5t-135.5 -75t-41.5 -227t40.5 -227t136.5 -75zM228 770l166 118l33 -55l-176 -98z
" />
    <glyph glyph-name="Ocircumflex" unicode="&#xd4;" horiz-adv-x="623" 
d="M313 -10q-127 0 -186 88t-59 262q0 173 61.5 264.5t181.5 91.5q121 0 182.5 -90.5t61.5 -261.5q0 -175 -58 -264.5t-184 -89.5zM312 41q96 0 136 74.5t40 223.5q0 153 -41 229.5t-135 76.5t-135.5 -75t-41.5 -227t40.5 -227t136.5 -75zM180 769l112 117h39l113 -117
l-25 -30l-108 87l-106 -87z" />
    <glyph glyph-name="Otilde" unicode="&#xd5;" horiz-adv-x="623" 
d="M313 -10q-127 0 -186 88t-59 262q0 173 61.5 264.5t181.5 91.5q121 0 182.5 -90.5t61.5 -261.5q0 -175 -58 -264.5t-184 -89.5zM312 41q96 0 136 74.5t40 223.5q0 153 -41 229.5t-135 76.5t-135.5 -75t-41.5 -227t40.5 -227t136.5 -75zM172 772q32 73 87 73q16 0 30.5 -6
t27.5 -12.5t25.5 -12.5t26.5 -6q18 0 27.5 11.5t20.5 28.5l35 -22q-32 -72 -86 -72q-17 0 -31.5 5.5t-27.5 12.5t-26 12.5t-26 5.5q-18 0 -27.5 -11.5t-20.5 -28.5z" />
    <glyph glyph-name="Odieresis" unicode="&#xd6;" horiz-adv-x="623" 
d="M313 -10q-127 0 -186 88t-59 262q0 173 61.5 264.5t181.5 91.5q121 0 182.5 -90.5t61.5 -261.5q0 -175 -58 -264.5t-184 -89.5zM312 41q96 0 136 74.5t40 223.5q0 153 -41 229.5t-135 76.5t-135.5 -75t-41.5 -227t40.5 -227t136.5 -75zM226 746q-19 0 -32 12.5t-13 32.5
t12.5 32.5t31.5 12.5t32 -12.5t13 -32.5t-12.5 -32.5t-31.5 -12.5zM397 746q-19 0 -32 12.5t-13 32.5t12.5 32.5t31.5 12.5t32 -12.5t13 -32.5t-12.5 -32.5t-31.5 -12.5z" />
    <glyph glyph-name="multiply" unicode="&#xd7;" horiz-adv-x="485" 
d="M82 146l125 138l-126 139l37 35l124 -135l123 135l38 -36l-126 -138l127 -139l-37 -35l-125 136l-123 -137z" />
    <glyph glyph-name="Oslash" unicode="&#xd8;" horiz-adv-x="623" 
d="M495 600q59 -91 59 -256q0 -175 -58 -264.5t-184 -89.5q-91 0 -146 46l-59 -101l-44 26l66 114q-62 87 -62 265q0 173 61.5 264.5t181.5 91.5q91 0 150 -54l56 96l44 -27l-32 -56q-6 -11 -12 -20.5t-11 -17.5q-5 -9 -10 -17zM431 592q-42 53 -120 53q-94 0 -135.5 -75
t-41.5 -227q0 -68 7 -119.5t23 -88.5zM195 86q41 -45 116 -45q96 0 136 74.5t40 223.5q0 126 -27 200z" />
    <glyph glyph-name="Ugrave" unicode="&#xd9;" horiz-adv-x="608" 
d="M446 687h64v-687h-45l-15 67q-30 -29 -73.5 -53t-102.5 -24q-38 0 -71 11t-57 35t-38 63t-14 95v493h63v-482q0 -87 28 -123.5t93 -36.5q30 0 55.5 7t46.5 17.5t37.5 23t28.5 23.5v571zM178 833l33 55l166 -118l-22 -35z" />
    <glyph glyph-name="Uacute" unicode="&#xda;" horiz-adv-x="608" 
d="M446 687h64v-687h-45l-15 67q-30 -29 -73.5 -53t-102.5 -24q-38 0 -71 11t-57 35t-38 63t-14 95v493h63v-482q0 -87 28 -123.5t93 -36.5q30 0 55.5 7t46.5 17.5t37.5 23t28.5 23.5v571zM231 770l166 118l33 -55l-176 -98z" />
    <glyph glyph-name="Ucircumflex" unicode="&#xdb;" horiz-adv-x="608" 
d="M446 687h64v-687h-45l-15 67q-30 -29 -73.5 -53t-102.5 -24q-38 0 -71 11t-57 35t-38 63t-14 95v493h63v-482q0 -87 28 -123.5t93 -36.5q30 0 55.5 7t46.5 17.5t37.5 23t28.5 23.5v571zM172 769l112 117h39l113 -117l-25 -30l-108 87l-106 -87z" />
    <glyph glyph-name="Udieresis" unicode="&#xdc;" horiz-adv-x="608" 
d="M446 687h64v-687h-45l-15 67q-30 -29 -73.5 -53t-102.5 -24q-38 0 -71 11t-57 35t-38 63t-14 95v493h63v-482q0 -87 28 -123.5t93 -36.5q30 0 55.5 7t46.5 17.5t37.5 23t28.5 23.5v571zM218 746q-19 0 -32 12.5t-13 32.5t12.5 32.5t31.5 12.5t32 -12.5t13 -32.5
t-12.5 -32.5t-31.5 -12.5zM389 746q-19 0 -32 12.5t-13 32.5t12.5 32.5t31.5 12.5t32 -12.5t13 -32.5t-12.5 -32.5t-31.5 -12.5z" />
    <glyph glyph-name="Yacute" unicode="&#xdd;" horiz-adv-x="537" 
d="M234 271l-198 416h72l123 -268q14 -30 22 -51.5t15 -43.5q8 22 15 43t21 52l123 268h67l-196 -418v-269h-64v271zM215 770l166 118l33 -55l-176 -98z" />
    <glyph glyph-name="Thorn" unicode="&#xde;" horiz-adv-x="532" 
d="M98 687h63v-114h109q104 0 154.5 -50.5t50.5 -146.5q0 -101 -49.5 -153.5t-144.5 -52.5h-120v-170h-63v687zM273 223q69 0 102 34.5t33 115.5q0 79 -33 113t-110 34h-104v-297h112z" />
    <glyph glyph-name="germandbls" unicode="&#xdf;" horiz-adv-x="528" 
d="M310 -7q-38 0 -60 6t-35 11l12 45q14 -5 34 -9.5t46 -4.5q51 0 79.5 28.5t28.5 86.5q0 27 -7.5 47t-20 36t-28.5 28l-32 24q-17 11 -31.5 22t-26 23.5t-18 27t-6.5 32.5q0 27 16 46.5t35.5 38.5t36 42t16.5 57q0 86 -91 86q-59 0 -84 -41t-25 -116v-509h-59v515
q0 97 45.5 147.5t122.5 50.5q74 0 112.5 -37t38.5 -97q0 -40 -16.5 -67t-37 -47t-37 -35t-16.5 -31q0 -8 3.5 -15t11 -14.5t20.5 -17.5t33 -24q19 -14 38 -29t35 -35.5t26 -46.5t10 -61q0 -41 -13 -72t-36 -51t-53.5 -30t-66.5 -10z" />
    <glyph glyph-name="agrave" unicode="&#xe0;" horiz-adv-x="473" 
d="M327 342q0 45 -15.5 69.5t-63.5 24.5q-40 0 -75 -13.5t-68 -34.5l-24 44q35 23 75.5 39.5t96.5 16.5q66 0 100 -33t34 -105v-350h-42l-15 58q-10 -12 -23 -24t-30 -21.5t-37 -16t-43 -6.5q-66 0 -103 37t-37 107q0 78 49 116t160 38h61v54zM327 242h-55q-45 0 -74.5 -6
t-46.5 -19.5t-24 -34t-7 -49.5q0 -50 20.5 -71.5t63.5 -21.5t73.5 21.5t49.5 44.5v136zM127 639l33 55l166 -118l-22 -35z" />
    <glyph glyph-name="aacute" unicode="&#xe1;" horiz-adv-x="473" 
d="M327 342q0 45 -15.5 69.5t-63.5 24.5q-40 0 -75 -13.5t-68 -34.5l-24 44q35 23 75.5 39.5t96.5 16.5q66 0 100 -33t34 -105v-350h-42l-15 58q-10 -12 -23 -24t-30 -21.5t-37 -16t-43 -6.5q-66 0 -103 37t-37 107q0 78 49 116t160 38h61v54zM327 242h-55q-45 0 -74.5 -6
t-46.5 -19.5t-24 -34t-7 -49.5q0 -50 20.5 -71.5t63.5 -21.5t73.5 21.5t49.5 44.5v136zM149 576l166 118l33 -55l-176 -98z" />
    <glyph glyph-name="acircumflex" unicode="&#xe2;" horiz-adv-x="473" 
d="M327 342q0 45 -15.5 69.5t-63.5 24.5q-40 0 -75 -13.5t-68 -34.5l-24 44q35 23 75.5 39.5t96.5 16.5q66 0 100 -33t34 -105v-350h-42l-15 58q-10 -12 -23 -24t-30 -21.5t-37 -16t-43 -6.5q-66 0 -103 37t-37 107q0 78 49 116t160 38h61v54zM327 242h-55q-45 0 -74.5 -6
t-46.5 -19.5t-24 -34t-7 -49.5q0 -50 20.5 -71.5t63.5 -21.5t73.5 21.5t49.5 44.5v136zM111 575l112 117h39l113 -117l-25 -30l-108 87l-106 -87z" />
    <glyph glyph-name="atilde" unicode="&#xe3;" horiz-adv-x="473" 
d="M327 342q0 45 -15.5 69.5t-63.5 24.5q-40 0 -75 -13.5t-68 -34.5l-24 44q35 23 75.5 39.5t96.5 16.5q66 0 100 -33t34 -105v-350h-42l-15 58q-10 -12 -23 -24t-30 -21.5t-37 -16t-43 -6.5q-66 0 -103 37t-37 107q0 78 49 116t160 38h61v54zM327 242h-55q-45 0 -74.5 -6
t-46.5 -19.5t-24 -34t-7 -49.5q0 -50 20.5 -71.5t63.5 -21.5t73.5 21.5t49.5 44.5v136zM94 578q32 73 87 73q16 0 30.5 -6t27.5 -12.5t25.5 -12.5t26.5 -6q18 0 27.5 11.5t20.5 28.5l35 -22q-32 -72 -86 -72q-17 0 -31.5 5.5t-27.5 12.5t-26 12.5t-26 5.5q-18 0 -27.5 -11.5
t-20.5 -28.5z" />
    <glyph glyph-name="adieresis" unicode="&#xe4;" horiz-adv-x="473" 
d="M327 342q0 45 -15.5 69.5t-63.5 24.5q-40 0 -75 -13.5t-68 -34.5l-24 44q35 23 75.5 39.5t96.5 16.5q66 0 100 -33t34 -105v-350h-42l-15 58q-10 -12 -23 -24t-30 -21.5t-37 -16t-43 -6.5q-66 0 -103 37t-37 107q0 78 49 116t160 38h61v54zM327 242h-55q-45 0 -74.5 -6
t-46.5 -19.5t-24 -34t-7 -49.5q0 -50 20.5 -71.5t63.5 -21.5t73.5 21.5t49.5 44.5v136zM155 552q-19 0 -32 12.5t-13 32.5t12.5 32.5t31.5 12.5t32 -12.5t13 -32.5t-12.5 -32.5t-31.5 -12.5zM326 552q-19 0 -32 12.5t-13 32.5t12.5 32.5t31.5 12.5t32 -12.5t13 -32.5
t-12.5 -32.5t-31.5 -12.5z" />
    <glyph glyph-name="aring" unicode="&#xe5;" horiz-adv-x="473" 
d="M327 342q0 45 -15.5 69.5t-63.5 24.5q-40 0 -75 -13.5t-68 -34.5l-24 44q35 23 75.5 39.5t96.5 16.5q66 0 100 -33t34 -105v-350h-42l-15 58q-10 -12 -23 -24t-30 -21.5t-37 -16t-43 -6.5q-66 0 -103 37t-37 107q0 78 49 116t160 38h61v54zM327 242h-55q-45 0 -74.5 -6
t-46.5 -19.5t-24 -34t-7 -49.5q0 -50 20.5 -71.5t63.5 -21.5t73.5 21.5t49.5 44.5v136zM243 543q-41 0 -64 28.5t-23 64.5t23 64.5t64 28.5q21 0 37 -8t27.5 -20.5t17.5 -29.5t6 -35t-6 -35t-17.5 -29.5t-27.5 -20.5t-37 -8zM243 580q20 0 32.5 13.5t12.5 42.5t-12.5 42.5
t-32.5 13.5t-32 -13.5t-12 -42.5t12 -42.5t32 -13.5z" />
    <glyph glyph-name="ae" unicode="&#xe6;" horiz-adv-x="735" 
d="M327 342q0 45 -16 69.5t-63 24.5q-40 0 -75 -13.5t-68 -34.5l-24 44q35 23 75.5 39.5t96.5 16.5q94 0 117 -77q23 40 57 58.5t79 18.5q84 0 127.5 -55t43.5 -178v-19h-291q0 -56 8 -94t24 -61t40.5 -32.5t58.5 -9.5q42 0 69.5 12t50.5 31l32 -40q-31 -25 -66.5 -38.5
t-85.5 -13.5q-54 0 -94.5 21t-64.5 72q-28 -39 -68.5 -66t-92.5 -27q-66 0 -103 36.5t-37 104.5q0 77 49 114.5t160 37.5h61v59zM337 119q-4 22 -6.5 50.5t-3.5 66.5h-55q-45 0 -74.5 -6t-46.5 -18.5t-24 -32.5t-7 -48q0 -48 20.5 -69.5t63.5 -21.5q42 0 75.5 23t57.5 56z
M615 283q0 45 -7 75t-20.5 48t-34 25.5t-48.5 7.5q-25 0 -45.5 -7.5t-35.5 -25.5t-24.5 -48t-12.5 -75h228z" />
    <glyph glyph-name="ccedilla" unicode="&#xe7;" horiz-adv-x="429" 
d="M205 -7q-33 6 -60 23t-46.5 46.5t-30 73t-10.5 102.5q0 68 14 115.5t38.5 77.5t59 43.5t75.5 13.5q45 0 76 -14.5t58 -41.5l-36 -41q-21 23 -43 34.5t-57 11.5q-30 0 -52.5 -9.5t-38 -32t-23.5 -60.5t-8 -95t8 -95.5t23.5 -61.5t39.5 -32.5t56 -9.5q38 0 61 15t40 33
l39 -37q-24 -27 -57.5 -44t-82.5 -18l-19 -43q35 -2 52.5 -22t17.5 -53t-21 -55t-66 -22q-21 0 -40.5 7.5t-33.5 18.5l20 33q14 -8 25.5 -12.5t28.5 -4.5q40 0 40 37q0 39 -40 39q-12 0 -21 -1.5t-18 -3.5l32 85v0z" />
    <glyph glyph-name="egrave" unicode="&#xe8;" horiz-adv-x="470" 
d="M121 230q1 -54 9 -90.5t23.5 -58.5t40 -31t58.5 -9q42 0 69 12.5t50 30.5l33 -42q-31 -25 -66.5 -38.5t-85.5 -13.5q-43 0 -78.5 13t-61 42t-40 76.5t-14.5 116.5q0 68 13.5 115.5t38 77.5t58 43.5t73.5 13.5q84 0 127.5 -55t43.5 -178v-25h-291zM350 277q0 46 -7 77
t-20.5 50t-34 27t-48.5 8q-25 0 -45.5 -7.5t-36 -26.5t-24.5 -50t-12 -78h228zM132 639l33 55l166 -118l-22 -35z" />
    <glyph glyph-name="eacute" unicode="&#xe9;" horiz-adv-x="470" 
d="M121 230q1 -54 9 -90.5t23.5 -58.5t40 -31t58.5 -9q42 0 69 12.5t50 30.5l33 -42q-31 -25 -66.5 -38.5t-85.5 -13.5q-43 0 -78.5 13t-61 42t-40 76.5t-14.5 116.5q0 68 13.5 115.5t38 77.5t58 43.5t73.5 13.5q84 0 127.5 -55t43.5 -178v-25h-291zM350 277q0 46 -7 77
t-20.5 50t-34 27t-48.5 8q-25 0 -45.5 -7.5t-36 -26.5t-24.5 -50t-12 -78h228zM152 576l166 118l33 -55l-176 -98z" />
    <glyph glyph-name="ecircumflex" unicode="&#xea;" horiz-adv-x="470" 
d="M121 230q1 -54 9 -90.5t23.5 -58.5t40 -31t58.5 -9q42 0 69 12.5t50 30.5l33 -42q-31 -25 -66.5 -38.5t-85.5 -13.5q-43 0 -78.5 13t-61 42t-40 76.5t-14.5 116.5q0 68 13.5 115.5t38 77.5t58 43.5t73.5 13.5q84 0 127.5 -55t43.5 -178v-25h-291zM350 277q0 46 -7 77
t-20.5 50t-34 27t-48.5 8q-25 0 -45.5 -7.5t-36 -26.5t-24.5 -50t-12 -78h228zM109 575l112 117h39l113 -117l-25 -30l-108 87l-106 -87z" />
    <glyph glyph-name="edieresis" unicode="&#xeb;" horiz-adv-x="470" 
d="M121 230q1 -54 9 -90.5t23.5 -58.5t40 -31t58.5 -9q42 0 69 12.5t50 30.5l33 -42q-31 -25 -66.5 -38.5t-85.5 -13.5q-43 0 -78.5 13t-61 42t-40 76.5t-14.5 116.5q0 68 13.5 115.5t38 77.5t58 43.5t73.5 13.5q84 0 127.5 -55t43.5 -178v-25h-291zM350 277q0 46 -7 77
t-20.5 50t-34 27t-48.5 8q-25 0 -45.5 -7.5t-36 -26.5t-24.5 -50t-12 -78h228zM156 552q-19 0 -32 12.5t-13 32.5t12.5 32.5t31.5 12.5t32 -12.5t13 -32.5t-12.5 -32.5t-31.5 -12.5zM327 552q-19 0 -32 12.5t-13 32.5t12.5 32.5t31.5 12.5t32 -12.5t13 -32.5t-12.5 -32.5
t-31.5 -12.5z" />
    <glyph glyph-name="igrave" unicode="&#xec;" horiz-adv-x="271" 
d="M118 431l-68 9v38h128v-478h-60v431zM3 639l33 55l166 -118l-22 -35z" />
    <glyph glyph-name="iacute" unicode="&#xed;" horiz-adv-x="271" 
d="M118 431l-68 9v38h128v-478h-60v431zM75 576l166 118l33 -55l-176 -98z" />
    <glyph glyph-name="icircumflex" unicode="&#xee;" horiz-adv-x="271" 
d="M118 431l-68 9v38h128v-478h-60v431zM1 575l112 117h39l113 -117l-25 -30l-108 87l-106 -87z" />
    <glyph glyph-name="idieresis" unicode="&#xef;" horiz-adv-x="271" 
d="M118 431l-68 9v38h128v-478h-60v431zM49 552q-19 0 -32 12.5t-13 32.5t12.5 32.5t31.5 12.5t32 -12.5t13 -32.5t-12.5 -32.5t-31.5 -12.5zM220 552q-19 0 -32 12.5t-13 32.5t12.5 32.5t31.5 12.5t32 -12.5t13 -32.5t-12.5 -32.5t-31.5 -12.5z" />
    <glyph glyph-name="eth" unicode="&#xf0;" horiz-adv-x="496" 
d="M154 533l-22 39l98 53q-22 17 -46 32.5t-51 31.5l21 38q33 -17 64 -35.5t59 -41.5l99 54l22 -39l-85 -46q57 -56 91 -141t34 -215q0 -76 -13.5 -128t-38.5 -84.5t-60 -46.5t-77 -14t-77 14t-60.5 44t-39.5 77t-14 114q0 66 14 112.5t38 75.5t57 42.5t72 13.5
q80 0 123 -61q-15 57 -39 98t-57 74zM249 38q31 0 55 10t40 33.5t24 61.5t8 94q0 54 -8.5 92t-24.5 61.5t-40 34t-55 10.5q-32 0 -56 -9.5t-40 -32t-23.5 -60t-7.5 -93.5q0 -57 8 -95.5t24.5 -62t40 -34t55.5 -10.5z" />
    <glyph glyph-name="ntilde" unicode="&#xf1;" horiz-adv-x="504" 
d="M89 478h42l14 -69q35 35 73 57t83 22q51 0 84.5 -30t33.5 -93v-365h-60v349q0 48 -17.5 67t-54.5 19q-36 0 -71 -20t-67 -49v-366h-60v478zM111 578q32 73 87 73q16 0 30.5 -6t27.5 -12.5t25.5 -12.5t26.5 -6q18 0 27.5 11.5t20.5 28.5l35 -22q-32 -72 -86 -72
q-17 0 -31.5 5.5t-27.5 12.5t-26 12.5t-26 5.5q-18 0 -27.5 -11.5t-20.5 -28.5z" />
    <glyph glyph-name="ograve" unicode="&#xf2;" horiz-adv-x="498" 
d="M249 -10q-42 0 -77 14t-60.5 44t-39.5 77t-14 113q0 67 14 114.5t39 77.5t59.5 44t76.5 14q41 0 76.5 -14t61 -44t40 -77t14.5 -114q0 -66 -14 -113.5t-39 -77.5t-60 -44t-77 -14zM249 38q31 0 55 10t40 33t24 61.5t8 94.5q0 57 -8.5 95.5t-24.5 62.5t-40 34.5t-55 10.5
t-55 -10t-40 -33.5t-24 -61.5t-8 -95t8.5 -95.5t24.5 -62t40 -34t55 -10.5zM126 639l33 55l166 -118l-22 -35z" />
    <glyph glyph-name="oacute" unicode="&#xf3;" horiz-adv-x="498" 
d="M249 -10q-42 0 -77 14t-60.5 44t-39.5 77t-14 113q0 67 14 114.5t39 77.5t59.5 44t76.5 14q41 0 76.5 -14t61 -44t40 -77t14.5 -114q0 -66 -14 -113.5t-39 -77.5t-60 -44t-77 -14zM249 38q31 0 55 10t40 33t24 61.5t8 94.5q0 57 -8.5 95.5t-24.5 62.5t-40 34.5t-55 10.5
t-55 -10t-40 -33.5t-24 -61.5t-8 -95t8.5 -95.5t24.5 -62t40 -34t55 -10.5zM170 576l166 118l33 -55l-176 -98z" />
    <glyph glyph-name="ocircumflex" unicode="&#xf4;" horiz-adv-x="498" 
d="M249 -10q-42 0 -77 14t-60.5 44t-39.5 77t-14 113q0 67 14 114.5t39 77.5t59.5 44t76.5 14q41 0 76.5 -14t61 -44t40 -77t14.5 -114q0 -66 -14 -113.5t-39 -77.5t-60 -44t-77 -14zM249 38q31 0 55 10t40 33t24 61.5t8 94.5q0 57 -8.5 95.5t-24.5 62.5t-40 34.5t-55 10.5
t-55 -10t-40 -33.5t-24 -61.5t-8 -95t8.5 -95.5t24.5 -62t40 -34t55 -10.5zM117 575l112 117h39l113 -117l-25 -30l-108 87l-106 -87z" />
    <glyph glyph-name="otilde" unicode="&#xf5;" horiz-adv-x="498" 
d="M249 -10q-42 0 -77 14t-60.5 44t-39.5 77t-14 113q0 67 14 114.5t39 77.5t59.5 44t76.5 14q41 0 76.5 -14t61 -44t40 -77t14.5 -114q0 -66 -14 -113.5t-39 -77.5t-60 -44t-77 -14zM249 38q31 0 55 10t40 33t24 61.5t8 94.5q0 57 -8.5 95.5t-24.5 62.5t-40 34.5t-55 10.5
t-55 -10t-40 -33.5t-24 -61.5t-8 -95t8.5 -95.5t24.5 -62t40 -34t55 -10.5zM109 578q32 73 87 73q16 0 30.5 -6t27.5 -12.5t25.5 -12.5t26.5 -6q18 0 27.5 11.5t20.5 28.5l35 -22q-32 -72 -86 -72q-17 0 -31.5 5.5t-27.5 12.5t-26 12.5t-26 5.5q-18 0 -27.5 -11.5
t-20.5 -28.5z" />
    <glyph glyph-name="odieresis" unicode="&#xf6;" horiz-adv-x="498" 
d="M249 -10q-42 0 -77 14t-60.5 44t-39.5 77t-14 113q0 67 14 114.5t39 77.5t59.5 44t76.5 14q41 0 76.5 -14t61 -44t40 -77t14.5 -114q0 -66 -14 -113.5t-39 -77.5t-60 -44t-77 -14zM249 38q31 0 55 10t40 33t24 61.5t8 94.5q0 57 -8.5 95.5t-24.5 62.5t-40 34.5t-55 10.5
t-55 -10t-40 -33.5t-24 -61.5t-8 -95t8.5 -95.5t24.5 -62t40 -34t55 -10.5zM163 552q-19 0 -32 12.5t-13 32.5t12.5 32.5t31.5 12.5t32 -12.5t13 -32.5t-12.5 -32.5t-31.5 -12.5zM334 552q-19 0 -32 12.5t-13 32.5t12.5 32.5t31.5 12.5t32 -12.5t13 -32.5t-12.5 -32.5
t-31.5 -12.5z" />
    <glyph glyph-name="divide" unicode="&#xf7;" horiz-adv-x="525" 
d="M73 313h378v-51h-378v51zM262 400q-20 0 -35 14.5t-15 36.5t15 36.5t35 14.5q22 0 36.5 -14.5t14.5 -36.5t-14.5 -36.5t-36.5 -14.5zM262 73q-20 0 -35 15t-15 36q0 22 15 36.5t35 14.5q22 0 36.5 -14.5t14.5 -36.5q0 -21 -14.5 -36t-36.5 -15z" />
    <glyph glyph-name="oslash" unicode="&#xf8;" horiz-adv-x="498" 
d="M386 426q24 -31 37.5 -77t13.5 -110q0 -66 -14 -113.5t-39 -77.5t-60 -44t-77 -14q-30 0 -57 7t-50 23q-3 -7 -7 -13q-3 -6 -7 -12.5t-9 -14.5q-11 -18 -24 -39l-36 23l51 85q-25 30 -38.5 76.5t-13.5 112.5q0 67 14 114.5t39 77.5t59.5 44t76.5 14q64 0 109 -32l46 76
l36 -23zM327 412q-15 15 -35 21.5t-46 6.5q-31 0 -55 -10t-40 -33.5t-24 -61.5t-8 -95q0 -47 5 -80.5t16 -57.5zM167 64q15 -14 35 -20t45 -6q31 0 55 10t40 33t24 61.5t8 94.5q0 45 -5 78.5t-15 57.5z" />
    <glyph glyph-name="ugrave" unicode="&#xf9;" horiz-adv-x="506" 
d="M206 -10q-52 0 -86.5 31t-34.5 95v362h59v-346q0 -49 19 -69t55 -20t70.5 18.5t67.5 45.5v371h60v-478h-43l-14 64q-34 -32 -71 -53t-82 -21zM129 639l33 55l166 -118l-22 -35z" />
    <glyph glyph-name="uacute" unicode="&#xfa;" horiz-adv-x="506" 
d="M206 -10q-52 0 -86.5 31t-34.5 95v362h59v-346q0 -49 19 -69t55 -20t70.5 18.5t67.5 45.5v371h60v-478h-43l-14 64q-34 -32 -71 -53t-82 -21zM176 576l166 118l33 -55l-176 -98z" />
    <glyph glyph-name="ucircumflex" unicode="&#xfb;" horiz-adv-x="506" 
d="M206 -10q-52 0 -86.5 31t-34.5 95v362h59v-346q0 -49 19 -69t55 -20t70.5 18.5t67.5 45.5v371h60v-478h-43l-14 64q-34 -32 -71 -53t-82 -21zM121 575l112 117h39l113 -117l-25 -30l-108 87l-106 -87z" />
    <glyph glyph-name="udieresis" unicode="&#xfc;" horiz-adv-x="506" 
d="M206 -10q-52 0 -86.5 31t-34.5 95v362h59v-346q0 -49 19 -69t55 -20t70.5 18.5t67.5 45.5v371h60v-478h-43l-14 64q-34 -32 -71 -53t-82 -21zM167 552q-19 0 -32 12.5t-13 32.5t12.5 32.5t31.5 12.5t32 -12.5t13 -32.5t-12.5 -32.5t-31.5 -12.5zM338 552q-19 0 -32 12.5
t-13 32.5t12.5 32.5t31.5 12.5t32 -12.5t13 -32.5t-12.5 -32.5t-31.5 -12.5z" />
    <glyph glyph-name="yacute" unicode="&#xfd;" horiz-adv-x="453" 
d="M63 -161q32 10 54.5 22t39 30t29 44.5t23.5 64.5h-21l-151 478h64l93 -306q11 -38 19 -71t13 -59h1q5 26 14 58t21 72l92 306h62l-158 -499q-16 -50 -32.5 -81.5t-37 -52t-47.5 -32t-63 -21.5zM160 576l166 118l33 -55l-176 -98z" />
    <glyph glyph-name="thorn" unicode="&#xfe;" horiz-adv-x="510" 
d="M89 715h60v-297q25 26 60.5 48t78.5 22q36 0 65.5 -13.5t51 -43t33.5 -77t12 -115.5q0 -130 -42.5 -189.5t-123.5 -59.5q-45 0 -78.5 19.5t-56.5 43.5v-257h-60v919zM273 42q28 0 49.5 9t35.5 31.5t21.5 59t7.5 92.5q0 60 -7 99t-20.5 62t-33.5 32t-47 9q-41 0 -72.5 -21
t-57.5 -45v-269q26 -26 57 -42.5t67 -16.5z" />
    <glyph glyph-name="ydieresis" unicode="&#xff;" horiz-adv-x="453" 
d="M63 -161q32 10 54.5 22t39 30t29 44.5t23.5 64.5h-21l-151 478h64l93 -306q11 -38 19 -71t13 -59h1q5 26 14 58t21 72l92 306h62l-158 -499q-16 -50 -32.5 -81.5t-37 -52t-47.5 -32t-63 -21.5zM143 552q-19 0 -32 12.5t-13 32.5t12.5 32.5t31.5 12.5t32 -12.5t13 -32.5
t-12.5 -32.5t-31.5 -12.5zM314 552q-19 0 -32 12.5t-13 32.5t12.5 32.5t31.5 12.5t32 -12.5t13 -32.5t-12.5 -32.5t-31.5 -12.5z" />
    <glyph glyph-name="dotlessi" unicode="&#x131;" horiz-adv-x="271" 
d="M118 431l-68 9v38h128v-478h-60v431z" />
    <glyph glyph-name="Lslash" unicode="&#x141;" horiz-adv-x="466" 
d="M161 54h255v-54h-318v279l-75 -26v55q20 7 37 13q7 2 14 4.5t12 4.5l12 4v353h63v-330l156 55v-56l-156 -55v-247z" />
    <glyph glyph-name="lslash" unicode="&#x142;" horiz-adv-x="261" 
d="M23 286v55l72 36v338h60v-307l85 43v-55l-85 -43v-273q0 -23 8.5 -31t25.5 -8q11 0 15 1t6 2l10 -43q-10 -4 -22 -6.5t-25 -2.5q-35 0 -56.5 20.5t-21.5 73.5v236z" />
    <glyph glyph-name="OE" unicode="&#x152;" horiz-adv-x="837" 
d="M339 0q-68 0 -118.5 19t-84.5 61t-51 109.5t-17 163.5q0 93 17.5 157t51.5 103.5t84 56.5t115 17h435v-54h-276v-245h224v-54h-224v-280h288v-54h-444zM431 54v579h-98q-56 0 -94 -15.5t-61 -49.5t-33 -88t-10 -130q0 -80 9.5 -136t32.5 -91.5t60.5 -52t94.5 -16.5h99z
" />
    <glyph glyph-name="oe" unicode="&#x153;" horiz-adv-x="786" 
d="M406 97q-21 -56 -61.5 -81.5t-95.5 -25.5q-42 0 -77 14t-60.5 44t-39.5 77t-14 113q0 67 14 114.5t39 77.5t59.5 44t76.5 14q55 0 96 -25.5t63 -83.5q21 59 60 84t92 25q84 0 127.5 -55t43.5 -178v-25h-291q1 -54 9 -91t23.5 -59t40 -31.5t58.5 -9.5q42 0 69.5 12
t50.5 31l32 -40q-31 -25 -66.5 -38.5t-85.5 -13.5q-58 0 -99.5 24.5t-63.5 82.5zM249 38q31 0 55 10t40 33t24 61.5t8 94.5q0 57 -8.5 95.5t-24.5 62.5t-40 34.5t-55 10.5t-55 -10t-40 -33.5t-24 -61.5t-8 -95t8.5 -95.5t24.5 -62t40 -34t55 -10.5zM667 277q0 46 -7 77
t-20.5 50t-34 27t-48.5 8q-25 0 -45.5 -7.5t-36 -26.5t-24.5 -50t-12 -78h228z" />
    <glyph glyph-name="Scaron" unicode="&#x160;" horiz-adv-x="513" 
d="M242 -10q-65 0 -117.5 22.5t-87.5 57.5l32 45q35 -33 75 -52t94 -19q76 0 109 34.5t33 96.5q0 35 -9 58.5t-27 41t-44.5 31t-60.5 27.5q-38 16 -68.5 32.5t-51.5 38.5t-32.5 52t-11.5 72q0 82 50 125t131 43q56 0 92.5 -12t67.5 -34l-27 -49q-29 20 -59.5 31t-70.5 11
q-53 0 -87.5 -27t-34.5 -86q0 -30 7.5 -50.5t22.5 -35.5t38.5 -27.5t56.5 -25.5q42 -17 75.5 -35t57.5 -42t37 -56.5t13 -80.5q0 -38 -11 -72t-35 -59.5t-63 -40.5t-94 -15zM117 860l25 30l107 -88l107 88l25 -30l-113 -118h-38z" />
    <glyph glyph-name="scaron" unicode="&#x161;" horiz-adv-x="409" 
d="M193 -10q-48 0 -88 15.5t-66 36.5l26 43q28 -20 59 -32.5t70 -12.5q54 0 77 22.5t23 61.5q0 22 -5.5 36.5t-18 26t-33 20t-51.5 18.5q-27 8 -49.5 19t-39 27.5t-26 39.5t-9.5 55q0 25 8.5 47.5t26 39t44 26t62.5 9.5q44 0 74.5 -9.5t55.5 -23.5l-22 -47q-26 14 -50 21.5
t-57 7.5q-41 0 -63 -17t-22 -53q0 -20 5 -33t15.5 -22.5t28 -17t42.5 -15.5q30 -10 56 -21t45 -27.5t30 -41.5t11 -62q0 -70 -42 -103.5t-117 -33.5zM71 666l25 30l107 -88l107 88l25 -30l-113 -118h-38z" />
    <glyph glyph-name="Ydieresis" unicode="&#x178;" horiz-adv-x="537" 
d="M234 271l-198 416h72l123 -268q14 -30 22 -51.5t15 -43.5q8 22 15 43t21 52l123 268h67l-196 -418v-269h-64v271zM182 746q-19 0 -32 12.5t-13 32.5t12.5 32.5t31.5 12.5t32 -12.5t13 -32.5t-12.5 -32.5t-31.5 -12.5zM353 746q-19 0 -32 12.5t-13 32.5t12.5 32.5
t31.5 12.5t32 -12.5t13 -32.5t-12.5 -32.5t-31.5 -12.5z" />
    <glyph glyph-name="Zcaron" unicode="&#x17d;" horiz-adv-x="478" 
d="M45 49l313 584h-296v54h367v-52l-312 -581h311v-54h-383v49zM116 860l25 30l107 -88l107 88l25 -30l-113 -118h-38z" />
    <glyph glyph-name="zcaron" unicode="&#x17e;" horiz-adv-x="421" 
d="M53 55l249 374h-228v49h290v-55l-248 -374h256v-49h-319v55zM87 666l25 30l107 -88l107 88l25 -30l-113 -118h-38z" />
    <glyph glyph-name="longs" unicode="&#x17f;" horiz-adv-x="287" 
d="M90 596q0 67 33 96.5t80 29.5q29 0 51 -5.5t43 -19.5l-23 -44q-16 8 -31 13t-34 5q-29 0 -44 -18t-15 -58v-595h-60v596z" />
    <glyph glyph-name="florin" unicode="&#x192;" horiz-adv-x="385" 
d="M62 384v49h82l13 130q8 73 41 103t84 30q55 0 94 -27l-22 -45q-16 9 -31 14.5t-35 5.5q-32 0 -49 -17.5t-22 -63.5l-13 -130h112v-49h-117l-60 -588h-60l60 588h-77z" />
    <glyph glyph-name="circumflex" unicode="&#x2c6;" horiz-adv-x="543" 
d="M140 575l112 117h39l113 -117l-25 -30l-108 87l-106 -87z" />
    <glyph glyph-name="caron" unicode="&#x2c7;" horiz-adv-x="543" 
d="M139 666l25 30l107 -88l107 88l25 -30l-113 -118h-38z" />
    <glyph glyph-name="breve" unicode="&#x2d8;" horiz-adv-x="543" 
d="M270 559q-25 0 -45.5 9t-35.5 23.5t-25.5 33.5t-14.5 39l42 12q11 -29 27 -46t51 -17t51.5 17t27.5 46l42 -12q-5 -20 -15 -39t-25 -33.5t-35.5 -23.5t-44.5 -9z" />
    <glyph glyph-name="dotaccent" unicode="&#x2d9;" horiz-adv-x="543" 
d="M271 565q-18 0 -31 12.5t-13 32.5t12.5 32.5t31.5 12.5t32 -12.5t13 -32.5t-13 -32.5t-32 -12.5z" />
    <glyph glyph-name="ring" unicode="&#x2da;" horiz-adv-x="543" 
d="M271 543q-41 0 -64 28.5t-23 64.5t23 64.5t64 28.5q21 0 37 -8t27.5 -20.5t17.5 -29.5t6 -35t-6 -35t-17.5 -29.5t-27.5 -20.5t-37 -8zM271 580q20 0 32.5 13.5t12.5 42.5t-12.5 42.5t-32.5 13.5t-32 -13.5t-12 -42.5t12 -42.5t32 -13.5z" />
    <glyph glyph-name="ogonek" unicode="&#x2db;" horiz-adv-x="543" 
d="M280 -205q-36 0 -59 20.5t-23 55.5q0 38 21.5 70.5t47.5 58.5l10 10h46l-8 -10q-31 -36 -50.5 -66t-19.5 -60q0 -37 38 -37q17 0 30.5 4.5t27.5 12.5l17 -34q-14 -10 -33 -17.5t-45 -7.5z" />
    <glyph glyph-name="tilde" unicode="&#x2dc;" horiz-adv-x="543" 
d="M132 578q32 73 87 73q16 0 30.5 -6t27.5 -12.5t25.5 -12.5t26.5 -6q18 0 27.5 11.5t20.5 28.5l35 -22q-32 -72 -86 -72q-17 0 -31.5 5.5t-27.5 12.5t-26 12.5t-26 5.5q-18 0 -27.5 -11.5t-20.5 -28.5z" />
    <glyph glyph-name="hungarumlaut" unicode="&#x2dd;" horiz-adv-x="493" 
d="M140 549l97 178l55 -33l-115 -166zM288 549l98 178l54 -33l-115 -166z" />
    <glyph glyph-name="Delta" unicode="&#x394;" horiz-adv-x="555" 
d="M245 687h69l210 -687h-494zM441 54l-124 416q-17 56 -24.5 91.5t-12.5 64.5h-1q-5 -29 -14 -65t-26 -91l-128 -416h330z" />
    <glyph glyph-name="Omega" unicode="&#x3a9;" horiz-adv-x="630" 
d="M51 54h161q-74 26 -107 99.5t-33 205.5q0 166 61.5 251.5t180.5 85.5q120 0 181 -84t61 -252q0 -132 -32 -206t-105 -100h160v-54h-222v80q34 7 59 24.5t41 50t24 82t8 121.5q0 147 -41 217t-133 70q-93 0 -134 -69t-41 -214q0 -72 8 -122.5t24 -83.5t41 -51t59 -25v-80
h-221v54z" />
    <glyph glyph-name="mu" unicode="&#x3bc;" horiz-adv-x="508" 
d="M147 -204h-60v682h60v-346q0 -49 18.5 -69t55.5 -20q36 0 70.5 18.5t67.5 45.5v371h59v-478h-42l-14 64q-34 -32 -70.5 -53t-76.5 -21q-21 0 -39 6.5t-29 20.5v-221z" />
    <glyph glyph-name="pi" unicode="&#x3c0;" horiz-adv-x="522" 
d="M40 429v49h439v-49h-77v-349q0 -23 8.5 -31t25.5 -8q11 0 15 1t6 2l10 -43q-10 -4 -21.5 -6.5t-25.5 -2.5q-35 0 -56.5 20.5t-21.5 73.5v343h-167v-429h-59v429h-76z" />
    <glyph glyph-name="uni2000" unicode="&#x2000;" horiz-adv-x="500" 
 />
    <glyph glyph-name="uni2001" unicode="&#x2001;" horiz-adv-x="1000" 
 />
    <glyph glyph-name="uni2002" unicode="&#x2002;" horiz-adv-x="500" 
 />
    <glyph glyph-name="uni2003" unicode="&#x2003;" horiz-adv-x="1000" 
 />
    <glyph glyph-name="uni2004" unicode="&#x2004;" horiz-adv-x="333" 
 />
    <glyph glyph-name="uni2005" unicode="&#x2005;" horiz-adv-x="250" 
 />
    <glyph glyph-name="uni2006" unicode="&#x2006;" horiz-adv-x="166" 
 />
    <glyph glyph-name="uni2007" unicode="&#x2007;" horiz-adv-x="598" 
 />
    <glyph glyph-name="uni2008" unicode="&#x2008;" horiz-adv-x="241" 
 />
    <glyph glyph-name="uni2009" unicode="&#x2009;" horiz-adv-x="200" 
 />
    <glyph glyph-name="uni200A" unicode="&#x200a;" horiz-adv-x="83" 
 />
    <glyph glyph-name="uni200B" unicode="&#x200b;" horiz-adv-x="0" 
 />
    <glyph glyph-name="endash" unicode="&#x2013;" horiz-adv-x="505" 
d="M56 305h392v-52h-392v52z" />
    <glyph glyph-name="emdash" unicode="&#x2014;" horiz-adv-x="706" 
d="M56 305h593v-52h-593v52z" />
    <glyph glyph-name="quoteleft" unicode="&#x2018;" horiz-adv-x="224" 
d="M115 490q-24 0 -40 18.5t-16 50.5q0 49 21.5 84t72.5 51l13 -33q-22 -9 -37 -26.5t-15 -43.5q17 -1 33 -14t16 -37q0 -22 -14.5 -36t-33.5 -14z" />
    <glyph glyph-name="quoteright" unicode="&#x2019;" horiz-adv-x="224" 
d="M58 521q21 10 36.5 27t15.5 43q-17 2 -33 15t-16 36t14 36.5t34 13.5q24 0 40 -18t16 -50q0 -50 -21.5 -85t-72.5 -50z" />
    <glyph glyph-name="quotesinglbase" unicode="&#x201a;" horiz-adv-x="224" 
d="M58 -72q21 9 36.5 26t15.5 44q-17 1 -33 14t-16 37q0 22 14 36t34 14q24 0 40 -18.5t16 -50.5q0 -49 -21.5 -84.5t-72.5 -50.5z" />
    <glyph glyph-name="quotedblleft" unicode="&#x201c;" horiz-adv-x="390" 
d="M115 490q-24 0 -40 18.5t-16 50.5q0 49 21.5 84t72.5 51l13 -33q-22 -9 -37 -26.5t-15 -43.5q17 -1 33 -14t16 -37q0 -22 -14.5 -36t-33.5 -14zM280 490q-24 0 -39.5 18.5t-15.5 50.5q0 49 21.5 84t72.5 51l12 -33q-21 -9 -36.5 -26.5t-15.5 -43.5q18 -1 34 -14t16 -37
q0 -22 -14.5 -36t-34.5 -14z" />
    <glyph glyph-name="quotedblright" unicode="&#x201d;" horiz-adv-x="390" 
d="M58 521q21 10 36.5 27t15.5 43q-17 2 -33 15t-16 36t14 36.5t34 13.5q24 0 40 -18t16 -50q0 -50 -21.5 -85t-72.5 -50zM224 521q20 10 36 27t16 43q-18 2 -33.5 15t-15.5 36t14 36.5t34 13.5q24 0 39.5 -18t15.5 -50q0 -50 -21.5 -85t-72.5 -50z" />
    <glyph glyph-name="quotedblbase" unicode="&#x201e;" horiz-adv-x="390" 
d="M58 -72q21 9 36.5 26t15.5 44q-17 1 -33 14t-16 37q0 22 14 36t34 14q24 0 40 -18.5t16 -50.5q0 -49 -21.5 -84.5t-72.5 -50.5zM224 -72q20 9 36 26t16 44q-18 1 -33.5 14t-15.5 37q0 22 14 36t34 14q24 0 39.5 -18.5t15.5 -50.5q0 -49 -21.5 -84.5t-72.5 -50.5z" />
    <glyph glyph-name="dagger" unicode="&#x2020;" horiz-adv-x="358" 
d="M150 507h-99v51h99v129h57v-129h100v-51h-100v-276h-57v276z" />
    <glyph glyph-name="daggerdbl" unicode="&#x2021;" horiz-adv-x="358" 
d="M150 360h-99v51h99v96h-99v51h99v129h57v-129h100v-51h-100v-96h100v-51h-100v-129h-57v129z" />
    <glyph glyph-name="bullet" unicode="&#x2022;" horiz-adv-x="296" 
d="M148 233q-40 0 -64 28t-24 66q0 39 24 67t64 28q39 0 63 -28t24 -67q0 -38 -24 -66t-63 -28z" />
    <glyph glyph-name="uni2023" unicode="&#x2023;" horiz-adv-x="562" 
d="M75 562l434 -228l-434 -230v458z" />
    <glyph glyph-name="ellipsis" unicode="&#x2026;" horiz-adv-x="643" 
d="M522 -7q-22 0 -37 14.5t-15 37.5t15 38t37 15t37 -15t15 -38t-15 -37.5t-37 -14.5zM121 -7q-22 0 -37 14.5t-15 37.5t15 38t37 15t37 -15t15 -38t-15 -37.5t-37 -14.5zM321 -7q-21 0 -36.5 14.5t-15.5 37.5t15.5 38t36.5 15q22 0 37 -15t15 -38t-15 -37.5t-37 -14.5z" />
    <glyph glyph-name="perthousand" unicode="&#x2030;" horiz-adv-x="1168" 
d="M966 -9q-69 0 -109.5 46.5t-40.5 126.5q0 79 40 125t107 46t108.5 -46.5t41.5 -127.5q0 -78 -39.5 -124t-107.5 -46zM608 -9q-69 0 -109.5 46.5t-40.5 126.5q0 79 40 125t107 46t108.5 -46.5t41.5 -127.5q0 -78 -39.5 -124t-107.5 -46zM203 300q-69 0 -109 46.5
t-40 126.5q0 79 40 125t107 46q66 0 107.5 -46t41.5 -128q0 -78 -39 -124t-108 -46zM965 37q89 0 89 121q0 69 -22.5 100t-67.5 31q-90 0 -90 -122q0 -69 23 -99.5t68 -30.5zM202 346q90 0 90 121q0 69 -23 100t-68 31q-89 0 -89 -122q0 -69 22.5 -99.5t67.5 -30.5zM607 37
q89 0 89 121q0 69 -22.5 100t-67.5 31q-89 0 -89 -122q0 -69 22.5 -99.5t67.5 -30.5zM566 635h57l-380 -635h-58z" />
    <glyph glyph-name="guilsinglleft" unicode="&#x2039;" horiz-adv-x="295" 
d="M57 246l132 206l45 -30l-112 -176l112 -175l-45 -30z" />
    <glyph glyph-name="guilsinglright" unicode="&#x203a;" horiz-adv-x="295" 
d="M60 72l112 175l-111 175l44 30l133 -205l-133 -206z" />
    <glyph glyph-name="fraction" unicode="&#x2044;" horiz-adv-x="283" 
d="M303 635h57l-380 -635h-58z" />
    <glyph glyph-name="uni2070" unicode="&#x2070;" horiz-adv-x="369" 
d="M185 215q-82 0 -120 54.5t-38 158.5q0 105 39 161.5t119 56.5q79 0 118 -56.5t39 -160.5q0 -106 -37 -160t-120 -54zM185 256q56 0 78.5 43.5t22.5 128.5q0 87 -23.5 131.5t-77.5 44.5q-55 0 -78.5 -44.5t-23.5 -130.5t23 -129.5t79 -43.5z" />
    <glyph glyph-name="uni2074" unicode="&#x2074;" horiz-adv-x="369" 
d="M26 285v48l136 305h56l-139 -309h168v182l55 10v-192h50v-44h-50v-102h-55v102h-221z" />
    <glyph glyph-name="uni2075" unicode="&#x2075;" horiz-adv-x="350" 
d="M143 177q-37 0 -66 8t-53 19l14 40q21 -10 45.5 -16.5t53.5 -6.5q54 0 78.5 29t24.5 78q0 53 -29 77t-78 24q-20 0 -41 -3t-39 -9l20 224h212v-45h-169l-13 -129q8 2 21 3.5t24 1.5q68 0 108 -36.5t40 -105.5q0 -70 -38.5 -111.5t-114.5 -41.5z" />
    <glyph glyph-name="uni2076" unicode="&#x2076;" horiz-adv-x="359" 
d="M92 459q17 14 43 27.5t61 13.5q25 0 48.5 -8.5t41.5 -25.5t29 -43t11 -61q0 -75 -38.5 -111t-101.5 -36q-68 0 -111 47t-43 143q0 64 15.5 112t45.5 81t73 53.5t98 30.5l12 -41q-41 -9 -73 -23t-55 -35t-37 -51t-19 -73zM89 420q-1 -5 -1 -11v-13q0 -74 26.5 -107
t71.5 -33q86 0 86 103q0 51 -24 75.5t-66 24.5q-30 0 -52.5 -12t-40.5 -27z" />
    <glyph glyph-name="uni2077" unicode="&#x2077;" horiz-adv-x="332" 
d="M88 185q6 73 21.5 134t37 112t48 92t54.5 73h-215v45h264v-50q-27 -32 -53 -73.5t-47 -93t-35.5 -113t-19.5 -133.5z" />
    <glyph glyph-name="uni2078" unicode="&#x2078;" horiz-adv-x="368" 
d="M132 456q-35 16 -57.5 43t-22.5 67q0 23 8 44t24.5 36.5t40.5 24.5t57 9q63 0 97 -31.5t34 -79.5q0 -39 -24 -66t-59 -43q22 -11 41 -22t32 -25t20.5 -32t7.5 -43q0 -61 -41 -92t-107 -31q-67 0 -107.5 31t-40.5 91q0 47 27.5 74.5t69.5 44.5zM174 438q-42 -18 -64 -40
t-22 -60q0 -42 26 -63t71 -21q42 0 67 21.5t25 59.5q0 31 -16 52t-58 38zM188 477q42 18 57 40t15 51q0 35 -20.5 53t-57.5 18q-35 0 -56 -18t-21 -52q0 -29 14 -49t51 -36z" />
    <glyph glyph-name="uni2079" unicode="&#x2079;" horiz-adv-x="359" 
d="M266 397q-17 -14 -42 -26.5t-57 -12.5q-26 0 -50 8.5t-42.5 26t-30 43.5t-11.5 62q0 75 40 112t101 37q34 0 62 -11.5t48 -35.5t31.5 -60t11.5 -85q0 -64 -16.5 -111.5t-47.5 -80.5t-75.5 -53.5t-99.5 -30.5l-11 41q42 10 74.5 24t56 34.5t38 49t20.5 69.5zM270 436
q1 7 1 13.5v13.5q0 75 -26 109t-71 34q-41 0 -64.5 -26t-23.5 -77q0 -54 26.5 -80t68.5 -26q26 0 49 11.5t40 27.5z" />
    <glyph glyph-name="uni207A" unicode="&#x207a;" horiz-adv-x="342" 
d="M145 387h-103v47h103v115h52v-115h102v-47h-102v-113h-52v113z" />
    <glyph glyph-name="uni207B" unicode="&#x207b;" horiz-adv-x="342" 
d="M42 434h257v-47h-257v47z" />
    <glyph glyph-name="uni207C" unicode="&#x207c;" horiz-adv-x="348" 
d="M43 493h261v-47h-261v47zM43 376h261v-47h-261v47z" />
    <glyph glyph-name="uni207D" unicode="&#x207d;" horiz-adv-x="212" 
d="M176 118q-35 16 -61.5 41.5t-43.5 62t-25.5 86.5t-8.5 115t8 115t25.5 87t43.5 62t62 42l15 -36q-26 -16 -44.5 -37.5t-30.5 -52.5t-17.5 -75t-5.5 -105q0 -62 6 -105.5t18 -74.5t30.5 -52t43.5 -37l-15 -36v0z" />
    <glyph glyph-name="uni207E" unicode="&#x207e;" horiz-adv-x="212" 
d="M21 154q25 16 43.5 37t30.5 52.5t18 75t6 104.5t-6 105t-18 75.5t-30.5 52.5t-43.5 37l15 36q70 -32 104 -104t34 -203q0 -65 -8 -114.5t-25 -86.5t-43 -62t-62 -41z" />
    <glyph glyph-name="uni2080" unicode="&#x2080;" horiz-adv-x="369" 
d="M185 -155q-82 0 -120 54.5t-38 158.5q0 105 39 161.5t119 56.5q79 0 118 -56.5t39 -160.5q0 -106 -37 -160t-120 -54zM185 -114q56 0 78.5 43.5t22.5 128.5q0 87 -23.5 131.5t-77.5 44.5q-55 0 -78.5 -44.5t-23.5 -130.5t23 -129.5t79 -43.5z" />
    <glyph glyph-name="uni2081" unicode="&#x2081;" horiz-adv-x="317" 
d="M58 -109h85v316l-79 -43l-17 29l110 81h41v-383h80v-41h-220v41z" />
    <glyph glyph-name="uni2082" unicode="&#x2082;" horiz-adv-x="354" 
d="M55 -104q61 51 98.5 88t58.5 65.5t28 51.5t7 47q0 42 -20.5 62t-57.5 20q-29 0 -49.5 -7.5t-45.5 -21.5l-19 39q26 16 53.5 25.5t64.5 9.5q57 0 93 -31.5t36 -93.5q0 -28 -8.5 -55.5t-29.5 -57.5t-57 -65t-90 -79h193v-43h-255v46z" />
    <glyph glyph-name="uni2083" unicode="&#x2083;" horiz-adv-x="362" 
d="M152 -193q-38 0 -69 8t-54 19l13 39q22 -9 47.5 -15.5t57.5 -6.5q103 0 103 93q0 26 -7.5 43.5t-21 28t-31.5 15t-40 4.5h-37v42h34q45 0 66.5 20.5t21.5 57.5q0 36 -19.5 56t-61.5 20q-28 0 -51 -8t-44 -19l-17 38q26 15 54 24t66 9q61 0 94 -32t33 -81q0 -42 -19.5 -67
t-51.5 -36q39 -10 63.5 -38t24.5 -80q0 -62 -39.5 -98t-114.5 -36z" />
    <glyph glyph-name="uni2084" unicode="&#x2084;" horiz-adv-x="369" 
d="M26 -85v48l136 305h56l-139 -309h168v182l55 10v-192h50v-44h-50v-102h-55v102h-221z" />
    <glyph glyph-name="uni2085" unicode="&#x2085;" horiz-adv-x="350" 
d="M143 -193q-37 0 -66 8t-53 19l14 40q21 -10 45.5 -16.5t53.5 -6.5q54 0 78.5 29t24.5 78q0 53 -29 77t-78 24q-20 0 -41 -3t-39 -9l20 224h212v-45h-169l-13 -129q8 2 21 3.5t24 1.5q68 0 108 -36.5t40 -105.5q0 -70 -38.5 -111.5t-114.5 -41.5z" />
    <glyph glyph-name="uni2086" unicode="&#x2086;" horiz-adv-x="359" 
d="M92 89q17 14 43 27.5t61 13.5q25 0 48.5 -8.5t41.5 -25.5t29 -43t11 -61q0 -75 -38.5 -111t-101.5 -36q-68 0 -111 47t-43 143q0 64 15.5 112t45.5 81t73 53.5t98 30.5l12 -41q-41 -9 -73 -23t-55 -35t-37 -51t-19 -73zM89 50q-1 -5 -1 -11v-13q0 -74 26.5 -107t71.5 -33
q86 0 86 103q0 51 -24 75.5t-66 24.5q-30 0 -52.5 -12t-40.5 -27z" />
    <glyph glyph-name="uni2087" unicode="&#x2087;" horiz-adv-x="332" 
d="M88 -185q6 73 21.5 134t37 112t48 92t54.5 73h-215v45h264v-50q-27 -32 -53 -73.5t-47 -93t-35.5 -113t-19.5 -133.5z" />
    <glyph glyph-name="uni2088" unicode="&#x2088;" horiz-adv-x="368" 
d="M132 86q-35 16 -57.5 43t-22.5 67q0 23 8 44t24.5 36.5t40.5 24.5t57 9q63 0 97 -31.5t34 -79.5q0 -39 -24 -66t-59 -43q22 -11 41 -22t32 -25t20.5 -32t7.5 -43q0 -61 -41 -92t-107 -31q-67 0 -107.5 31t-40.5 91q0 47 27.5 74.5t69.5 44.5zM174 68q-42 -18 -64 -40
t-22 -60q0 -42 26 -63t71 -21q42 0 67 21.5t25 59.5q0 31 -16 52t-58 38zM188 107q42 18 57 40t15 51q0 35 -20.5 53t-57.5 18q-35 0 -56 -18t-21 -52q0 -29 14 -49t51 -36z" />
    <glyph glyph-name="uni2089" unicode="&#x2089;" horiz-adv-x="359" 
d="M266 27q-17 -14 -42 -26.5t-57 -12.5q-26 0 -50 8.5t-42.5 26t-30 43.5t-11.5 62q0 75 40 112t101 37q34 0 62 -11.5t48 -35.5t31.5 -60t11.5 -85q0 -64 -16.5 -111.5t-47.5 -80.5t-75.5 -53.5t-99.5 -30.5l-11 41q42 10 74.5 24t56 34.5t38 49t20.5 69.5zM270 66
q1 7 1 13.5v13.5q0 75 -26 109t-71 34q-41 0 -64.5 -26t-23.5 -77q0 -54 26.5 -80t68.5 -26q26 0 49 11.5t40 27.5z" />
    <glyph glyph-name="uni208A" unicode="&#x208a;" horiz-adv-x="342" 
d="M145 17h-103v47h103v115h52v-115h102v-47h-102v-113h-52v113z" />
    <glyph glyph-name="uni208B" unicode="&#x208b;" horiz-adv-x="342" 
d="M42 64h257v-47h-257v47z" />
    <glyph glyph-name="uni208C" unicode="&#x208c;" horiz-adv-x="348" 
d="M43 123h261v-47h-261v47zM43 6h261v-47h-261v47z" />
    <glyph glyph-name="uni208D" unicode="&#x208d;" horiz-adv-x="212" 
d="M176 -252q-35 16 -61.5 41.5t-43.5 62t-25.5 86.5t-8.5 115t8 115t25.5 87t43.5 62t62 42l15 -36q-26 -16 -44.5 -37.5t-30.5 -52.5t-17.5 -75t-5.5 -105q0 -62 6 -105.5t18 -74.5t30.5 -52t43.5 -37l-15 -36v0z" />
    <glyph glyph-name="uni208E" unicode="&#x208e;" horiz-adv-x="212" 
d="M21 -216q25 16 43.5 37t30.5 52.5t18 75t6 104.5t-6 105t-18 75.5t-30.5 52.5t-43.5 37l15 36q70 -32 104 -104t34 -203q0 -65 -8 -114.5t-25 -86.5t-43 -62t-62 -41z" />
    <glyph glyph-name="Euro" unicode="&#x20ac;" horiz-adv-x="578" 
d="M37 367v48h95q16 109 72 169.5t160 60.5q53 0 92 -13.5t68 -36.5l-30 -43q-25 20 -56.5 31t-73.5 11q-79 0 -118.5 -45t-50.5 -134h222v-48h-226q-1 -11 -1 -23.5v-25.5v-22t1 -22h226v-48h-223q11 -93 51 -138.5t126 -45.5q45 0 77.5 13t56.5 33l30 -42
q-31 -25 -71.5 -40.5t-93.5 -15.5q-109 0 -167 61t-73 175h-93v48h89q-1 10 -1 20v21q0 14 0.5 26.5t1.5 25.5h-90z" />
    <glyph glyph-name="trademark" unicode="&#x2122;" horiz-adv-x="735" 
d="M359 687h76l58 -179q9 -28 12.5 -49t4.5 -28h2q1 7 3 26.5t13 50.5l57 179h76v-368h-51v209q0 45 2 76.5t2 38.5h-1q-2 -6 -8.5 -37.5t-20.5 -70.5l-51 -151h-48l-51 149q-13 39 -19.5 70t-8.5 40h-1q0 -9 2 -42t2 -73v-209h-50v368zM147 642h-93v45h238v-45h-93v-323
h-52v323z" />
    <glyph glyph-name="uni2126" unicode="&#x2126;" horiz-adv-x="630" 
d="M51 54h161q-74 26 -107 99.5t-33 205.5q0 166 61.5 251.5t180.5 85.5q120 0 181 -84t61 -252q0 -132 -32 -206t-105 -100h160v-54h-222v80q34 7 59 24.5t41 50t24 82t8 121.5q0 147 -41 217t-133 70q-93 0 -134 -69t-41 -214q0 -72 8 -122.5t24 -83.5t41 -51t59 -25v-80
h-221v54z" />
    <glyph glyph-name="arrowleft" unicode="&#x2190;" horiz-adv-x="730" 
d="M675 366v-52h-518l275 -297l-34 -37l-347 359l347 359l34 -37l-274 -295h517z" />
    <glyph glyph-name="arrowup" unicode="&#x2191;" horiz-adv-x="768" 
d="M61 304l-36 36l359 346l359 -346l-38 -38l-291 273v-575h-58v576z" />
    <glyph glyph-name="arrowright" unicode="&#x2192;" horiz-adv-x="730" 
d="M568 366l-274 295l34 37l347 -359l-347 -359l-34 37l275 297h-518v52h517z" />
    <glyph glyph-name="arrowdown" unicode="&#x2193;" horiz-adv-x="768" 
d="M707 382l36 -36l-359 -346l-359 346l38 38l291 -273v575h58v-576z" />
    <glyph glyph-name="uni2196" unicode="&#x2196;" horiz-adv-x="730" 
d="M164 73h-53l9 522l523 10v-51l-426 -15l402 -401l-39 -39l-400 402z" />
    <glyph glyph-name="uni2197" unicode="&#x2197;" horiz-adv-x="730" 
d="M550 501l-400 -402l-39 39l402 401l-426 15v51l523 -10l9 -522h-53z" />
    <glyph glyph-name="uni2198" unicode="&#x2198;" horiz-adv-x="730" 
d="M566 607h53l-9 -522l-523 -10v51l426 15l-402 401l39 39l400 -402z" />
    <glyph glyph-name="uni2199" unicode="&#x2199;" horiz-adv-x="730" 
d="M180 179l400 402l39 -39l-402 -401l426 -15v-51l-523 10l-9 522h53z" />
    <glyph glyph-name="uni21B0" unicode="&#x21b0;" horiz-adv-x="826" 
d="M161 368h574v-368h-53v316h-522l235 -255l-34 -37l-306 319l306 319l32 -34z" />
    <glyph glyph-name="uni21B1" unicode="&#x21b1;" horiz-adv-x="826" 
d="M437 628l32 34l306 -319l-306 -319l-34 37l235 255h-522v-316h-53v368h574z" />
    <glyph glyph-name="uni21B2" unicode="&#x21b2;" horiz-adv-x="768" 
d="M141 368h497v300h53v-352h-551l235 -255l-34 -37l-306 319l306 319l32 -34z" />
    <glyph glyph-name="uni21B3" unicode="&#x21b3;" horiz-adv-x="768" 
d="M383 628l32 34l306 -319l-306 -319l-34 37l235 255h-551v352h53v-300h497z" />
    <glyph glyph-name="uni21B4" unicode="&#x21b4;" horiz-adv-x="768" 
d="M667 342l36 -36l-319 -306l-319 306l38 38l251 -233v488h-301v52h359v-541z" />
    <glyph glyph-name="carriagereturn" unicode="&#x21b5;" horiz-adv-x="768" 
d="M141 368h497v300h53v-352h-551l235 -255l-34 -37l-306 319l306 319l32 -34z" />
    <glyph glyph-name="uni21E0" unicode="&#x21e0;" horiz-adv-x="778" 
d="M279 546q-23 0 -39.5 16.5t-16.5 39.5t16.5 39.5t39.5 16.5t39.5 -16.5t16.5 -39.5t-16.5 -39.5t-39.5 -16.5zM279 26q-23 0 -39.5 16.5t-16.5 39.5t16.5 39.5t39.5 16.5t39.5 -16.5t16.5 -39.5t-16.5 -39.5t-39.5 -16.5zM189 151q-23 0 -39.5 16.5t-16.5 39.5t16.5 39.5
t39.5 16.5t39.5 -16.5t16.5 -39.5t-16.5 -39.5t-39.5 -16.5zM89 286q-23 0 -39.5 16.5t-16.5 39.5t16.5 39.5t39.5 16.5t39.5 -16.5t16.5 -39.5t-16.5 -39.5t-39.5 -16.5zM239 286q-23 0 -39.5 16.5t-16.5 39.5t16.5 39.5t39.5 16.5t39.5 -16.5t16.5 -39.5t-16.5 -39.5
t-39.5 -16.5zM389 286q-23 0 -39.5 16.5t-16.5 39.5t16.5 39.5t39.5 16.5t39.5 -16.5t16.5 -39.5t-16.5 -39.5t-39.5 -16.5zM539 286q-23 0 -39.5 16.5t-16.5 39.5t16.5 39.5t39.5 16.5t39.5 -16.5t16.5 -39.5t-16.5 -39.5t-39.5 -16.5zM689 286q-23 0 -39.5 16.5
t-16.5 39.5t16.5 39.5t39.5 16.5t39.5 -16.5t16.5 -39.5t-16.5 -39.5t-39.5 -16.5zM189 421q-23 0 -39.5 16.5t-16.5 39.5t16.5 39.5t39.5 16.5t39.5 -16.5t16.5 -39.5t-16.5 -39.5t-39.5 -16.5z" />
    <glyph glyph-name="uni21E1" unicode="&#x21e1;" horiz-adv-x="778" 
d="M333 642q0 23 16.5 39.5t39.5 16.5t39.5 -16.5t16.5 -39.5t-16.5 -39.5t-39.5 -16.5t-39.5 16.5t-16.5 39.5zM333 42q0 23 16.5 39.5t39.5 16.5t39.5 -16.5t16.5 -39.5t-16.5 -39.5t-39.5 -16.5t-39.5 16.5t-16.5 39.5zM333 192q0 23 16.5 39.5t39.5 16.5t39.5 -16.5
t16.5 -39.5t-16.5 -39.5t-39.5 -16.5t-39.5 16.5t-16.5 39.5zM333 342q0 23 16.5 39.5t39.5 16.5t39.5 -16.5t16.5 -39.5t-16.5 -39.5t-39.5 -16.5t-39.5 16.5t-16.5 39.5zM83 442q0 23 16.5 39.5t39.5 16.5t39.5 -16.5t16.5 -39.5t-16.5 -39.5t-39.5 -16.5t-39.5 16.5
t-16.5 39.5zM583 442q0 23 16.5 39.5t39.5 16.5t39.5 -16.5t16.5 -39.5t-16.5 -39.5t-39.5 -16.5t-39.5 16.5t-16.5 39.5zM333 492q0 23 16.5 39.5t39.5 16.5t39.5 -16.5t16.5 -39.5t-16.5 -39.5t-39.5 -16.5t-39.5 16.5t-16.5 39.5zM198 542q0 23 16.5 39.5t39.5 16.5
t39.5 -16.5t16.5 -39.5t-16.5 -39.5t-39.5 -16.5t-39.5 16.5t-16.5 39.5zM468 542q0 23 16.5 39.5t39.5 16.5t39.5 -16.5t16.5 -39.5t-16.5 -39.5t-39.5 -16.5t-39.5 16.5t-16.5 39.5z" />
    <glyph glyph-name="uni21E2" unicode="&#x21e2;" horiz-adv-x="778" 
d="M499 658q23 0 39.5 -16.5t16.5 -39.5t-16.5 -39.5t-39.5 -16.5t-39.5 16.5t-16.5 39.5t16.5 39.5t39.5 16.5zM499 138q23 0 39.5 -16.5t16.5 -39.5t-16.5 -39.5t-39.5 -16.5t-39.5 16.5t-16.5 39.5t16.5 39.5t39.5 16.5zM589 263q23 0 39.5 -16.5t16.5 -39.5t-16.5 -39.5
t-39.5 -16.5t-39.5 16.5t-16.5 39.5t16.5 39.5t39.5 16.5zM89 398q23 0 39.5 -16.5t16.5 -39.5t-16.5 -39.5t-39.5 -16.5t-39.5 16.5t-16.5 39.5t16.5 39.5t39.5 16.5zM239 398q23 0 39.5 -16.5t16.5 -39.5t-16.5 -39.5t-39.5 -16.5t-39.5 16.5t-16.5 39.5t16.5 39.5
t39.5 16.5zM389 398q23 0 39.5 -16.5t16.5 -39.5t-16.5 -39.5t-39.5 -16.5t-39.5 16.5t-16.5 39.5t16.5 39.5t39.5 16.5zM539 398q23 0 39.5 -16.5t16.5 -39.5t-16.5 -39.5t-39.5 -16.5t-39.5 16.5t-16.5 39.5t16.5 39.5t39.5 16.5zM689 398q23 0 39.5 -16.5t16.5 -39.5
t-16.5 -39.5t-39.5 -16.5t-39.5 16.5t-16.5 39.5t16.5 39.5t39.5 16.5zM589 533q23 0 39.5 -16.5t16.5 -39.5t-16.5 -39.5t-39.5 -16.5t-39.5 16.5t-16.5 39.5t16.5 39.5t39.5 16.5z" />
    <glyph glyph-name="uni21E3" unicode="&#x21e3;" horiz-adv-x="778" 
d="M445 642q0 -23 -16.5 -39.5t-39.5 -16.5t-39.5 16.5t-16.5 39.5t16.5 39.5t39.5 16.5t39.5 -16.5t16.5 -39.5zM445 42q0 -23 -16.5 -39.5t-39.5 -16.5t-39.5 16.5t-16.5 39.5t16.5 39.5t39.5 16.5t39.5 -16.5t16.5 -39.5zM310 142q0 -23 -16.5 -39.5t-39.5 -16.5
t-39.5 16.5t-16.5 39.5t16.5 39.5t39.5 16.5t39.5 -16.5t16.5 -39.5zM580 142q0 -23 -16.5 -39.5t-39.5 -16.5t-39.5 16.5t-16.5 39.5t16.5 39.5t39.5 16.5t39.5 -16.5t16.5 -39.5zM445 192q0 -23 -16.5 -39.5t-39.5 -16.5t-39.5 16.5t-16.5 39.5t16.5 39.5t39.5 16.5
t39.5 -16.5t16.5 -39.5zM195 242q0 -23 -16.5 -39.5t-39.5 -16.5t-39.5 16.5t-16.5 39.5t16.5 39.5t39.5 16.5t39.5 -16.5t16.5 -39.5zM695 242q0 -23 -16.5 -39.5t-39.5 -16.5t-39.5 16.5t-16.5 39.5t16.5 39.5t39.5 16.5t39.5 -16.5t16.5 -39.5zM445 342
q0 -23 -16.5 -39.5t-39.5 -16.5t-39.5 16.5t-16.5 39.5t16.5 39.5t39.5 16.5t39.5 -16.5t16.5 -39.5zM445 492q0 -23 -16.5 -39.5t-39.5 -16.5t-39.5 16.5t-16.5 39.5t16.5 39.5t39.5 16.5t39.5 -16.5t16.5 -39.5z" />
    <glyph glyph-name="partialdiff" unicode="&#x2202;" horiz-adv-x="498" 
d="M361 428q-12 55 -32.5 98.5t-50 79t-66 64t-79.5 54.5l22 38q60 -29 111.5 -70t90 -101t60.5 -143.5t22 -197.5q0 -71 -14 -120t-39 -80.5t-60 -45.5t-77 -14t-77 14t-60.5 44t-39.5 77t-14 113q0 67 13.5 114.5t37.5 77.5t57 44t72 14q41 0 72 -16t51 -44zM249 38
q31 0 55 10t40 33t24 61.5t8 94.5q0 57 -8.5 95.5t-24.5 62.5t-40 34.5t-55 10.5q-32 0 -56 -10t-39.5 -33.5t-23.5 -61.5t-8 -95t8.5 -95.5t24.5 -62t40 -34t55 -10.5z" />
    <glyph glyph-name="uni2206" unicode="&#x2206;" horiz-adv-x="555" 
d="M245 687h69l210 -687h-494zM441 54l-124 416q-17 56 -24.5 91.5t-12.5 64.5h-1q-5 -29 -14 -65t-26 -91l-128 -416h330z" />
    <glyph glyph-name="product" unicode="&#x220f;" horiz-adv-x="614" 
d="M131 633h-94v54h539v-54h-94v-845h-63v845h-224v-845h-64v845z" />
    <glyph glyph-name="summation" unicode="&#x2211;" horiz-adv-x="499" 
d="M66 -154l202 396l-202 396v49h370v-54h-294l197 -390l-208 -401h314v-54h-379v58z" />
    <glyph glyph-name="minus" unicode="&#x2212;" horiz-adv-x="524" 
d="M73 313h378v-51h-378v51z" />
    <glyph glyph-name="uni2219" unicode="&#x2219;" horiz-adv-x="242" 
d="M121 286q-22 0 -37 15t-15 37q0 23 15 38t37 15t37 -15t15 -38q0 -22 -15 -37t-37 -15z" />
    <glyph glyph-name="radical" unicode="&#x221a;" horiz-adv-x="529" 
d="M102 299h-60v54h105l49 -126q23 -59 36 -98.5t18 -55.5h1q4 16 14.5 56t27.5 100l138 458h64l-209 -687h-65z" />
    <glyph glyph-name="infinity" unicode="&#x221e;" horiz-adv-x="594" 
d="M165 99q-20 0 -39.5 8.5t-35.5 26.5t-25.5 46t-9.5 67q0 44 10 73.5t26 47t36 25t41 7.5q19 0 37 -8.5t33.5 -23t30 -33.5t28.5 -40q13 21 27.5 40t30.5 33.5t34.5 23t39.5 8.5q20 0 39.5 -8.5t35.5 -26.5t25.5 -46t9.5 -68q0 -44 -10 -73t-26 -46.5t-36 -25t-41 -7.5
q-20 0 -37 8.5t-33 23t-30.5 33.5t-28.5 40q-13 -21 -27.5 -40t-30.5 -33.5t-34.5 -23t-39.5 -8.5zM171 151q28 0 51.5 29.5t46.5 68.5q-24 39 -48.5 69t-51.5 30q-26 0 -41.5 -25.5t-15.5 -75.5q0 -51 15.5 -73.5t43.5 -22.5zM425 151q26 0 41.5 25t15.5 75q0 51 -15.5 74
t-43.5 23q-27 0 -50.5 -30t-47.5 -69q25 -39 49 -68.5t51 -29.5z" />
    <glyph glyph-name="uni2224" unicode="&#x2224;" horiz-adv-x="242" 
d="M121 286q-22 0 -37 15t-15 37q0 23 15 38t37 15t37 -15t15 -38q0 -22 -15 -37t-37 -15z" />
    <glyph glyph-name="logicaland" unicode="&#x2227;" horiz-adv-x="242" 
d="M121 286q-22 0 -37 15t-15 37q0 23 15 38t37 15t37 -15t15 -38q0 -22 -15 -37t-37 -15z" />
    <glyph glyph-name="integral" unicode="&#x222b;" horiz-adv-x="294" 
d="M53 -212q-29 0 -50.5 5.5t-42.5 19.5l23 45q16 -8 30 -13.5t34 -5.5q58 0 58 76v656q0 33 9 57t24 39t35.5 22t43.5 7q29 0 51 -5.5t42 -19.5l-22 -45q-16 9 -30.5 14t-33.5 5q-29 0 -43.5 -18t-14.5 -58v-655q0 -34 -9 -58t-24.5 -39t-36 -22t-43.5 -7z" />
    <glyph glyph-name="approxequal" unicode="&#x2248;" horiz-adv-x="517" 
d="M69 336q21 45 48 67t63 22q22 0 43.5 -7.5t41 -17t38.5 -17t37 -7.5q23 0 38.5 16t29.5 40l39 -23q-40 -89 -110 -89q-23 0 -44 8t-41 17t-39 17t-37 8q-23 0 -38.5 -16t-29.5 -41zM69 181q41 90 111 90q22 0 43.5 -8t41 -17t38.5 -17t37 -8q23 0 38.5 16t29.5 40l39 -22
q-20 -46 -47.5 -67.5t-62.5 -21.5q-23 0 -44 7.5t-41 17t-39 17t-37 7.5q-23 0 -38.5 -16t-29.5 -40z" />
    <glyph glyph-name="notequal" unicode="&#x2260;" horiz-adv-x="533" 
d="M74 349v52h212l58 134l47 -19l-50 -115h117v-52h-139l-53 -121h192v-52h-214l-57 -133l-46 19l49 114h-116v52h138l52 121h-190z" />
    <glyph glyph-name="lessequal" unicode="&#x2264;" horiz-adv-x="384" 
d="M54 291v31l242 156l26 -43l-200 -129l200 -128l-26 -44zM57 82h275v-52h-275v52z" />
    <glyph glyph-name="greaterequal" unicode="&#x2265;" horiz-adv-x="385" 
d="M62 178l201 129l-201 128l27 43l242 -156v-31l-242 -157zM52 82h275v-52h-275v52z" />
    <glyph glyph-name="dotmath" unicode="&#x22c5;" horiz-adv-x="242" 
d="M121 286q-22 0 -37 15t-15 37q0 23 15 38t37 15t37 -15t15 -38q0 -22 -15 -37t-37 -15z" />
    <glyph glyph-name="H18543" unicode="&#x25aa;" horiz-adv-x="498" 
d="M423 502v-358h-348v358h348z" />
    <glyph glyph-name="H18551" unicode="&#x25ab;" horiz-adv-x="498" 
d="M423 502v-358h-348v358h348zM360 203v240h-222v-240h222z" />
    <glyph glyph-name="triagup" unicode="&#x25b2;" horiz-adv-x="562" 
d="M63 116l230 434l228 -434h-458z" />
    <glyph glyph-name="uni25B3" unicode="&#x25b3;" horiz-adv-x="562" 
d="M63 116l228 434h2l228 -434h-458zM170 181h244l-122 243z" />
    <glyph glyph-name="uni25B4" unicode="&#x25b4;" horiz-adv-x="542" 
d="M83 56l198 414h2l198 -414h-398z" />
    <glyph glyph-name="uni25B5" unicode="&#x25b5;" horiz-adv-x="542" 
d="M61 56l198 414h2l198 -414h-398zM156 123h208l-104 217z" />
    <glyph glyph-name="uni25B6" unicode="&#x25b6;" horiz-adv-x="562" 
d="M75 562l434 -228l-434 -230v458z" />
    <glyph glyph-name="uni25B7" unicode="&#x25b7;" horiz-adv-x="562" 
d="M75 562l434 -228v-2l-434 -228v458zM383 333l-243 122v-244z" />
    <glyph glyph-name="uni25B8" unicode="&#x25b8;" horiz-adv-x="542" 
d="M75 462l414 -198v-2l-414 -198v398z" />
    <glyph glyph-name="uni25B9" unicode="&#x25b9;" horiz-adv-x="542" 
d="M75 462l414 -198v-2l-414 -198v398zM142 367v-208l217 104z" />
    <glyph glyph-name="triagdn" unicode="&#x25bc;" horiz-adv-x="562" 
d="M521 550l-228 -434l-230 434h458z" />
    <glyph glyph-name="uni25BD" unicode="&#x25bd;" horiz-adv-x="562" 
d="M521 550l-228 -434h-2l-228 434h458zM292 242l122 243h-244z" />
    <glyph glyph-name="uni25BE" unicode="&#x25be;" horiz-adv-x="562" 
d="M499 550l-228 -434h-2l-228 434h458z" />
    <glyph glyph-name="uni25BF" unicode="&#x25bf;" horiz-adv-x="562" 
d="M499 550l-228 -434h-2l-228 434h458zM270 242l122 243h-244z" />
    <glyph glyph-name="uni25C0" unicode="&#x25c0;" horiz-adv-x="562" 
d="M487 104l-434 228v2l434 228v-458z" />
    <glyph glyph-name="uni25C1" unicode="&#x25c1;" horiz-adv-x="562" 
d="M487 104l-434 228v2l434 228v-458zM179 333l243 -122v244z" />
    <glyph glyph-name="uni25C2" unicode="&#x25c2;" horiz-adv-x="542" 
d="M467 64l-414 198v2l414 198v-398z" />
    <glyph glyph-name="lozenge" unicode="&#x25ca;" horiz-adv-x="573" 
d="M59 344l198 343h52l203 -344l-198 -343h-52zM289 53q5 11 10 24q5 11 11.5 25.5t16.5 31.5l118 213l-124 212q-9 15 -16 30t-12 26q-6 13 -10 25h-1l-10 -26q-5 -11 -12 -25.5t-15 -29.5l-118 -213l121 -212q10 -18 17.5 -32.5t12.5 -25.5q6 -12 10 -23h1z" />
    <glyph glyph-name="uniFB05" unicode="&#xfb05;" horiz-adv-x="552" 
d="M282 478h58v111q0 86 -86 86q-57 0 -80.5 -42t-23.5 -117v-516h-60v524q0 97 44 147.5t119 50.5q72 0 109 -37t37 -97v-110h100v-49h-100v-346q0 -44 40 -44q19 0 32.5 4.5t23.5 9.5l15 -44q-15 -8 -32.5 -13.5t-41.5 -5.5q-41 0 -68.5 20.5t-27.5 69.5v349h-58v49z" />
    <glyph glyph-name="uniFB06" unicode="&#xfb06;" horiz-adv-x="715" 
d="M503 478q0 52 -13.5 84.5t-33.5 50t-44 23.5t-45 6q-54 0 -79 -23t-25 -65q0 -24 5.5 -40t14.5 -27.5t21 -20t26 -16.5l-19 -42q-26 14 -50 21.5t-57 7.5q-41 0 -63 -17t-22 -53q0 -20 5 -33t15.5 -22.5t28 -17t42.5 -15.5q30 -10 56 -21t45 -27.5t30 -41.5t11 -62
q0 -70 -42 -103.5t-117 -33.5q-48 0 -88 15.5t-66 36.5l26 43q28 -20 59 -32.5t70 -12.5q54 0 77 22.5t23 61.5q0 22 -5.5 36.5t-18 26t-33 20t-51.5 18.5q-27 8 -49.5 19t-39 27.5t-26 39.5t-9.5 55q0 25 8.5 47.5t26 39t44 26t62.5 9.5q22 0 42 -6q-14 18 -20 36t-6 44
q0 51 37.5 87t109.5 36q31 0 66 -8t63.5 -30t47.5 -61t19 -100v-8h100v-49h-100v-346q0 -44 40 -44q19 0 32.5 4.5t23.5 9.5l15 -44q-15 -8 -32.5 -13.5t-41.5 -5.5q-41 0 -68.5 20.5t-27.5 69.5v349h-58v49h58z" />
    <glyph glyph-name="arrowleft.alt001" horiz-adv-x="765" 
d="M382 -8q-72 0 -135.5 27.5t-111 75t-74.5 111.5t-27 137q0 72 27 136t74.5 111.5t111 75t135.5 27.5t136 -27.5t111 -75t74.5 -111.5t27.5 -136q0 -73 -27.5 -137t-74.5 -111.5t-111 -75t-136 -27.5zM382 47q56 0 106 21.5t88.5 58t62.5 85.5t29 105h-366l150 -164
l-34 -37l-222 226l222 227l34 -37l-149 -163h365q-5 55 -29 104t-62.5 86t-88.5 58.5t-106 21.5q-60 0 -112 -24t-91 -64.5t-61.5 -94.5t-22.5 -113q0 -60 22.5 -113.5t61.5 -94t91 -64.5t112 -24z" />
    <glyph glyph-name="arrowleft.alt002" horiz-adv-x="704" 
d="M352 20q-64 0 -122 25t-101.5 68.5t-69 102.5t-25.5 126t25.5 125.5t69 102t101.5 69t122 25.5q61 0 116 -23t98 -62.5t70.5 -93.5t32.5 -116h-423l178 199l-36 39l-255 -267l255 -266l36 39l-179 200h423q-6 -62 -33.5 -115.5t-70 -93t-97.5 -62t-115 -22.5z" />
    <glyph glyph-name="arrowleft.alt003" horiz-adv-x="730" 
d="M427 104l-376 229l376 229v-203h248v-52h-248v-203z" />
    <glyph glyph-name="arrowleft.alt004" horiz-adv-x="730" 
d="M427 54l-376 219l376 219v-193h248v-52h-248v-193z" />
    <glyph glyph-name="arrowup.alt001" horiz-adv-x="765" 
d="M382 -8q-72 0 -135.5 27.5t-111 75t-74.5 111.5t-27 137q0 72 27 136t74.5 111.5t111 75t135.5 27.5t136 -27.5t111 -75t74.5 -111.5t27.5 -136q0 -73 -27.5 -137t-74.5 -111.5t-111 -75t-136 -27.5zM200 288l-36 36l216 222l217 -222l-38 -38l-149 149v-387
q54 6 101.5 31.5t82.5 65.5t55 91t20 107q0 59 -22.5 113t-61.5 94.5t-91 64.5t-112 24t-112 -24t-91 -64.5t-61.5 -94.5t-22.5 -113q0 -56 20 -106.5t54.5 -90.5t81.5 -65.5t101 -31.5v387z" />
    <glyph glyph-name="arrowup.alt002" horiz-adv-x="704" 
d="M321 21q-59 6 -111.5 33.5t-91.5 70t-61.5 98.5t-22.5 119q0 67 25.5 125.5t69 102t101.5 69t122 25.5t122 -25t101.5 -68.5t69 -102.5t25.5 -126q0 -63 -23 -119t-62 -98.5t-91.5 -70t-111.5 -33.5v428l183 -173l41 45l-256 240l-255 -240l41 -45l185 173v-428z" />
    <glyph glyph-name="arrowright.alt001" horiz-adv-x="765" 
d="M382 -8q-72 0 -135.5 27.5t-111 75t-74.5 111.5t-27 137q0 72 27 136t74.5 111.5t111 75t135.5 27.5t136 -27.5t111 -75t74.5 -111.5t27.5 -136q0 -73 -27.5 -137t-74.5 -111.5t-111 -75t-136 -27.5zM382 47q60 0 112 24t91 64.5t61.5 94t22.5 113.5q0 59 -22.5 113
t-61.5 94.5t-91 64.5t-112 24q-56 0 -106 -21.5t-88.5 -58.5t-62.5 -86t-29 -104h365l-149 163l34 37l222 -227l-222 -226l-34 37l150 164h-366q5 -56 29 -105t62 -85.5t88 -58t107 -21.5z" />
    <glyph glyph-name="arrowright.alt002" horiz-adv-x="704" 
d="M352 20q-61 0 -116 22.5t-97.5 62t-70 93t-33.5 115.5h424l-179 -200l36 -39l255 266l-255 267l-36 -39l178 -199h-423q5 62 32.5 116t70 93.5t98 62.5t116.5 23q64 0 122 -25t101.5 -68.5t69 -102.5t25.5 -126t-25.5 -125.5t-69 -102t-101.5 -69t-122 -25.5z" />
    <glyph glyph-name="arrowright.alt003" horiz-adv-x="730" 
d="M303 307h-248v52h248v203l376 -229l-376 -229v203z" />
    <glyph glyph-name="arrowright.alt004" horiz-adv-x="730" 
d="M303 247h-248v52h248v193l376 -219l-376 -219v193z" />
    <glyph glyph-name="arrowdown.alt001" horiz-adv-x="765" 
d="M382 -8q-72 0 -135.5 27.5t-111 75t-74.5 111.5t-27 137q0 72 27 136t74.5 111.5t111 75t135.5 27.5t136 -27.5t111 -75t74.5 -111.5t27.5 -136q0 -73 -27.5 -137t-74.5 -111.5t-111 -75t-136 -27.5zM352 250v387q-54 -6 -101 -32t-81.5 -65.5t-54.5 -90.5t-20 -106
q0 -60 22.5 -113.5t61.5 -94t91 -64.5t112 -24t112 24t91 64.5t61.5 94t22.5 113.5q0 55 -20 106t-55 91t-82.5 65.5t-101.5 31.5v-386l149 149l38 -38l-217 -222l-216 222l36 36z" />
    <glyph glyph-name="arrowdown.alt002" horiz-adv-x="704" 
d="M352 20q-64 0 -122 25t-101.5 68.5t-69 102.5t-25.5 126q0 63 22.5 118.5t61.5 98t91.5 70t111.5 33.5v-427l-185 173l-41 -45l255 -240l256 240l-41 45l-183 -173v427q59 -6 111.5 -33t91.5 -69.5t62 -98.5t23 -119q0 -67 -25.5 -125.5t-69 -102t-101.5 -69t-122 -25.5z
" />
    <glyph glyph-name="uni2196.alt001" horiz-adv-x="765" 
d="M382 -8q-72 0 -135.5 27.5t-111 75t-74.5 111.5t-27 137q0 72 27 136t74.5 111.5t111 75t135.5 27.5t136 -27.5t111 -75t74.5 -111.5t27.5 -136q0 -73 -27.5 -137t-74.5 -111.5t-111 -75t-136 -27.5zM287 166h-53l3 324l325 3v-51l-231 -5l276 -276q29 38 45.5 84.5
t16.5 97.5q0 59 -22.5 113t-61.5 94.5t-91 64.5t-112 24t-112 -24t-91 -64.5t-61.5 -94.5t-22.5 -113q0 -60 22.5 -113.5t61.5 -94t91 -64.5t112 -24q54 0 102.5 19.5t86.5 54.5l-279 280z" />
    <glyph glyph-name="uni2196.alt002" horiz-adv-x="704" 
d="M352 20q-64 0 -122 25t-101.5 68.5t-69 102.5t-25.5 126t25.5 125.5t69 102t101.5 69t122 25.5t122 -25t101.5 -68.5t69 -102.5t25.5 -126q0 -58 -19.5 -109.5t-53.5 -93.5l-312 314l272 9v54l-368 -8l-9 -366h58l10 262l307 -308q-42 -35 -94 -55.5t-109 -20.5z" />
    <glyph glyph-name="uni2197.alt001" horiz-adv-x="765" 
d="M382 -8q-72 0 -135.5 27.5t-111 75t-74.5 111.5t-27 137q0 72 27 136t74.5 111.5t111 75t135.5 27.5t136 -27.5t111 -75t74.5 -111.5t27.5 -136q0 -73 -27.5 -137t-74.5 -111.5t-111 -75t-136 -27.5zM473 401l-280 -280q38 -35 86 -54.5t103 -19.5q60 0 112 24t91 64.5
t61.5 94t22.5 113.5q0 59 -22.5 113t-61.5 94.5t-91 64.5t-112 24t-112 -24t-91 -64.5t-61.5 -94.5t-22.5 -113q0 -51 16.5 -97.5t45.5 -84.5l277 276l-231 5v51l325 -3l3 -324h-53z" />
    <glyph glyph-name="uni2197.alt002" horiz-adv-x="704" 
d="M352 20q-58 0 -110 20t-94 56l308 308l10 -262h58l-9 366l-368 8v-54l272 -9l-313 -314q-34 42 -53 93.5t-19 109.5q0 67 25.5 125.5t69 102t101.5 69t122 25.5t122 -25t101.5 -68.5t69 -102.5t25.5 -126t-25.5 -125.5t-69 -102t-101.5 -69t-122 -25.5z" />
    <glyph glyph-name="uni2198.alt001" horiz-adv-x="765" 
d="M382 -8q-72 0 -135.5 27.5t-111 75t-74.5 111.5t-27 137q0 72 27 136t74.5 111.5t111 75t135.5 27.5t136 -27.5t111 -75t74.5 -111.5t27.5 -136q0 -73 -27.5 -137t-74.5 -111.5t-111 -75t-136 -27.5zM478 520h53l-3 -324l-325 -3v51l231 5l-277 276q-29 -38 -45.5 -84.5
t-16.5 -97.5q0 -60 22.5 -113.5t61.5 -94t91 -64.5t112 -24t112 24t91 64.5t61.5 94t22.5 113.5q0 59 -22.5 113t-61.5 94.5t-91 64.5t-112 24q-54 0 -102 -20t-86 -54l279 -280z" />
    <glyph glyph-name="uni2198.alt002" horiz-adv-x="704" 
d="M352 20q-64 0 -122 25t-101.5 68.5t-69 102.5t-25.5 126q0 58 19 109t53 93l313 -313l-272 -9v-54l368 8l9 366h-58l-10 -262l-308 307q42 36 94 56.5t110 20.5q64 0 122 -25t101.5 -68.5t69 -102.5t25.5 -126t-25.5 -125.5t-69 -102t-101.5 -69t-122 -25.5z" />
    <glyph glyph-name="uni2199.alt001" horiz-adv-x="765" 
d="M382 -8q-72 0 -135.5 27.5t-111 75t-74.5 111.5t-27 137q0 72 27 136t74.5 111.5t111 75t135.5 27.5t136 -27.5t111 -75t74.5 -111.5t27.5 -136q0 -73 -27.5 -137t-74.5 -111.5t-111 -75t-136 -27.5zM292 285l278 279q-38 35 -86 55t-102 20q-60 0 -112 -24t-91 -64.5
t-61.5 -94.5t-22.5 -113q0 -60 22.5 -113.5t61.5 -94t91 -64.5t112 -24t112 24t91 64.5t61.5 94t22.5 113.5q0 51 -16.5 97t-45.5 84l-276 -275l231 -5v-51l-325 3l-3 324h53z" />
    <glyph glyph-name="uni2199.alt002" horiz-adv-x="704" 
d="M352 20q-64 0 -122 25t-101.5 68.5t-69 102.5t-25.5 126t25.5 125.5t69 102t101.5 69t122 25.5q57 0 109.5 -20.5t94.5 -55.5l-308 -308l-10 262h-58l9 -366l368 -8v54l-272 9l313 314q34 -42 53 -93.5t19 -109.5q0 -67 -25.5 -125.5t-69 -102t-101.5 -69t-122 -25.5z
" />
    <glyph glyph-name="uni25B6.alt001" horiz-adv-x="488" 
d="M105 603q21 0 36 -15t15 -36t-15 -36t-36 -15t-36 15t-15 36t15 36t36 15zM105 23q21 0 36 -15t15 -36t-15 -36t-36 -15t-36 15t-15 36t15 36t36 15zM105 168q21 0 36 -15t15 -36t-15 -36t-36 -15t-36 15t-15 36t15 36t36 15zM252 168q21 0 36 -15t15 -36t-15 -36
t-36 -15t-36 15t-15 36t15 36t36 15zM105 313q21 0 36 -15t15 -36t-15 -36t-36 -15t-36 15t-15 36t15 36t36 15zM252 313q21 0 36 -15t15 -36t-15 -36t-36 -15t-36 15t-15 36t15 36t36 15zM399 313q21 0 36 -15t15 -36t-15 -36t-36 -15t-36 15t-15 36t15 36t36 15zM105 458
q21 0 36 -15t15 -36t-15 -36t-36 -15t-36 15t-15 36t15 36t36 15zM252 458q21 0 36 -15t15 -36t-15 -36t-36 -15t-36 15t-15 36t15 36t36 15z" />
    <glyph glyph-name="uni25B8.alt001" horiz-adv-x="480" 
d="M110 468q23 0 39.5 -16.5t16.5 -39.5t-16.5 -39.5t-39.5 -16.5t-39.5 16.5t-16.5 39.5t16.5 39.5t39.5 16.5zM110 168q23 0 39.5 -16.5t16.5 -39.5t-16.5 -39.5t-39.5 -16.5t-39.5 16.5t-16.5 39.5t16.5 39.5t39.5 16.5zM248 243q23 0 39.5 -16.5t16.5 -39.5t-16.5 -39.5
t-39.5 -16.5t-39.5 16.5t-16.5 39.5t16.5 39.5t39.5 16.5zM110 318q23 0 39.5 -16.5t16.5 -39.5t-16.5 -39.5t-39.5 -16.5t-39.5 16.5t-16.5 39.5t16.5 39.5t39.5 16.5zM386 318q23 0 39.5 -16.5t16.5 -39.5t-16.5 -39.5t-39.5 -16.5t-39.5 16.5t-16.5 39.5t16.5 39.5
t39.5 16.5zM248 393q23 0 39.5 -16.5t16.5 -39.5t-16.5 -39.5t-39.5 -16.5t-39.5 16.5t-16.5 39.5t16.5 39.5t39.5 16.5z" />
    <glyph glyph-name="uni25C0.alt001" horiz-adv-x="488" 
d="M383 501q-21 0 -36 15t-15 36t15 36t36 15t36 -15t15 -36t-15 -36t-36 -15zM383 -79q-21 0 -36 15t-15 36t15 36t36 15t36 -15t15 -36t-15 -36t-36 -15zM236 66q-21 0 -36 15t-15 36t15 36t36 15t36 -15t15 -36t-15 -36t-36 -15zM383 66q-21 0 -36 15t-15 36t15 36t36 15
t36 -15t15 -36t-15 -36t-36 -15zM89 211q-21 0 -36 15t-15 36t15 36t36 15t36 -15t15 -36t-15 -36t-36 -15zM236 211q-21 0 -36 15t-15 36t15 36t36 15t36 -15t15 -36t-15 -36t-36 -15zM383 211q-21 0 -36 15t-15 36t15 36t36 15t36 -15t15 -36t-15 -36t-36 -15zM236 356
q-21 0 -36 15t-15 36t15 36t36 15t36 -15t15 -36t-15 -36t-36 -15zM383 356q-21 0 -36 15t-15 36t15 36t36 15t36 -15t15 -36t-15 -36t-36 -15z" />
    <glyph glyph-name="uni25C2.alt001" horiz-adv-x="480" 
d="M370 356q-23 0 -39.5 16.5t-16.5 39.5t16.5 39.5t39.5 16.5t39.5 -16.5t16.5 -39.5t-16.5 -39.5t-39.5 -16.5zM370 56q-23 0 -39.5 16.5t-16.5 39.5t16.5 39.5t39.5 16.5t39.5 -16.5t16.5 -39.5t-16.5 -39.5t-39.5 -16.5zM232 131q-23 0 -39.5 16.5t-16.5 39.5t16.5 39.5
t39.5 16.5t39.5 -16.5t16.5 -39.5t-16.5 -39.5t-39.5 -16.5zM94 206q-23 0 -39.5 16.5t-16.5 39.5t16.5 39.5t39.5 16.5t39.5 -16.5t16.5 -39.5t-16.5 -39.5t-39.5 -16.5zM370 206q-23 0 -39.5 16.5t-16.5 39.5t16.5 39.5t39.5 16.5t39.5 -16.5t16.5 -39.5t-16.5 -39.5
t-39.5 -16.5zM232 281q-23 0 -39.5 16.5t-16.5 39.5t16.5 39.5t39.5 16.5t39.5 -16.5t16.5 -39.5t-16.5 -39.5t-39.5 -16.5z" />
    <glyph glyph-name="uni2009.latn_FRA" horiz-adv-x="125" 
 />
    <glyph glyph-name="comma.subs" horiz-adv-x="149" 
d="M36 -193q17 6 26 17t10 23q-15 2 -25.5 10.5t-10.5 25.5q0 15 11.5 25.5t26.5 10.5t27 -12t12 -36q0 -73 -68 -89z" />
    <glyph glyph-name="period.subs" horiz-adv-x="149" 
d="M74 -155q-15 0 -26.5 10.5t-11.5 27.5q0 15 11.5 25.5t26.5 10.5q16 0 26.5 -10.5t10.5 -25.5q0 -17 -10.5 -27.5t-26.5 -10.5z" />
    <glyph glyph-name="colon.subs" horiz-adv-x="156" 
d="M78 22q-15 0 -26.5 10.5t-11.5 27.5q0 15 11.5 26t26.5 11t26 -11t11 -26q0 -17 -11 -27.5t-26 -10.5zM78 -155q-15 0 -26.5 10.5t-11.5 27.5q0 15 11.5 25.5t26.5 10.5t26 -10.5t11 -25.5q0 -17 -11 -27.5t-26 -10.5z" />
    <glyph glyph-name="bracketleft.subs" horiz-adv-x="201" 
d="M52 334h123v-41h-71v-504h71v-41h-123v586z" />
    <glyph glyph-name="bracketright.subs" horiz-adv-x="201" 
d="M27 -211h69v504h-69v41h122v-586h-122v41z" />
    <glyph glyph-name="multiply.subs" horiz-adv-x="318" 
d="M47 -50l80 89l-80 90l34 32l78 -88l78 88l33 -32l-80 -89l80 -90l-34 -32l-79 88l-78 -88z" />
    <glyph glyph-name="comma.sups" horiz-adv-x="149" 
d="M36 177q17 6 26 17t10 23q-15 2 -25.5 10.5t-10.5 25.5q0 15 11.5 25.5t26.5 10.5t27 -12t12 -36q0 -73 -68 -89z" />
    <glyph glyph-name="period.sups" horiz-adv-x="149" 
d="M74 215q-15 0 -26.5 10.5t-11.5 27.5q0 15 11.5 25.5t26.5 10.5q16 0 26.5 -10.5t10.5 -25.5q0 -17 -10.5 -27.5t-26.5 -10.5z" />
    <glyph glyph-name="colon.sups" horiz-adv-x="156" 
d="M78 392q-15 0 -26.5 10.5t-11.5 27.5q0 15 11.5 26t26.5 11t26 -11t11 -26q0 -17 -11 -27.5t-26 -10.5zM78 215q-15 0 -26.5 10.5t-11.5 27.5q0 15 11.5 25.5t26.5 10.5t26 -10.5t11 -25.5q0 -17 -11 -27.5t-26 -10.5z" />
    <glyph glyph-name="bracketleft.sups" horiz-adv-x="201" 
d="M52 704h123v-41h-71v-504h71v-41h-123v586z" />
    <glyph glyph-name="bracketright.sups" horiz-adv-x="201" 
d="M27 159h69v504h-69v41h122v-586h-122v41z" />
    <glyph glyph-name="multiply.sups" horiz-adv-x="318" 
d="M47 320l80 89l-80 90l34 32l78 -88l78 88l33 -32l-80 -89l80 -90l-34 -32l-79 88l-78 -88z" />
    <glyph glyph-name="parenleft.numr" horiz-adv-x="212" 
d="M176 118q-35 16 -61.5 41.5t-43.5 62t-25.5 86.5t-8.5 115t8 115t25.5 87t43.5 62t62 42l15 -36q-26 -16 -44.5 -37.5t-30.5 -52.5t-17.5 -75t-5.5 -105q0 -62 6 -105.5t18 -74.5t30.5 -52t43.5 -37l-15 -36v0z" />
    <glyph glyph-name="parenright.numr" horiz-adv-x="212" 
d="M21 154q25 16 43.5 37t30.5 52.5t18 75t6 104.5t-6 105t-18 75.5t-30.5 52.5t-43.5 37l15 36q70 -32 104 -104t34 -203q0 -65 -8 -114.5t-25 -86.5t-43 -62t-62 -41z" />
    <glyph glyph-name="plus.numr" horiz-adv-x="342" 
d="M145 387h-103v47h103v115h52v-115h102v-47h-102v-113h-52v113z" />
    <glyph glyph-name="comma.numr" horiz-adv-x="149" 
d="M36 177q17 6 26 17t10 23q-15 2 -25.5 10.5t-10.5 25.5q0 15 11.5 25.5t26.5 10.5t27 -12t12 -36q0 -73 -68 -89z" />
    <glyph glyph-name="period.numr" horiz-adv-x="149" 
d="M74 215q-15 0 -26.5 10.5t-11.5 27.5q0 15 11.5 25.5t26.5 10.5q16 0 26.5 -10.5t10.5 -25.5q0 -17 -10.5 -27.5t-26.5 -10.5z" />
    <glyph glyph-name="zero.numr" horiz-adv-x="369" 
d="M185 215q-82 0 -120 54.5t-38 158.5q0 105 39 161.5t119 56.5q79 0 118 -56.5t39 -160.5q0 -106 -37 -160t-120 -54zM185 256q56 0 78.5 43.5t22.5 128.5q0 87 -23.5 131.5t-77.5 44.5q-55 0 -78.5 -44.5t-23.5 -130.5t23 -129.5t79 -43.5z" />
    <glyph glyph-name="one.numr" horiz-adv-x="317" 
d="M58 261h85v316l-79 -43l-17 29l110 81h41v-383h80v-41h-220v41z" />
    <glyph glyph-name="two.numr" horiz-adv-x="354" 
d="M55 266q61 51 98.5 88t58.5 65.5t28 51.5t7 47q0 42 -20.5 62t-57.5 20q-29 0 -49.5 -7.5t-45.5 -21.5l-19 39q26 16 53.5 25.5t64.5 9.5q57 0 93 -31.5t36 -93.5q0 -28 -8.5 -55.5t-29.5 -57.5t-57 -65t-90 -79h193v-43h-255v46z" />
    <glyph glyph-name="three.numr" horiz-adv-x="362" 
d="M152 177q-38 0 -69 8t-54 19l13 39q22 -9 47.5 -15.5t57.5 -6.5q103 0 103 93q0 26 -7.5 43.5t-21 28t-31.5 15t-40 4.5h-37v42h34q45 0 66.5 20.5t21.5 57.5q0 36 -19.5 56t-61.5 20q-28 0 -51 -8t-44 -19l-17 38q26 15 54 24t66 9q61 0 94 -32t33 -81q0 -42 -19.5 -67
t-51.5 -36q39 -10 63.5 -38t24.5 -80q0 -62 -39.5 -98t-114.5 -36z" />
    <glyph glyph-name="four.numr" horiz-adv-x="369" 
d="M26 285v48l136 305h56l-139 -309h168v182l55 10v-192h50v-44h-50v-102h-55v102h-221z" />
    <glyph glyph-name="five.numr" horiz-adv-x="350" 
d="M143 177q-37 0 -66 8t-53 19l14 40q21 -10 45.5 -16.5t53.5 -6.5q54 0 78.5 29t24.5 78q0 53 -29 77t-78 24q-20 0 -41 -3t-39 -9l20 224h212v-45h-169l-13 -129q8 2 21 3.5t24 1.5q68 0 108 -36.5t40 -105.5q0 -70 -38.5 -111.5t-114.5 -41.5z" />
    <glyph glyph-name="six.numr" horiz-adv-x="359" 
d="M92 459q17 14 43 27.5t61 13.5q25 0 48.5 -8.5t41.5 -25.5t29 -43t11 -61q0 -75 -38.5 -111t-101.5 -36q-68 0 -111 47t-43 143q0 64 15.5 112t45.5 81t73 53.5t98 30.5l12 -41q-41 -9 -73 -23t-55 -35t-37 -51t-19 -73zM89 420q-1 -5 -1 -11v-13q0 -74 26.5 -107
t71.5 -33q86 0 86 103q0 51 -24 75.5t-66 24.5q-30 0 -52.5 -12t-40.5 -27z" />
    <glyph glyph-name="seven.numr" horiz-adv-x="332" 
d="M88 185q6 73 21.5 134t37 112t48 92t54.5 73h-215v45h264v-50q-27 -32 -53 -73.5t-47 -93t-35.5 -113t-19.5 -133.5z" />
    <glyph glyph-name="eight.numr" horiz-adv-x="368" 
d="M132 456q-35 16 -57.5 43t-22.5 67q0 23 8 44t24.5 36.5t40.5 24.5t57 9q63 0 97 -31.5t34 -79.5q0 -39 -24 -66t-59 -43q22 -11 41 -22t32 -25t20.5 -32t7.5 -43q0 -61 -41 -92t-107 -31q-67 0 -107.5 31t-40.5 91q0 47 27.5 74.5t69.5 44.5zM174 438q-42 -18 -64 -40
t-22 -60q0 -42 26 -63t71 -21q42 0 67 21.5t25 59.5q0 31 -16 52t-58 38zM188 477q42 18 57 40t15 51q0 35 -20.5 53t-57.5 18q-35 0 -56 -18t-21 -52q0 -29 14 -49t51 -36z" />
    <glyph glyph-name="nine.numr" horiz-adv-x="359" 
d="M266 397q-17 -14 -42 -26.5t-57 -12.5q-26 0 -50 8.5t-42.5 26t-30 43.5t-11.5 62q0 75 40 112t101 37q34 0 62 -11.5t48 -35.5t31.5 -60t11.5 -85q0 -64 -16.5 -111.5t-47.5 -80.5t-75.5 -53.5t-99.5 -30.5l-11 41q42 10 74.5 24t56 34.5t38 49t20.5 69.5zM270 436
q1 7 1 13.5v13.5q0 75 -26 109t-71 34q-41 0 -64.5 -26t-23.5 -77q0 -54 26.5 -80t68.5 -26q26 0 49 11.5t40 27.5z" />
    <glyph glyph-name="colon.numr" horiz-adv-x="156" 
d="M78 392q-15 0 -26.5 10.5t-11.5 27.5q0 15 11.5 26t26.5 11t26 -11t11 -26q0 -17 -11 -27.5t-26 -10.5zM78 215q-15 0 -26.5 10.5t-11.5 27.5q0 15 11.5 25.5t26.5 10.5t26 -10.5t11 -25.5q0 -17 -11 -27.5t-26 -10.5z" />
    <glyph glyph-name="equal.numr" horiz-adv-x="348" 
d="M43 493h261v-47h-261v47zM43 376h261v-47h-261v47z" />
    <glyph glyph-name="bracketleft.numr" horiz-adv-x="201" 
d="M52 704h123v-41h-71v-504h71v-41h-123v586z" />
    <glyph glyph-name="bracketright.numr" horiz-adv-x="201" 
d="M27 159h69v504h-69v41h122v-586h-122v41z" />
    <glyph glyph-name="multiply.numr" horiz-adv-x="318" 
d="M47 320l80 89l-80 90l34 32l78 -88l78 88l33 -32l-80 -89l80 -90l-34 -32l-79 88l-78 -88z" />
    <glyph glyph-name="minus.numr" horiz-adv-x="342" 
d="M42 434h257v-47h-257v47z" />
    <glyph glyph-name="parenleft.dnom" horiz-adv-x="212" 
d="M176 -102q-35 16 -61.5 41.5t-43.5 62t-25.5 86.5t-8.5 115t8 115t25.5 87t43.5 62t62 42l15 -36q-26 -16 -44.5 -37.5t-30.5 -52.5t-17.5 -75t-5.5 -105q0 -62 6 -105.5t18 -74.5t30.5 -52t43.5 -37l-15 -36v0z" />
    <glyph glyph-name="parenright.dnom" horiz-adv-x="212" 
d="M21 -66q25 16 43.5 37t30.5 52.5t18 75t6 104.5t-6 105t-18 75.5t-30.5 52.5t-43.5 37l15 36q70 -32 104 -104t34 -203q0 -65 -8 -114.5t-25 -86.5t-43 -62t-62 -41z" />
    <glyph glyph-name="plus.dnom" horiz-adv-x="342" 
d="M145 167h-103v47h103v115h52v-115h102v-47h-102v-113h-52v113z" />
    <glyph glyph-name="comma.dnom" horiz-adv-x="149" 
d="M36 -43q17 6 26 17t10 23q-15 2 -25.5 10.5t-10.5 25.5q0 15 11.5 25.5t26.5 10.5t27 -12t12 -36q0 -73 -68 -89z" />
    <glyph glyph-name="period.dnom" horiz-adv-x="149" 
d="M74 -5q-15 0 -26.5 10.5t-11.5 27.5q0 15 11.5 25.5t26.5 10.5q16 0 26.5 -10.5t10.5 -25.5q0 -17 -10.5 -27.5t-26.5 -10.5z" />
    <glyph glyph-name="zero.dnom" horiz-adv-x="369" 
d="M185 -5q-82 0 -120 54.5t-38 158.5q0 105 39 161.5t119 56.5q79 0 118 -56.5t39 -160.5q0 -106 -37 -160t-120 -54zM185 36q56 0 78.5 43.5t22.5 128.5q0 87 -23.5 131.5t-77.5 44.5q-55 0 -78.5 -44.5t-23.5 -130.5t23 -129.5t79 -43.5z" />
    <glyph glyph-name="one.dnom" horiz-adv-x="317" 
d="M58 41h85v316l-79 -43l-17 29l110 81h41v-383h80v-41h-220v41z" />
    <glyph glyph-name="two.dnom" horiz-adv-x="354" 
d="M55 46q61 51 98.5 88t58.5 65.5t28 51.5t7 47q0 42 -20.5 62t-57.5 20q-29 0 -49.5 -7.5t-45.5 -21.5l-19 39q26 16 53.5 25.5t64.5 9.5q57 0 93 -31.5t36 -93.5q0 -28 -8.5 -55.5t-29.5 -57.5t-57 -65t-90 -79h193v-43h-255v46z" />
    <glyph glyph-name="three.dnom" horiz-adv-x="362" 
d="M152 -43q-38 0 -69 8t-54 19l13 39q22 -9 47.5 -15.5t57.5 -6.5q103 0 103 93q0 26 -7.5 43.5t-21 28t-31.5 15t-40 4.5h-37v42h34q45 0 66.5 20.5t21.5 57.5q0 36 -19.5 56t-61.5 20q-28 0 -51 -8t-44 -19l-17 38q26 15 54 24t66 9q61 0 94 -32t33 -81q0 -42 -19.5 -67
t-51.5 -36q39 -10 63.5 -38t24.5 -80q0 -62 -39.5 -98t-114.5 -36z" />
    <glyph glyph-name="four.dnom" horiz-adv-x="369" 
d="M26 65v48l136 305h56l-139 -309h168v182l55 10v-192h50v-44h-50v-102h-55v102h-221z" />
    <glyph glyph-name="five.dnom" horiz-adv-x="350" 
d="M143 -43q-37 0 -66 8t-53 19l14 40q21 -10 45.5 -16.5t53.5 -6.5q54 0 78.5 29t24.5 78q0 53 -29 77t-78 24q-20 0 -41 -3t-39 -9l20 224h212v-45h-169l-13 -129q8 2 21 3.5t24 1.5q68 0 108 -36.5t40 -105.5q0 -70 -38.5 -111.5t-114.5 -41.5z" />
    <glyph glyph-name="six.dnom" horiz-adv-x="359" 
d="M92 239q17 14 43 27.5t61 13.5q25 0 48.5 -8.5t41.5 -25.5t29 -43t11 -61q0 -75 -38.5 -111t-101.5 -36q-68 0 -111 47t-43 143q0 64 15.5 112t45.5 81t73 53.5t98 30.5l12 -41q-41 -9 -73 -23t-55 -35t-37 -51t-19 -73zM89 200q-1 -5 -1 -11v-13q0 -74 26.5 -107
t71.5 -33q86 0 86 103q0 51 -24 75.5t-66 24.5q-30 0 -52.5 -12t-40.5 -27z" />
    <glyph glyph-name="seven.dnom" horiz-adv-x="332" 
d="M88 -35q6 73 21.5 134t37 112t48 92t54.5 73h-215v45h264v-50q-27 -32 -53 -73.5t-47 -93t-35.5 -113t-19.5 -133.5z" />
    <glyph glyph-name="eight.dnom" horiz-adv-x="368" 
d="M132 236q-35 16 -57.5 43t-22.5 67q0 23 8 44t24.5 36.5t40.5 24.5t57 9q63 0 97 -31.5t34 -79.5q0 -39 -24 -66t-59 -43q22 -11 41 -22t32 -25t20.5 -32t7.5 -43q0 -61 -41 -92t-107 -31q-67 0 -107.5 31t-40.5 91q0 47 27.5 74.5t69.5 44.5zM174 218q-42 -18 -64 -40
t-22 -60q0 -42 26 -63t71 -21q42 0 67 21.5t25 59.5q0 31 -16 52t-58 38zM188 257q42 18 57 40t15 51q0 35 -20.5 53t-57.5 18q-35 0 -56 -18t-21 -52q0 -29 14 -49t51 -36z" />
    <glyph glyph-name="nine.dnom" horiz-adv-x="359" 
d="M266 177q-17 -14 -42 -26.5t-57 -12.5q-26 0 -50 8.5t-42.5 26t-30 43.5t-11.5 62q0 75 40 112t101 37q34 0 62 -11.5t48 -35.5t31.5 -60t11.5 -85q0 -64 -16.5 -111.5t-47.5 -80.5t-75.5 -53.5t-99.5 -30.5l-11 41q42 10 74.5 24t56 34.5t38 49t20.5 69.5zM270 216
q1 7 1 13.5v13.5q0 75 -26 109t-71 34q-41 0 -64.5 -26t-23.5 -77q0 -54 26.5 -80t68.5 -26q26 0 49 11.5t40 27.5z" />
    <glyph glyph-name="colon.dnom" horiz-adv-x="156" 
d="M78 172q-15 0 -26.5 10.5t-11.5 27.5q0 15 11.5 26t26.5 11t26 -11t11 -26q0 -17 -11 -27.5t-26 -10.5zM78 -5q-15 0 -26.5 10.5t-11.5 27.5q0 15 11.5 25.5t26.5 10.5t26 -10.5t11 -25.5q0 -17 -11 -27.5t-26 -10.5z" />
    <glyph glyph-name="equal.dnom" horiz-adv-x="348" 
d="M43 273h261v-47h-261v47zM43 156h261v-47h-261v47z" />
    <glyph glyph-name="bracketleft.dnom" horiz-adv-x="201" 
d="M52 484h123v-41h-71v-504h71v-41h-123v586z" />
    <glyph glyph-name="bracketright.dnom" horiz-adv-x="201" 
d="M27 -61h69v504h-69v41h122v-586h-122v41z" />
    <glyph glyph-name="multiply.dnom" horiz-adv-x="318" 
d="M47 100l80 89l-80 90l34 32l78 -88l78 88l33 -32l-80 -89l80 -90l-34 -32l-79 88l-78 -88z" />
    <glyph glyph-name="minus.dnom" horiz-adv-x="342" 
d="M42 214h257v-47h-257v47z" />
    <glyph glyph-name="numbersign.tf" 
d="M72 434v50h104l31 203h51l-31 -203h136l31 203h51l-31 -203h92v-50h-99l-26 -174h96v-48h-103l-32 -212h-51l32 212h-136l-32 -212h-51l32 212h-93v48h100l26 174h-97zM220 434l-26 -174h136l26 174h-136z" />
    <glyph glyph-name="dollar.tf" 
d="M257 789h46v-94q44 -3 75.5 -15.5t59.5 -32.5l-26 -42q-24 17 -50.5 27.5t-59.5 13.5v-263q38 -16 68.5 -33.5t52.5 -40.5t33.5 -55t11.5 -77q0 -171 -165 -186v-106h-46v105q-57 3 -105.5 23t-81.5 48l29 42q32 -26 71.5 -43.5t87.5 -19.5v299q-36 15 -65 31t-49 37.5
t-30.5 50.5t-10.5 70q0 78 39.5 120t114.5 47v94zM302 42q55 7 79.5 38.5t24.5 94.5q0 30 -6.5 52t-20 38.5t-33 29.5t-44.5 25v-278zM258 646q-95 -10 -95 -116q0 -27 5.5 -46t17 -33.5t29.5 -26t43 -23.5v245z" />
    <glyph glyph-name="plus.tf" 
d="M246 287h-160v52h160v177h57v-177h160v-52h-160v-177h-57v177z" />
    <glyph glyph-name="zero.tf" 
d="M277 -9q-115 0 -169.5 86t-54.5 264q0 179 54 267t168 88t168 -86.5t54 -264.5q0 -179 -53.5 -266.5t-166.5 -87.5zM276 41q42 0 71 16.5t48 52.5t27.5 92.5t8.5 137.5q0 160 -36.5 232.5t-119.5 72.5q-42 0 -71.5 -17t-48.5 -53t-28 -93t-9 -138q0 -80 9 -137.5
t28.5 -94.5t49 -54t71.5 -17z" />
    <glyph glyph-name="one.tf" 
d="M116 51h144v559l-142 -75l-19 33l175 124h48v-641h132v-51h-338v51z" />
    <glyph glyph-name="two.tf" 
d="M88 56q93 95 151 161.5t90 117t43.5 89.5t11.5 78q0 71 -29 106.5t-93 35.5q-45 0 -78.5 -12t-68.5 -34l-24 44q43 27 83 40.5t91 13.5q88 0 136 -49.5t48 -143.5q0 -43 -14 -87.5t-48 -97t-89.5 -117t-139.5 -148.5h303v-53h-373v56z" />
    <glyph glyph-name="three.tf" 
d="M235 -10q-53 0 -96.5 10.5t-79.5 26.5l15 46q33 -12 72 -21t86 -9q82 0 121.5 37t39.5 117q0 43 -11.5 71.5t-32.5 45.5t-50.5 23.5t-65.5 6.5h-48v50h48q71 0 104 33t33 96q0 57 -30 89t-93 32q-42 0 -79.5 -11.5t-72.5 -31.5l-22 43q43 26 84 39t96 13q44 0 77.5 -13
t56.5 -35.5t35 -53t12 -64.5q0 -118 -103 -158q57 -15 92.5 -57.5t35.5 -118.5q0 -97 -56.5 -151.5t-167.5 -54.5z" />
    <glyph glyph-name="four.tf" 
d="M54 156v58l206 473h66l-209 -478h242v284l63 13v-297h79v-53h-79v-156h-63v156h-305z" />
    <glyph glyph-name="five.tf" 
d="M231 -9q-47 0 -88.5 9.5t-76.5 24.5l16 48q32 -12 68 -21t77 -9q90 0 131 48t41 131q0 87 -45.5 125.5t-122.5 38.5q-32 0 -63 -5t-60 -14l30 320h310v-53h-259l-19 -204q14 3 33.5 5t36.5 2q51 0 92 -14t70.5 -41t45.5 -66.5t16 -90.5q0 -53 -15.5 -96t-45 -74
t-73 -47.5t-99.5 -16.5z" />
    <glyph glyph-name="six.tf" 
d="M285 -10q-47 0 -87 18t-69.5 54t-46.5 89t-17 123q0 101 23.5 173.5t67.5 122.5t106.5 80t141.5 45l13 -48q-62 -14 -110.5 -34.5t-84 -53.5t-57.5 -81t-30 -117q28 26 66.5 46t91.5 20q39 0 74 -14t62 -41t42.5 -67t15.5 -92q0 -55 -15 -96.5t-42 -69.5t-64 -42.5
t-81 -14.5zM283 377q-49 0 -84.5 -18.5t-67.5 -45.5q-1 -11 -1 -21.5v-21.5q0 -121 41.5 -175.5t113.5 -54.5q69 0 103 45t34 126q0 82 -37.5 124t-101.5 42z" />
    <glyph glyph-name="seven.tf" 
d="M160 1q10 109 34.5 203t58 173t73 143t80.5 114h-330v53h389v-57q-47 -55 -87.5 -123t-72 -147.5t-52 -171t-27.5 -194.5z" />
    <glyph glyph-name="eight.tf" 
d="M277 -10q-99 0 -156.5 49t-57.5 136q0 37 10.5 66t30 51t46 39t59.5 31q-35 16 -58 36t-36.5 42t-19 45t-5.5 47q0 74 48 119t136 45q43 0 77.5 -12t58.5 -33.5t36.5 -51t12.5 -64.5q0 -54 -28.5 -96t-99.5 -76q44 -18 74 -38.5t48 -43.5t25.5 -50t7.5 -59
q0 -86 -57 -134t-152 -48zM253 338q-63 -28 -95 -64t-32 -98q0 -72 40.5 -104.5t110.5 -32.5q69 0 107.5 33.5t38.5 92.5q0 51 -23.5 85t-87.5 63zM153 535q0 -24 4.5 -43t16.5 -35.5t32 -30.5t52 -28l27 -12q34 16 55.5 33t34 35t17 37.5t4.5 42.5q0 54 -31.5 84t-91.5 30
q-58 0 -89 -30t-31 -83z" />
    <glyph glyph-name="nine.tf" 
d="M418 369q1 11 1 23v25q0 122 -41 175.5t-112 53.5q-68 0 -103.5 -45t-35.5 -126q0 -86 38.5 -127.5t103.5 -41.5q45 0 81.5 18t67.5 45zM413 320q-27 -26 -65.5 -45t-86.5 -19q-39 0 -75 14.5t-63.5 42.5t-44 68.5t-16.5 91.5q0 54 16 95.5t43.5 70t65 43t80.5 14.5
q47 0 86.5 -17t68.5 -52.5t45.5 -89t16.5 -125.5q0 -100 -24.5 -172t-70 -122t-110.5 -80t-146 -46l-13 48q62 15 112 36t87 53t61 78.5t33 112.5z" />
    <glyph glyph-name="less.tf" 
d="M141 302v24l236 196l30 -42l-197 -166l197 -166l-30 -43z" />
    <glyph glyph-name="equal.tf" 
d="M82 426h384v-52h-384v52zM82 254h384v-52h-384v52z" />
    <glyph glyph-name="greater.tf" 
d="M143 148l197 166l-197 166l30 42l236 -196v-24l-236 -197z" />
    <glyph glyph-name="cent.tf" 
d="M277 -8q-72 8 -117 66t-45 180q0 62 12 107t33 75t51 46t66 20v114h47v-113q39 -2 66.5 -16.5t52.5 -38.5l-34 -39q-19 20 -38.5 31t-47.5 13v-398q33 3 54.5 18t37.5 32l38 -36q-23 -26 -54 -42.5t-75 -19.5v-106h-47v107zM178 240q0 -101 24.5 -146t75.5 -53v395
q-25 -3 -43.5 -15t-31 -35.5t-19 -59t-6.5 -86.5z" />
    <glyph glyph-name="sterling.tf" 
d="M231 318q7 -29 12 -57t5 -57q0 -42 -16 -82t-59 -69h303v-53h-380v56q51 27 71.5 61.5t20.5 85.5q0 29 -6 57.5t-15 57.5h-89v52h73q-11 35 -19 72t-8 76q0 44 14 77t38 55.5t57.5 34t72.5 11.5q54 0 92.5 -15t80.5 -44l-26 -43q-17 12 -32.5 21t-32.5 15.5t-36 10
t-43 3.5q-57 0 -88.5 -31t-31.5 -92q0 -37 8.5 -75t19.5 -76h187v-52h-173v0z" />
    <glyph glyph-name="currency.tf" 
d="M52 97l75 85q-29 50 -29 126t28 126l-12 14q-5 6 -12 13.5t-14 15.5q-17 18 -37 43l39 36q19 -21 34 -39q6 -8 12.5 -15.5t11.5 -12.5q6 -7 11 -12q46 43 115 43q68 0 116 -43l69 79l39 -37l-74 -85q29 -49 29 -125q0 -77 -29 -127l76 -86l-39 -35l-71 79
q-47 -42 -114 -42q-69 0 -115 42l-70 -80zM276 148q57 0 86 36.5t29 122.5q0 87 -30 125t-86 38q-57 0 -86 -36.5t-29 -123.5t30 -124.5t86 -37.5z" />
    <glyph glyph-name="yen.tf" 
d="M56 363v48h133l-137 276h71l116 -245q14 -29 22 -50.5t15 -44.5q8 23 15 44.5t21 50.5l117 245h68l-137 -276h133v-48h-157l-30 -62v-37h187v-48h-187v-216h-63v216h-187v48h187v38l-30 61h-157z" />
    <glyph glyph-name="section.tf" 
d="M177 452q-26 19 -38.5 45.5t-12.5 66.5q0 28 9.5 52t29 42t49.5 28t70 10q48 0 82 -12t63 -31l-24 -45q-29 18 -55.5 28t-64.5 10q-55 0 -77.5 -21.5t-22.5 -58.5q0 -23 5.5 -38.5t19.5 -27t38 -21t61 -20.5q38 -12 69.5 -25t54.5 -32t36 -46t13 -67q0 -55 -28.5 -88.5
t-82.5 -49.5q29 -20 44.5 -48t15.5 -68q0 -69 -42.5 -105t-120.5 -36q-59 0 -101 18t-66 41l28 42q26 -23 57.5 -37.5t82.5 -14.5q53 0 77 22t24 68q0 23 -8 39t-25 29t-42.5 23.5t-61.5 22.5q-39 12 -69.5 26.5t-51.5 34t-32.5 46t-11.5 63.5q0 50 26.5 84.5t82.5 50.5z
M318 179q55 10 79.5 37.5t24.5 71.5q0 27 -8 44.5t-25 30t-42.5 21.5t-60.5 20q-16 5 -30 10t-26 10q-57 -9 -80.5 -37.5t-23.5 -70.5q0 -24 7.5 -40.5t23 -29.5t40 -23.5t58.5 -21.5q17 -5 33 -10.5t30 -11.5z" />
    <glyph glyph-name="logicalnot.tf" 
d="M366 323h-248v52h306v-192h-58v140z" />
    <glyph glyph-name="plusminus.tf" 
d="M246 281h-160v51h160v159h57v-159h160v-51h-160v-143h-57v143zM86 82h377v-52h-377v52z" />
    <glyph glyph-name="multiply.tf" 
d="M274 270l-122 -135l-38 38l125 137l-126 138l38 37l124 -136l122 135l39 -38l-125 -136l126 -139l-39 -37z" />
    <glyph glyph-name="divide.tf" 
d="M275 425q-21 0 -36 14.5t-15 36.5t15 36.5t36 14.5t35.5 -14.5t14.5 -36.5t-14.5 -36.5t-35.5 -14.5zM86 339h377v-52h-377v52zM275 99q-21 0 -36 14.5t-15 36.5t15 36.5t36 14.5t35.5 -14.5t14.5 -36.5t-14.5 -36.5t-35.5 -14.5z" />
    <glyph glyph-name="florin.tf" 
d="M144 433h82l13 130q8 73 41 103t84 30q29 0 51.5 -6.5t42.5 -20.5l-23 -45q-16 9 -31 15t-35 6q-32 0 -48.5 -18t-21.5 -64l-13 -130h112v-49h-117l-60 -588h-60l60 588h-77v49z" />
    <glyph glyph-name="uni2007.tf" 
 />
    <glyph glyph-name="Euro.tf" 
d="M31 392v48h80q15 131 72.5 193.5t160.5 62.5q53 0 92 -13.5t69 -36.5l-30 -43q-26 20 -57 31t-74 11q-78 0 -118.5 -48t-50.5 -157h223v-48h-226q-1 -11 -1 -23.5v-25.5v-22t1 -22h226v-47h-224q5 -57 17.5 -97t34 -65t52.5 -36.5t74 -11.5q45 0 77 13t56 33l31 -42
q-31 -25 -71.5 -40.5t-94.5 -15.5q-109 0 -167.5 64t-72.5 198h-79v47h76q-1 10 -1 20v21v26.5t1 25.5h-76z" />
    <glyph glyph-name="minus.tf" 
d="M86 341h377v-56h-377v56z" />
    <glyph glyph-name="numbersign.lf" 
d="M72 434v50h104l31 203h51l-31 -203h136l31 203h51l-31 -203h92v-50h-99l-26 -174h96v-48h-103l-32 -212h-51l32 212h-136l-32 -212h-51l32 212h-93v48h100l26 174h-97zM220 434l-26 -174h136l26 174h-136z" />
    <glyph glyph-name="dollar.lf" 
d="M257 789h46v-94q44 -3 75.5 -15.5t59.5 -32.5l-26 -42q-24 17 -50.5 27.5t-59.5 13.5v-263q38 -16 68.5 -33.5t52.5 -40.5t33.5 -55t11.5 -77q0 -171 -165 -186v-106h-46v105q-57 3 -105.5 23t-81.5 48l29 42q32 -26 71.5 -43.5t87.5 -19.5v299q-36 15 -65 31t-49 37.5
t-30.5 50.5t-10.5 70q0 78 39.5 120t114.5 47v94zM302 42q55 7 79.5 38.5t24.5 94.5q0 30 -6.5 52t-20 38.5t-33 29.5t-44.5 25v-278zM258 646q-95 -10 -95 -116q0 -27 5.5 -46t17 -33.5t29.5 -26t43 -23.5v245z" />
    <glyph glyph-name="plus.lf" 
d="M246 287h-160v52h160v177h57v-177h160v-52h-160v-177h-57v177z" />
    <glyph glyph-name="zero.lf" 
d="M277 -9q-115 0 -169.5 86t-54.5 264q0 179 54 267t168 88t168 -86.5t54 -264.5q0 -179 -53.5 -266.5t-166.5 -87.5zM276 41q42 0 71 16.5t48 52.5t27.5 92.5t8.5 137.5q0 160 -36.5 232.5t-119.5 72.5q-42 0 -71.5 -17t-48.5 -53t-28 -93t-9 -138q0 -80 9 -137.5
t28.5 -94.5t49 -54t71.5 -17z" />
    <glyph glyph-name="one.lf" horiz-adv-x="342" 
d="M190 610l-142 -75l-19 33l175 124h48v-692h-62v610z" />
    <glyph glyph-name="two.lf" 
d="M88 56q93 95 151 161.5t90 117t43.5 89.5t11.5 78q0 71 -29 106.5t-93 35.5q-45 0 -78.5 -12t-68.5 -34l-24 44q43 27 83 40.5t91 13.5q88 0 136 -49.5t48 -143.5q0 -43 -14 -87.5t-48 -97t-89.5 -117t-139.5 -148.5h303v-53h-373v56z" />
    <glyph glyph-name="three.lf" 
d="M235 -10q-53 0 -96.5 10.5t-79.5 26.5l15 46q33 -12 72 -21t86 -9q82 0 121.5 37t39.5 117q0 43 -11.5 71.5t-32.5 45.5t-50.5 23.5t-65.5 6.5h-48v50h48q71 0 104 33t33 96q0 57 -30 89t-93 32q-42 0 -79.5 -11.5t-72.5 -31.5l-22 43q43 26 84 39t96 13q44 0 77.5 -13
t56.5 -35.5t35 -53t12 -64.5q0 -118 -103 -158q57 -15 92.5 -57.5t35.5 -118.5q0 -97 -56.5 -151.5t-167.5 -54.5z" />
    <glyph glyph-name="four.lf" 
d="M54 156v58l206 473h66l-209 -478h242v284l63 13v-297h79v-53h-79v-156h-63v156h-305z" />
    <glyph glyph-name="five.lf" 
d="M231 -9q-47 0 -88.5 9.5t-76.5 24.5l16 48q32 -12 68 -21t77 -9q90 0 131 48t41 131q0 87 -45.5 125.5t-122.5 38.5q-32 0 -63 -5t-60 -14l30 320h310v-53h-259l-19 -204q14 3 33.5 5t36.5 2q51 0 92 -14t70.5 -41t45.5 -66.5t16 -90.5q0 -53 -15.5 -96t-45 -74
t-73 -47.5t-99.5 -16.5z" />
    <glyph glyph-name="six.lf" 
d="M285 -10q-47 0 -87 18t-69.5 54t-46.5 89t-17 123q0 101 23.5 173.5t67.5 122.5t106.5 80t141.5 45l13 -48q-62 -14 -110.5 -34.5t-84 -53.5t-57.5 -81t-30 -117q28 26 66.5 46t91.5 20q39 0 74 -14t62 -41t42.5 -67t15.5 -92q0 -55 -15 -96.5t-42 -69.5t-64 -42.5
t-81 -14.5zM283 377q-49 0 -84.5 -18.5t-67.5 -45.5q-1 -11 -1 -21.5v-21.5q0 -121 41.5 -175.5t113.5 -54.5q69 0 103 45t34 126q0 82 -37.5 124t-101.5 42z" />
    <glyph glyph-name="seven.lf" 
d="M160 1q10 109 34.5 203t58 173t73 143t80.5 114h-330v53h389v-57q-47 -55 -87.5 -123t-72 -147.5t-52 -171t-27.5 -194.5z" />
    <glyph glyph-name="eight.lf" 
d="M277 -10q-99 0 -156.5 49t-57.5 136q0 37 10.5 66t30 51t46 39t59.5 31q-35 16 -58 36t-36.5 42t-19 45t-5.5 47q0 74 48 119t136 45q43 0 77.5 -12t58.5 -33.5t36.5 -51t12.5 -64.5q0 -54 -28.5 -96t-99.5 -76q44 -18 74 -38.5t48 -43.5t25.5 -50t7.5 -59
q0 -86 -57 -134t-152 -48zM253 338q-63 -28 -95 -64t-32 -98q0 -72 40.5 -104.5t110.5 -32.5q69 0 107.5 33.5t38.5 92.5q0 51 -23.5 85t-87.5 63zM153 535q0 -24 4.5 -43t16.5 -35.5t32 -30.5t52 -28l27 -12q34 16 55.5 33t34 35t17 37.5t4.5 42.5q0 54 -31.5 84t-91.5 30
q-58 0 -89 -30t-31 -83z" />
    <glyph glyph-name="nine.lf" 
d="M418 369q1 11 1 23v25q0 122 -41 175.5t-112 53.5q-68 0 -103.5 -45t-35.5 -126q0 -86 38.5 -127.5t103.5 -41.5q45 0 81.5 18t67.5 45zM413 320q-27 -26 -65.5 -45t-86.5 -19q-39 0 -75 14.5t-63.5 42.5t-44 68.5t-16.5 91.5q0 54 16 95.5t43.5 70t65 43t80.5 14.5
q47 0 86.5 -17t68.5 -52.5t45.5 -89t16.5 -125.5q0 -100 -24.5 -172t-70 -122t-110.5 -80t-146 -46l-13 48q62 15 112 36t87 53t61 78.5t33 112.5z" />
    <glyph glyph-name="less.lf" 
d="M141 302v24l236 196l30 -42l-197 -166l197 -166l-30 -43z" />
    <glyph glyph-name="equal.lf" 
d="M82 426h384v-52h-384v52zM82 254h384v-52h-384v52z" />
    <glyph glyph-name="greater.lf" 
d="M143 148l197 166l-197 166l30 42l236 -196v-24l-236 -197z" />
    <glyph glyph-name="cent.lf" 
d="M277 -8q-72 8 -117 66t-45 180q0 62 12 107t33 75t51 46t66 20v114h47v-113q39 -2 66.5 -16.5t52.5 -38.5l-34 -39q-19 20 -38.5 31t-47.5 13v-398q33 3 54.5 18t37.5 32l38 -36q-23 -26 -54 -42.5t-75 -19.5v-106h-47v107zM178 240q0 -101 24.5 -146t75.5 -53v395
q-25 -3 -43.5 -15t-31 -35.5t-19 -59t-6.5 -86.5z" />
    <glyph glyph-name="sterling.lf" 
d="M231 318q7 -29 12 -57t5 -57q0 -42 -16 -82t-59 -69h303v-53h-380v56q51 27 71.5 61.5t20.5 85.5q0 29 -6 57.5t-15 57.5h-89v52h73q-11 35 -19 72t-8 76q0 44 14 77t38 55.5t57.5 34t72.5 11.5q54 0 92.5 -15t80.5 -44l-26 -43q-17 12 -32.5 21t-32.5 15.5t-36 10
t-43 3.5q-57 0 -88.5 -31t-31.5 -92q0 -37 8.5 -75t19.5 -76h187v-52h-173v0z" />
    <glyph glyph-name="currency.lf" 
d="M52 97l75 85q-29 50 -29 126t28 126l-12 14q-5 6 -12 13.5t-14 15.5q-17 18 -37 43l39 36q19 -21 34 -39q6 -8 12.5 -15.5t11.5 -12.5q6 -7 11 -12q46 43 115 43q68 0 116 -43l69 79l39 -37l-74 -85q29 -49 29 -125q0 -77 -29 -127l76 -86l-39 -35l-71 79
q-47 -42 -114 -42q-69 0 -115 42l-70 -80zM276 148q57 0 86 36.5t29 122.5q0 87 -30 125t-86 38q-57 0 -86 -36.5t-29 -123.5t30 -124.5t86 -37.5z" />
    <glyph glyph-name="yen.lf" 
d="M56 363v48h133l-137 276h71l116 -245q14 -29 22 -50.5t15 -44.5q8 23 15 44.5t21 50.5l117 245h68l-137 -276h133v-48h-157l-30 -62v-37h187v-48h-187v-216h-63v216h-187v48h187v38l-30 61h-157z" />
    <glyph glyph-name="section.lf" 
d="M177 452q-26 19 -38.5 45.5t-12.5 66.5q0 28 9.5 52t29 42t49.5 28t70 10q48 0 82 -12t63 -31l-24 -45q-29 18 -55.5 28t-64.5 10q-55 0 -77.5 -21.5t-22.5 -58.5q0 -23 5.5 -38.5t19.5 -27t38 -21t61 -20.5q38 -12 69.5 -25t54.5 -32t36 -46t13 -67q0 -55 -28.5 -88.5
t-82.5 -49.5q29 -20 44.5 -48t15.5 -68q0 -69 -42.5 -105t-120.5 -36q-59 0 -101 18t-66 41l28 42q26 -23 57.5 -37.5t82.5 -14.5q53 0 77 22t24 68q0 23 -8 39t-25 29t-42.5 23.5t-61.5 22.5q-39 12 -69.5 26.5t-51.5 34t-32.5 46t-11.5 63.5q0 50 26.5 84.5t82.5 50.5z
M318 179q55 10 79.5 37.5t24.5 71.5q0 27 -8 44.5t-25 30t-42.5 21.5t-60.5 20q-16 5 -30 10t-26 10q-57 -9 -80.5 -37.5t-23.5 -70.5q0 -24 7.5 -40.5t23 -29.5t40 -23.5t58.5 -21.5q17 -5 33 -10.5t30 -11.5z" />
    <glyph glyph-name="logicalnot.lf" 
d="M366 323h-248v52h306v-192h-58v140z" />
    <glyph glyph-name="plusminus.lf" 
d="M246 281h-160v51h160v159h57v-159h160v-51h-160v-143h-57v143zM86 82h377v-52h-377v52z" />
    <glyph glyph-name="multiply.lf" 
d="M274 270l-122 -135l-38 38l125 137l-126 138l38 37l124 -136l122 135l39 -38l-125 -136l126 -139l-39 -37z" />
    <glyph glyph-name="divide.lf" 
d="M275 425q-21 0 -36 14.5t-15 36.5t15 36.5t36 14.5t35.5 -14.5t14.5 -36.5t-14.5 -36.5t-35.5 -14.5zM86 339h377v-52h-377v52zM275 99q-21 0 -36 14.5t-15 36.5t15 36.5t36 14.5t35.5 -14.5t14.5 -36.5t-14.5 -36.5t-35.5 -14.5z" />
    <glyph glyph-name="florin.lf" 
d="M144 433h82l13 130q8 73 41 103t84 30q29 0 51.5 -6.5t42.5 -20.5l-23 -45q-16 9 -31 15t-35 6q-32 0 -48.5 -18t-21.5 -64l-13 -130h112v-49h-117l-60 -588h-60l60 588h-77v49z" />
    <glyph glyph-name="Euro.lf" 
d="M31 392v48h80q15 131 72.5 193.5t160.5 62.5q53 0 92 -13.5t69 -36.5l-30 -43q-26 20 -57 31t-74 11q-78 0 -118.5 -48t-50.5 -157h223v-48h-226q-1 -11 -1 -23.5v-25.5v-22t1 -22h226v-47h-224q5 -57 17.5 -97t34 -65t52.5 -36.5t74 -11.5q45 0 77 13t56 33l31 -42
q-31 -25 -71.5 -40.5t-94.5 -15.5q-109 0 -167.5 64t-72.5 198h-79v47h76q-1 10 -1 20v21v26.5t1 25.5h-76z" />
    <glyph glyph-name="minus.lf" 
d="M86 341h377v-56h-377v56z" />
    <glyph glyph-name="numbersign.tosf" 
d="M72 408v52h105q5 34 9.5 66t8.5 56q4 28 8 53h51l-26 -175h136q5 34 9.5 66t8.5 56q4 28 8 53h51l-26 -175h91v-52h-99l-26 -171h96v-52h-104l-27 -185h-51l28 185h-137l-27 -185h-51l28 185h-93v52h100q4 24 8 52q4 24 8.5 54.5t9.5 64.5h-97zM220 408l-26 -171h136
q4 24 8 52q4 24 8.5 54.5t9.5 64.5h-136z" />
    <glyph glyph-name="dollar.tosf" 
d="M264 761h46v-117q43 -4 75 -16.5t59 -31.5l-27 -45q-23 17 -49.5 27.5t-58.5 13.5v-236q35 -14 65 -30t52 -38t34.5 -51.5t12.5 -71.5q0 -33 -8.5 -63t-28 -53t-50.5 -38.5t-76 -19.5v-106h-46v105q-60 3 -107 24t-81 54l33 41q32 -30 68.5 -48t87.5 -20v270
q-32 13 -60.5 28t-49.5 35.5t-33 48t-12 65.5q0 72 42 112t112 45v116zM309 43q55 7 79 37.5t24 81.5q0 27 -6.5 47t-19.5 35t-32.5 26.5t-44.5 22.5v-250zM265 593q-45 -4 -70 -29t-25 -73q0 -25 6 -42.5t18 -31t30 -23.5t41 -20v219z" />
    <glyph glyph-name="plus.tosf" 
d="M246 262h-160v51h160v178h58v-178h160v-51h-160v-177h-58v177z" />
    <glyph glyph-name="zero.tosf" 
d="M277 -9q-120 0 -178.5 82.5t-58.5 241.5q0 158 60.5 244t174.5 86q115 0 174.5 -84t59.5 -242q0 -161 -56.5 -244.5t-175.5 -83.5zM276 41q92 0 130 69t38 203q0 138 -39.5 209.5t-129.5 71.5t-129.5 -70.5t-39.5 -205.5q0 -136 39 -206.5t131 -70.5z" />
    <glyph glyph-name="one.tosf" 
d="M124 51h132v508l-127 -66l-19 33l160 115h48v-590h121v-51h-315v51z" />
    <glyph glyph-name="two.tosf" 
d="M88 56q96 84 154.5 143.5t90 105t41.5 82t10 74.5q0 69 -31.5 100.5t-90.5 31.5q-46 0 -79 -12t-68 -33l-24 43q42 27 82.5 40.5t91.5 13.5q38 0 71.5 -10.5t58.5 -33t39.5 -57t14.5 -82.5q0 -44 -13 -85.5t-45.5 -89t-89 -104.5t-143.5 -130h303v-53h-373v56z" />
    <glyph glyph-name="three.tosf" 
d="M250 -65q-53 0 -96.5 9.5t-78.5 26.5l15 47q32 -12 71.5 -21t86.5 -9q82 0 121 37t39 116q0 44 -11.5 72.5t-32.5 45.5t-50.5 24t-65.5 7h-48v50h48q72 0 104.5 34.5t32.5 97.5q0 57 -29.5 88.5t-92.5 31.5q-42 0 -79.5 -11.5t-72.5 -31.5l-22 44q42 25 83.5 38.5
t96.5 13.5q43 0 77 -13t56.5 -36t34.5 -53.5t12 -64.5q0 -121 -103 -159q58 -15 93.5 -59t35.5 -120q0 -96 -57 -150.5t-168 -54.5z" />
    <glyph glyph-name="four.tosf" 
d="M48 104v59l213 472h64l-217 -478h253v285l63 13v-298h78v-53h-78v-160h-63v160h-313z" />
    <glyph glyph-name="five.tosf" 
d="M237 -65q-48 0 -87 9.5t-74 24.5l16 48q32 -13 68 -21.5t78 -8.5q89 0 130 48t41 130q0 88 -45 126.5t-123 38.5q-32 0 -63.5 -5t-59.5 -14l30 324h310v-53h-259l-20 -209q14 4 33.5 6t36.5 2q51 0 92.5 -14t71 -41t45.5 -66.5t16 -90.5q0 -53 -15.5 -96.5t-46 -74
t-74.5 -47t-101 -16.5z" />
    <glyph glyph-name="six.tosf" 
d="M131 363q29 25 67.5 44.5t92.5 19.5q40 0 76 -14t63 -41t43 -67t16 -92q0 -55 -15.5 -96.5t-42.5 -69.5t-65 -42.5t-83 -14.5q-48 0 -88.5 18t-70 54t-46.5 89t-17 123q0 101 23 173.5t67 122.5t107 80t144 45l12 -48q-62 -14 -111 -34.5t-84 -53t-57 -80.5t-31 -116z
M127 313q-1 -11 -1 -21.5v-21.5q0 -121 42 -175.5t115 -54.5q69 0 105 45t36 126q0 82 -39 124t-104 42q-50 0 -86.5 -18t-67.5 -46z" />
    <glyph glyph-name="seven.tosf" 
d="M164 -55q10 114 34.5 210t57.5 174.5t72.5 141.5t80.5 111h-329v53h389v-57q-47 -55 -87.5 -122.5t-72 -147.5t-52.5 -172.5t-28 -197.5z" />
    <glyph glyph-name="eight.tosf" 
d="M209 362q-35 16 -58 36t-37 42t-20 45t-6 47q0 74 49 119t137 45q43 0 77.5 -12t58.5 -33.5t37 -51t13 -64.5q0 -53 -28.5 -95.5t-100.5 -76.5q44 -18 74 -38.5t48.5 -43.5t26.5 -50t8 -59q0 -43 -15.5 -76.5t-43 -57t-66.5 -36t-86 -12.5q-49 0 -89 12.5t-68 36.5
t-43.5 58.5t-15.5 77.5q0 37 11 66t30.5 51t46.5 39t60 31zM253 338q-63 -28 -96 -64t-33 -98q0 -72 41.5 -104.5t112.5 -32.5q68 0 107 33.5t39 92.5q0 51 -24 85t-88 63zM285 386q34 17 56 34t34.5 35t17.5 37.5t5 41.5q0 54 -32.5 84t-92.5 30q-58 0 -90 -30t-32 -83
q0 -24 5 -43t17 -35.5t32.5 -30.5t52.5 -28z" />
    <glyph glyph-name="nine.tosf" 
d="M418 270q-27 -26 -65.5 -44.5t-88.5 -18.5q-41 0 -78 14.5t-65 42t-44 68t-16 91.5q0 54 16 96t44 70.5t66 43t82 14.5q48 0 88.5 -17.5t69.5 -52.5t45.5 -88.5t16.5 -125.5q0 -100 -24 -172t-70 -122.5t-111.5 -80.5t-147.5 -46l-13 48q63 15 113.5 36t88 53t61 78.5
t32.5 112.5zM423 319q1 11 1 23v25q0 61 -11 104.5t-31.5 71.5t-49 41t-64.5 13q-69 0 -105.5 -45.5t-36.5 -126.5q0 -86 40 -127t106 -41q46 0 83 17.5t68 44.5z" />
    <glyph glyph-name="less.tosf" 
d="M154 276v25l205 196l36 -37l-179 -171l179 -172l-36 -37z" />
    <glyph glyph-name="equal.tosf" 
d="M83 401h384v-52h-384v52zM83 228h384v-52h-384v52z" />
    <glyph glyph-name="greater.tosf" 
d="M154 116l178 172l-178 172l35 37l206 -196v-25l-206 -196z" />
    <glyph glyph-name="cent.tosf" 
d="M268 600h47v-113q39 -2 67 -16.5t53 -38.5l-35 -39q-19 20 -38.5 31t-47.5 13v-397q33 3 54.5 17.5t38.5 31.5l37 -36q-23 -26 -53.5 -42.5t-75.5 -19.5v-106h-47v107q-72 8 -117 66t-45 180q0 62 12 107t33 75t51 46t66 20v114zM269 436q-24 -3 -43 -15t-31.5 -35.5
t-19 -59t-6.5 -86.5q0 -50 6 -86t18.5 -59.5t31 -36.5t44.5 -17v395z" />
    <glyph glyph-name="sterling.tosf" 
d="M226 292q7 -23 11.5 -47t4.5 -50q0 -42 -16 -78.5t-58 -63.5h304v-53h-380v56q47 25 69.5 57t22.5 81q0 27 -6 51t-14 47h-89v53h70q-10 28 -17 58t-7 65q0 45 14 78t39 55t57.5 33t70.5 11q54 0 92.5 -15t80.5 -44l-25 -43q-17 12 -33 21t-33 15.5t-36 10t-43 3.5
q-57 0 -88.5 -30.5t-31.5 -92.5q0 -34 7.5 -64.5t17.5 -60.5h191v-53h-175v0z" />
    <glyph glyph-name="currency.tosf" 
d="M52 97l75 85q-14 25 -22 56.5t-8 69.5q0 39 7.5 70.5t21.5 55.5l-12 14q-5 6 -12 13.5t-14 15.5q-17 18 -38 43l39 36q19 -21 35 -39q6 -8 12.5 -15.5t11.5 -12.5q6 -7 11 -12q46 43 114 43q70 0 116 -43q5 6 11 12q5 5 11 12t13 15q15 18 35 40l39 -37l-75 -85
q14 -24 22 -55.5t8 -69.5t-8 -70t-22 -57l76 -86l-39 -35l-70 79q-48 -42 -115 -42q-69 0 -115 42l-69 -80zM275 148q57 0 86 36.5t29 122.5q0 87 -29.5 125t-86.5 38t-85.5 -36.5t-28.5 -123.5t29.5 -124.5t85.5 -37.5z" />
    <glyph glyph-name="yen.tosf" 
d="M57 313v48h131l-136 274h71l115 -243q14 -30 22.5 -52.5t16.5 -45.5q7 23 14.5 45.5t21.5 51.5l117 244h68l-136 -274h132v-48h-156l-31 -62v-38h187v-47h-187v-166h-64v166h-186v47h186v38l-31 62h-155z" />
    <glyph glyph-name="section.tosf" 
d="M176 401q-26 20 -38.5 46.5t-12.5 65.5q0 28 9.5 52t29 42t49.5 28t70 10q48 0 82 -12t64 -32l-24 -44q-29 18 -56 28t-65 10q-54 0 -77 -21.5t-23 -58.5q0 -23 6 -38.5t20 -27t38.5 -21t60.5 -21.5q38 -12 69.5 -24.5t54.5 -31.5t36 -46t13 -67q0 -56 -28.5 -89.5
t-82.5 -49.5q29 -20 44 -47.5t15 -68.5q0 -68 -42 -104.5t-120 -36.5q-60 0 -102 18.5t-66 40.5l29 42q26 -22 57.5 -36.5t82.5 -14.5q101 0 101 89q0 23 -8 39.5t-25 29.5t-42.5 23.5t-61.5 21.5q-39 13 -69.5 27.5t-52 34t-33 46t-11.5 62.5q0 103 109 136zM318 128
q55 9 79 37t24 72q0 27 -8 44.5t-25 30t-42.5 21.5t-59.5 20q-16 5 -30 10t-27 10q-57 -10 -80.5 -38t-23.5 -71q0 -23 7.5 -40t23.5 -29.5t40.5 -23t58.5 -21.5q17 -5 33 -11t30 -11z" />
    <glyph glyph-name="logicalnot.tosf" 
d="M370 297h-248v52h305v-192h-57v140z" />
    <glyph glyph-name="plusminus.tosf" 
d="M247 281h-161v51h161v159h57v-159h160v-51h-160v-143h-57v143zM86 82h378v-52h-378v52z" />
    <glyph glyph-name="multiply.tosf" 
d="M114 146l125 138l-126 139l37 35l124 -135l123 135l38 -36l-126 -138l127 -139l-37 -35l-125 136l-123 -137z" />
    <glyph glyph-name="divide.tosf" 
d="M86 313h378v-51h-378v51zM275 400q-20 0 -35 14.5t-15 36.5t15 36.5t35 14.5q22 0 36.5 -14.5t14.5 -36.5t-14.5 -36.5t-36.5 -14.5zM275 73q-20 0 -35 15t-15 36q0 22 15 36.5t35 14.5q22 0 36.5 -14.5t14.5 -36.5q0 -21 -14.5 -36t-36.5 -15z" />
    <glyph glyph-name="florin.tosf" 
d="M118 384v49h82l13 130q8 73 41 103t84 30q55 0 94 -27l-22 -45q-16 9 -31 14.5t-35 5.5q-32 0 -49 -17.5t-22 -63.5l-13 -130h112v-49h-117l-60 -588h-60l60 588h-77z" />
    <glyph glyph-name="uni2007.tosf" 
 />
    <glyph glyph-name="Euro.tosf" 
d="M26 367v48h95q16 109 72 169.5t160 60.5q53 0 92 -13.5t68 -36.5l-30 -43q-25 20 -56.5 31t-73.5 11q-79 0 -118.5 -45t-50.5 -134h222v-48h-226q-1 -11 -1 -23.5v-25.5v-22t1 -22h226v-48h-223q11 -93 51 -138.5t126 -45.5q45 0 77.5 13t56.5 33l30 -42
q-31 -25 -71.5 -40.5t-93.5 -15.5q-109 0 -167 61t-73 175h-93v48h89q-1 10 -1 20v21q0 14 0.5 26.5t1.5 25.5h-90z" />
    <glyph glyph-name="minus.tosf" 
d="M86 313h378v-51h-378v51z" />
    <glyph glyph-name="germandbls.hist" horiz-adv-x="588" 
d="M150 0h-60v575q0 39 11 66.5t30 45.5t45 26.5t55 8.5q42 0 68 -8.5t52 -25.5l-24 -47q-21 13 -40 20.5t-51 7.5q-42 0 -64 -21t-22 -74v-574zM372 -10q-48 0 -88 15.5t-66 36.5l26 43q28 -20 59 -32.5t70 -12.5q54 0 77 22.5t23 61.5q0 22 -5.5 36.5t-18 26t-33 20
t-51.5 18.5q-27 8 -49.5 19t-39 27.5t-26 39.5t-9.5 55q0 25 8.5 47.5t26 39t44 26t62.5 9.5q44 0 74.5 -9.5t55.5 -23.5l-22 -47q-26 14 -50 21.5t-57 7.5q-41 0 -63 -17t-22 -53q0 -20 5 -33t15.5 -22.5t28 -17t42.5 -15.5q30 -10 56 -21t45 -27.5t30 -41.5t11 -62
q0 -70 -42 -103.5t-117 -33.5z" />
    <glyph glyph-name="percent.sc" horiz-adv-x="729" 
d="M546 -8q-60 0 -95.5 40t-35.5 109t35 109t94 40t95 -40t36 -111q0 -68 -34.5 -107.5t-94.5 -39.5zM185 260q-60 0 -95.5 40.5t-35.5 109.5t35.5 108.5t93.5 39.5q59 0 95 -40t36 -110q0 -69 -34.5 -108.5t-94.5 -39.5zM501 550h56l-329 -550h-56zM545 35q74 0 74 102
q0 58 -18.5 84t-56.5 26q-73 0 -73 -102q0 -59 18.5 -84.5t55.5 -25.5zM184 303q74 0 74 102q0 58 -18.5 84t-55.5 26q-74 0 -74 -102q0 -59 18.5 -84.5t55.5 -25.5z" />
    <glyph glyph-name="a.sc" horiz-adv-x="498" 
d="M106 0h-62l175 551h65l170 -551h-65l-49 164h-184zM278 371q-14 45 -18.5 74.5t-8.5 50.5h-1q-4 -23 -10.5 -51.5t-19.5 -73.5l-49 -158h154z" />
    <glyph glyph-name="b.sc" horiz-adv-x="487" 
d="M93 550h158q81 0 115 -40.5t34 -103.5q0 -43 -15 -71.5t-57 -43.5q43 -11 70.5 -43.5t27.5 -94.5q0 -81 -46 -117t-124 -36h-163v550zM250 50q62 0 86.5 26.5t24.5 79.5q0 54 -25.5 79.5t-86.5 25.5h-96v-211h97zM250 312q51 0 69.5 23t18.5 69t-19 71.5t-71 25.5h-96
v-189h98z" />
    <glyph glyph-name="c.sc" horiz-adv-x="478" 
d="M283 -10q-111 0 -160.5 71.5t-49.5 211.5t50 213.5t157 73.5q42 0 76 -11.5t58 -31.5l-28 -43q-22 17 -47.5 26t-57.5 9q-81 0 -111.5 -57.5t-30.5 -175.5q0 -60 7 -104t24 -73.5t45 -43.5t69 -14q36 0 62.5 12t46.5 29l29 -42q-25 -21 -59.5 -35.5t-79.5 -14.5z" />
    <glyph glyph-name="d.sc" horiz-adv-x="522" 
d="M93 550h135q57 0 99 -15t69 -48.5t40 -87t13 -130.5q0 -74 -12.5 -125t-39.5 -83t-68 -46.5t-98 -14.5h-138v550zM232 51q43 0 72.5 12t47 38t25 68.5t7.5 103.5q0 62 -7 105.5t-24.5 70.5t-47 39t-73.5 12h-78v-449h78z" />
    <glyph glyph-name="e.sc" horiz-adv-x="457" 
d="M96 550h285v-51h-224v-182h182v-50h-182v-215h238v-52h-299v550z" />
    <glyph glyph-name="f.sc" horiz-adv-x="436" 
d="M96 550h279v-51h-218v-181h177v-51h-177v-267h-61v550z" />
    <glyph glyph-name="g.sc" horiz-adv-x="526" 
d="M389 40q-22 -21 -52 -35.5t-66 -14.5q-198 0 -198 283q0 67 12 120t37.5 90t64.5 57t92 20q45 0 80 -12.5t65 -36.5l-32 -43q-27 22 -53 31t-59 9q-40 0 -67 -15t-43.5 -44.5t-23.5 -73t-7 -100.5q0 -119 30.5 -177t105.5 -58q33 0 59.5 11t46.5 31v156h-113v51h173v-289
h-42l-10 40v0z" />
    <glyph glyph-name="h.sc" horiz-adv-x="534" 
d="M96 550h61v-230h220v230h61v-550h-61v267h-220v-267h-61v550z" />
    <glyph glyph-name="i.sc" horiz-adv-x="322" 
d="M68 516v34h186v-34l-63 -7v-468l63 -7v-34h-186v34l62 7v468z" />
    <glyph glyph-name="j.sc" horiz-adv-x="258" 
d="M19 -83q22 12 37 23t25 25t14.5 34t4.5 51v500h61v-501q0 -39 -6.5 -65.5t-21.5 -46t-38 -34t-56 -27.5z" />
    <glyph glyph-name="k.sc" horiz-adv-x="474" 
d="M172 297l184 253h67l-186 -251l192 -299h-69zM96 550h61v-550h-61v550z" />
    <glyph glyph-name="l.sc" horiz-adv-x="427" 
d="M96 550h61v-498h210v-52h-271v550z" />
    <glyph glyph-name="m.sc" horiz-adv-x="626" 
d="M96 550h90l105 -311q10 -29 15.5 -53.5t7.5 -43.5h1q1 9 2 18.5t3 20.5t5.5 25t9.5 33l105 311h90v-550h-60v362q0 49 2 88t3 59h-2q-5 -20 -13.5 -55.5t-25.5 -84.5l-93 -264h-60l-92 261q-17 48 -23.5 81t-14.5 62h-2q1 -31 2.5 -70.5t1.5 -81.5v-357h-57v550z" />
    <glyph glyph-name="n.sc" horiz-adv-x="537" 
d="M96 550h65l180 -357q17 -35 28.5 -63.5t20.5 -54.5h1q-2 27 -4.5 60t-2.5 75v340h57v-550h-66l-173 344q-22 44 -33.5 74.5t-20.5 56.5h-2q3 -26 5 -64t2 -86v-325h-57v550z" />
    <glyph glyph-name="o.sc" horiz-adv-x="554" 
d="M278 -9q-205 0 -205 282q0 140 52.5 213t151.5 73t151.5 -72t52.5 -212q0 -284 -203 -284zM277 41q75 0 107 56.5t32 174.5q0 121 -33 179t-106 58t-106 -57t-33 -177t32 -177t107 -57z" />
    <glyph glyph-name="p.sc" horiz-adv-x="475" 
d="M96 550h148q170 0 170 -160q0 -81 -39.5 -124t-121.5 -43h-96v-223h-61v550zM248 274q52 0 77 26t25 87t-25 86.5t-82 25.5h-86v-225h91z" />
    <glyph glyph-name="q.sc" horiz-adv-x="545" 
d="M494 -44l-20 -54l-250 91q-33 12 -60.5 31t-47.5 51t-31.5 80t-11.5 118q0 140 52.5 213t151.5 73t151.5 -72t52.5 -212q0 -123 -35.5 -189t-116.5 -81zM277 41q75 0 107 56.5t32 174.5q0 121 -33 179t-106 58t-106 -57t-33 -177t32 -177t107 -57z" />
    <glyph glyph-name="r.sc" horiz-adv-x="501" 
d="M96 550h154q76 0 121 -35.5t45 -113.5q0 -63 -25.5 -97.5t-77.5 -48.5q22 -8 39 -27t32 -61l61 -167h-65l-58 162q-17 47 -38.5 63t-60.5 16h-66v-241h-61v550zM247 289q61 0 83.5 27.5t22.5 81.5q0 51 -24 76t-82 25h-90v-210h90z" />
    <glyph glyph-name="s.sc" horiz-adv-x="457" 
d="M218 -10q-52 0 -96 18.5t-72 44.5l29 42q29 -25 61 -39t74 -14q59 0 85 26.5t26 73.5q0 26 -7 43.5t-20.5 31t-34.5 23.5t-48 21q-31 13 -56 26t-42.5 31t-27 42.5t-9.5 59.5q0 69 41.5 104.5t108.5 35.5q46 0 77 -10.5t57 -27.5l-25 -46q-22 14 -48 23.5t-58 9.5
q-42 0 -68 -21t-26 -66q0 -44 23 -64.5t74 -40.5q33 -13 61 -27t48 -33t31 -46t11 -66q0 -32 -9 -60t-29.5 -49t-52.5 -33.5t-78 -12.5z" />
    <glyph glyph-name="t.sc" horiz-adv-x="451" 
d="M195 498h-138v52h337v-52h-138v-498h-61v498z" />
    <glyph glyph-name="u.sc" horiz-adv-x="534" 
d="M377 550h60v-550h-42l-13 52q-24 -24 -58.5 -43t-82.5 -19q-31 0 -58 9t-47 29.5t-31.5 52.5t-11.5 78v391h61v-386q0 -64 21.5 -92.5t71.5 -28.5q47 0 79.5 18.5t50.5 36.5v452z" />
    <glyph glyph-name="v.sc" horiz-adv-x="484" 
d="M46 550h65l104 -364q10 -34 16 -64t11 -53h1q5 23 11 53t16 65l107 363h61l-166 -550h-61z" />
    <glyph glyph-name="w.sc" horiz-adv-x="685" 
d="M48 550h63l72 -339q9 -45 14.5 -86.5t9.5 -67.5h1q5 29 10.5 68.5t15.5 84.5l79 340h66l76 -340q8 -38 14.5 -79.5t10.5 -73.5h1q4 31 9.5 71t14.5 85l71 337h61l-119 -550h-76l-74 340q-4 20 -8 41t-7 40.5t-5.5 36.5t-3.5 29h-1q-2 -24 -7.5 -65.5t-14.5 -80.5
l-79 -341h-75z" />
    <glyph glyph-name="x.sc" horiz-adv-x="480" 
d="M205 297l-138 253h68l106 -203l106 203h65l-137 -249l164 -301h-68l-131 253l-135 -253h-65z" />
    <glyph glyph-name="y.sc" horiz-adv-x="474" 
d="M205 214l-157 336h67l92 -207q11 -25 17.5 -42.5t11.5 -35.5q6 18 12.5 35.5t17.5 42.5l91 207h65l-156 -336v-214h-61v214z" />
    <glyph glyph-name="z.sc" horiz-adv-x="436" 
d="M57 46l250 452h-235v52h304v-48l-248 -450h247v-52h-318v46z" />
    <glyph glyph-name="exclamdown.sc" horiz-adv-x="252" 
d="M103 368h47l12 -491h-71zM126 456q-23 0 -37.5 15t-14.5 38q0 22 14.5 37t37.5 15q21 0 36 -15t15 -37q0 -23 -15 -38t-36 -15z" />
    <glyph glyph-name="degree.sc" horiz-adv-x="352" 
d="M176 260q-60 0 -96 39t-36 110t36 111t95 40q60 0 96 -39.5t36 -111.5q0 -70 -37 -109.5t-94 -39.5zM176 302q38 0 57 25t19 80q0 62 -19.5 86.5t-57.5 24.5t-58 -25t-20 -81q0 -61 20.5 -85.5t58.5 -24.5z" />
    <glyph glyph-name="ordmasculine.sc" horiz-adv-x="451" 
d="M232 124q-38 0 -69 12.5t-53.5 38.5t-35 67.5t-12.5 98.5q0 58 12 99.5t34.5 68t53 39t68.5 12.5q37 0 69 -12.5t54.5 -39t35.5 -68t13 -98.5t-12.5 -98.5t-35 -68t-53.5 -39t-69 -12.5zM232 170q55 0 81.5 37.5t26.5 132.5q0 96 -27 134.5t-82 38.5q-27 0 -47.5 -8.5
t-33.5 -28.5t-19.5 -52.5t-6.5 -81.5q0 -96 26.5 -134t81.5 -38z" />
    <glyph glyph-name="questiondown.sc" horiz-adv-x="424" 
d="M220 -132q-34 0 -62.5 8t-49 26t-32 46.5t-11.5 68.5q0 36 8 61.5t21.5 44t30.5 32.5l34 28q16 12 26.5 22.5t16.5 22.5t8.5 27t2.5 36v76h55v-81q0 -30 -5.5 -52t-15.5 -38t-23 -28t-29 -24q-14 -11 -26.5 -21.5t-22 -24.5t-15 -33t-5.5 -46q0 -54 22 -76t75 -22
q35 0 70 13t58 29l25 -44q-29 -21 -69.5 -36t-86.5 -15zM239 457q-21 0 -36 14.5t-15 37.5q0 22 15 36.5t36 14.5t36 -14.5t15 -36.5q0 -23 -15 -37.5t-36 -14.5z" />
    <glyph glyph-name="germandbls.sc" horiz-adv-x="908" 
d="M218 -10q-52 0 -96 18.5t-72 44.5l29 42q29 -25 61 -39t74 -14q59 0 85 26.5t26 73.5q0 26 -7 43.5t-20.5 31t-34.5 23.5t-48 21q-31 13 -56 26t-42.5 31t-27 42.5t-9.5 59.5q0 69 41.5 104.5t108.5 35.5q46 0 77 -10.5t57 -27.5l-25 -46q-22 14 -48 23.5t-58 9.5
q-42 0 -68 -21t-26 -66q0 -44 23 -64.5t74 -40.5q33 -13 61 -27t48 -33t31 -46t11 -66q0 -32 -9 -60t-29.5 -49t-52.5 -33.5t-78 -12.5zM670 -10q-52 0 -96 18.5t-72 44.5l29 42q29 -25 61 -39t74 -14q59 0 85 26.5t26 73.5q0 26 -7 43.5t-20.5 31t-34.5 23.5t-48 21
q-31 13 -56 26t-42.5 31t-27 42.5t-9.5 59.5q0 69 41.5 104.5t108.5 35.5q46 0 77 -10.5t57 -27.5l-25 -46q-22 14 -48 23.5t-58 9.5q-42 0 -68 -21t-26 -66q0 -44 23 -64.5t74 -40.5q33 -13 60.5 -27t47.5 -33t31 -46t11 -66q0 -32 -9 -60t-29 -49t-52 -33.5t-78 -12.5z
" />
    <glyph glyph-name="agrave.sc" horiz-adv-x="498" 
d="M106 0h-62l175 551h65l170 -551h-65l-49 164h-184zM278 371q-14 45 -18.5 74.5t-8.5 50.5h-1q-4 -23 -10.5 -51.5t-19.5 -73.5l-49 -158h154zM133 679l33 55l166 -118l-22 -35z" />
    <glyph glyph-name="aacute.sc" horiz-adv-x="498" 
d="M106 0h-62l175 551h65l170 -551h-65l-49 164h-184zM278 371q-14 45 -18.5 74.5t-8.5 50.5h-1q-4 -23 -10.5 -51.5t-19.5 -73.5l-49 -158h154zM168 616l166 118l33 -55l-176 -98z" />
    <glyph glyph-name="acircumflex.sc" horiz-adv-x="498" 
d="M106 0h-62l175 551h65l170 -551h-65l-49 164h-184zM278 371q-14 45 -18.5 74.5t-8.5 50.5h-1q-4 -23 -10.5 -51.5t-19.5 -73.5l-49 -158h154zM117 615l112 117h39l113 -117l-25 -30l-108 87l-106 -87z" />
    <glyph glyph-name="atilde.sc" horiz-adv-x="498" 
d="M106 0h-62l175 551h65l170 -551h-65l-49 164h-184zM278 371q-14 45 -18.5 74.5t-8.5 50.5h-1q-4 -23 -10.5 -51.5t-19.5 -73.5l-49 -158h154zM107 618q32 73 87 73q16 0 30.5 -6t27.5 -12.5t25.5 -12.5t26.5 -6q18 0 27.5 11.5t20.5 28.5l35 -22q-32 -72 -86 -72
q-17 0 -31.5 5.5t-27.5 12.5t-26 12.5t-26 5.5q-18 0 -27.5 -11.5t-20.5 -28.5z" />
    <glyph glyph-name="adieresis.sc" horiz-adv-x="498" 
d="M106 0h-62l175 551h65l170 -551h-65l-49 164h-184zM278 371q-14 45 -18.5 74.5t-8.5 50.5h-1q-4 -23 -10.5 -51.5t-19.5 -73.5l-49 -158h154zM167 592q-19 0 -32 12.5t-13 32.5t12.5 32.5t31.5 12.5t32 -12.5t13 -32.5t-12.5 -32.5t-31.5 -12.5zM338 592q-19 0 -32 12.5
t-13 32.5t12.5 32.5t31.5 12.5t32 -12.5t13 -32.5t-12.5 -32.5t-31.5 -12.5z" />
    <glyph glyph-name="aring.sc" horiz-adv-x="498" 
d="M106 0h-62l175 551h65l170 -551h-65l-49 164h-184zM278 371q-14 45 -18.5 74.5t-8.5 50.5h-1q-4 -23 -10.5 -51.5t-19.5 -73.5l-49 -158h154zM250 583q-41 0 -64 28.5t-23 64.5t23 64.5t64 28.5q21 0 37 -8t27.5 -20.5t17.5 -29.5t6 -35t-6 -35t-17.5 -29.5t-27.5 -20.5
t-37 -8zM250 620q20 0 32.5 13.5t12.5 42.5t-12.5 42.5t-32.5 13.5t-32 -13.5t-12 -42.5t12 -42.5t32 -13.5z" />
    <glyph glyph-name="ae.sc" horiz-adv-x="728" 
d="M104 0h-65l302 550h311v-51h-225v-182h182v-50h-182v-215h239v-52h-300v161h-175zM366 372q0 15 0.5 37.5t1.5 44.5t1.5 37.5t0.5 17.5h-1q-6 -16 -21.5 -50t-38.5 -77l-92 -172h149v162z" />
    <glyph glyph-name="ccedilla.sc" horiz-adv-x="478" 
d="M235 -6q-85 16 -123.5 86t-38.5 193q0 140 50 213.5t157 73.5q42 0 76 -11.5t58 -31.5l-28 -43q-22 17 -47.5 26t-57.5 9q-81 0 -111.5 -57.5t-30.5 -175.5q0 -60 7 -104t24 -73.5t45 -43.5t69 -14q36 0 62.5 12t46.5 29l29 -42q-25 -21 -59.5 -35.5t-79.5 -14.5h-6
l-19 -43q35 -2 52.5 -22t17.5 -53t-21 -55t-66 -22q-21 0 -40.5 7.5t-33.5 18.5l20 33q14 -8 25.5 -12.5t28.5 -4.5q40 0 40 37q0 39 -40 39q-12 0 -21 -1.5t-18 -3.5l33 86v0z" />
    <glyph glyph-name="egrave.sc" horiz-adv-x="457" 
d="M96 550h285v-51h-224v-182h182v-50h-182v-215h238v-52h-299v550zM121 679l33 55l166 -118l-22 -35z" />
    <glyph glyph-name="eacute.sc" horiz-adv-x="457" 
d="M96 550h285v-51h-224v-182h182v-50h-182v-215h238v-52h-299v550zM153 616l166 118l33 -55l-176 -98z" />
    <glyph glyph-name="ecircumflex.sc" horiz-adv-x="457" 
d="M96 550h285v-51h-224v-182h182v-50h-182v-215h238v-52h-299v550zM105 615l112 117h39l113 -117l-25 -30l-108 87l-106 -87z" />
    <glyph glyph-name="edieresis.sc" horiz-adv-x="457" 
d="M96 550h285v-51h-224v-182h182v-50h-182v-215h238v-52h-299v550zM155 592q-19 0 -32 12.5t-13 32.5t12.5 32.5t31.5 12.5t32 -12.5t13 -32.5t-12.5 -32.5t-31.5 -12.5zM326 592q-19 0 -32 12.5t-13 32.5t12.5 32.5t31.5 12.5t32 -12.5t13 -32.5t-12.5 -32.5t-31.5 -12.5z
" />
    <glyph glyph-name="igrave.sc" horiz-adv-x="322" 
d="M68 516v34h186v-34l-63 -7v-468l63 -7v-34h-186v34l62 7v468zM39 679l33 55l166 -118l-22 -35z" />
    <glyph glyph-name="iacute.sc" horiz-adv-x="322" 
d="M68 516v34h186v-34l-63 -7v-468l63 -7v-34h-186v34l62 7v468zM81 616l166 118l33 -55l-176 -98z" />
    <glyph glyph-name="icircumflex.sc" horiz-adv-x="322" 
d="M68 516v34h186v-34l-63 -7v-468l63 -7v-34h-186v34l62 7v468zM29 615l112 117h39l113 -117l-25 -30l-108 87l-106 -87z" />
    <glyph glyph-name="idieresis.sc" horiz-adv-x="322" 
d="M68 516v34h186v-34l-63 -7v-468l63 -7v-34h-186v34l62 7v468zM75 592q-19 0 -32 12.5t-13 32.5t12.5 32.5t31.5 12.5t32 -12.5t13 -32.5t-12.5 -32.5t-31.5 -12.5zM246 592q-19 0 -32 12.5t-13 32.5t12.5 32.5t31.5 12.5t32 -12.5t13 -32.5t-12.5 -32.5t-31.5 -12.5z" />
    <glyph glyph-name="eth.sc" horiz-adv-x="505" 
d="M29 248v51h57v251h134q57 0 98.5 -15t68.5 -48.5t39.5 -87t12.5 -130.5q0 -74 -12.5 -125t-39 -83t-67 -46.5t-97.5 -14.5h-137v248h-57zM259 299v-51h-112v-197h77q43 0 72 12t46 38t24 68.5t7 103.5q0 62 -7 105.5t-24 70.5t-45.5 39t-72.5 12h-77v-201h112z" />
    <glyph glyph-name="ntilde.sc" horiz-adv-x="537" 
d="M96 550h65l180 -357q17 -35 28.5 -63.5t20.5 -54.5h1q-2 27 -4.5 60t-2.5 75v340h57v-550h-66l-173 344q-22 44 -33.5 74.5t-20.5 56.5h-2q3 -26 5 -64t2 -86v-325h-57v550zM122 618q32 73 87 73q16 0 30.5 -6t27.5 -12.5t25.5 -12.5t26.5 -6q18 0 27.5 11.5t20.5 28.5
l35 -22q-32 -72 -86 -72q-17 0 -31.5 5.5t-27.5 12.5t-26 12.5t-26 5.5q-18 0 -27.5 -11.5t-20.5 -28.5z" />
    <glyph glyph-name="ograve.sc" horiz-adv-x="554" 
d="M278 -9q-205 0 -205 282q0 140 52.5 213t151.5 73t151.5 -72t52.5 -212q0 -284 -203 -284zM277 41q75 0 107 56.5t32 174.5q0 121 -33 179t-106 58t-106 -57t-33 -177t32 -177t107 -57zM165 679l33 55l166 -118l-22 -35z" />
    <glyph glyph-name="oacute.sc" horiz-adv-x="554" 
d="M278 -9q-205 0 -205 282q0 140 52.5 213t151.5 73t151.5 -72t52.5 -212q0 -284 -203 -284zM277 41q75 0 107 56.5t32 174.5q0 121 -33 179t-106 58t-106 -57t-33 -177t32 -177t107 -57zM190 616l166 118l33 -55l-176 -98z" />
    <glyph glyph-name="ocircumflex.sc" horiz-adv-x="554" 
d="M278 -9q-205 0 -205 282q0 140 52.5 213t151.5 73t151.5 -72t52.5 -212q0 -284 -203 -284zM277 41q75 0 107 56.5t32 174.5q0 121 -33 179t-106 58t-106 -57t-33 -177t32 -177t107 -57zM144 615l112 117h39l113 -117l-25 -30l-108 87l-106 -87z" />
    <glyph glyph-name="otilde.sc" horiz-adv-x="554" 
d="M278 -9q-205 0 -205 282q0 140 52.5 213t151.5 73t151.5 -72t52.5 -212q0 -284 -203 -284zM277 41q75 0 107 56.5t32 174.5q0 121 -33 179t-106 58t-106 -57t-33 -177t32 -177t107 -57zM134 618q32 73 87 73q16 0 30.5 -6t27.5 -12.5t25.5 -12.5t26.5 -6q18 0 27.5 11.5
t20.5 28.5l35 -22q-32 -72 -86 -72q-17 0 -31.5 5.5t-27.5 12.5t-26 12.5t-26 5.5q-18 0 -27.5 -11.5t-20.5 -28.5z" />
    <glyph glyph-name="odieresis.sc" horiz-adv-x="554" 
d="M278 -9q-205 0 -205 282q0 140 52.5 213t151.5 73t151.5 -72t52.5 -212q0 -284 -203 -284zM277 41q75 0 107 56.5t32 174.5q0 121 -33 179t-106 58t-106 -57t-33 -177t32 -177t107 -57zM190 592q-19 0 -32 12.5t-13 32.5t12.5 32.5t31.5 12.5t32 -12.5t13 -32.5
t-12.5 -32.5t-31.5 -12.5zM361 592q-19 0 -32 12.5t-13 32.5t12.5 32.5t31.5 12.5t32 -12.5t13 -32.5t-12.5 -32.5t-31.5 -12.5z" />
    <glyph glyph-name="oslash.sc" horiz-adv-x="554" 
d="M431 482q50 -73 50 -207q0 -284 -203 -284q-74 0 -120 36q-9 -14 -17.5 -29.5t-16.5 -27.5q-9 -15 -17 -28l-40 24l57 95q-51 70 -51 212q0 140 52.5 213t151.5 73q73 0 122 -41l47 79l40 -25q-15 -26 -27 -45q-5 -9 -10 -17t-9 -14q-4 -7 -9 -14zM370 470q-33 39 -93 39
q-73 0 -106 -57t-33 -177q0 -99 21 -156zM396 423q-59 -98 -105 -175q-20 -33 -38.5 -64t-33.5 -56q-18 -29 -33 -54q33 -33 91 -33q75 0 107 56.5t32 174.5q0 98 -20 151z" />
    <glyph glyph-name="ugrave.sc" horiz-adv-x="534" 
d="M377 550h60v-550h-42l-13 52q-24 -24 -58.5 -43t-82.5 -19q-31 0 -58 9t-47 29.5t-31.5 52.5t-11.5 78v391h61v-386q0 -64 21.5 -92.5t71.5 -28.5q47 0 79.5 18.5t50.5 36.5v452zM134 679l33 55l166 -118l-22 -35z" />
    <glyph glyph-name="uacute.sc" horiz-adv-x="534" 
d="M377 550h60v-550h-42l-13 52q-24 -24 -58.5 -43t-82.5 -19q-31 0 -58 9t-47 29.5t-31.5 52.5t-11.5 78v391h61v-386q0 -64 21.5 -92.5t71.5 -28.5q47 0 79.5 18.5t50.5 36.5v452zM201 616l166 118l33 -55l-176 -98z" />
    <glyph glyph-name="ucircumflex.sc" horiz-adv-x="534" 
d="M377 550h60v-550h-42l-13 52q-24 -24 -58.5 -43t-82.5 -19q-31 0 -58 9t-47 29.5t-31.5 52.5t-11.5 78v391h61v-386q0 -64 21.5 -92.5t71.5 -28.5q47 0 79.5 18.5t50.5 36.5v452zM131 615l112 117h39l113 -117l-25 -30l-108 87l-106 -87z" />
    <glyph glyph-name="udieresis.sc" horiz-adv-x="534" 
d="M377 550h60v-550h-42l-13 52q-24 -24 -58.5 -43t-82.5 -19q-31 0 -58 9t-47 29.5t-31.5 52.5t-11.5 78v391h61v-386q0 -64 21.5 -92.5t71.5 -28.5q47 0 79.5 18.5t50.5 36.5v452zM176 592q-19 0 -32 12.5t-13 32.5t12.5 32.5t31.5 12.5t32 -12.5t13 -32.5t-12.5 -32.5
t-31.5 -12.5zM347 592q-19 0 -32 12.5t-13 32.5t12.5 32.5t31.5 12.5t32 -12.5t13 -32.5t-12.5 -32.5t-31.5 -12.5z" />
    <glyph glyph-name="yacute.sc" horiz-adv-x="474" 
d="M205 214l-157 336h67l92 -207q11 -25 17.5 -42.5t11.5 -35.5q6 18 12.5 35.5t17.5 42.5l91 207h65l-156 -336v-214h-61v214zM177 616l166 118l33 -55l-176 -98z" />
    <glyph glyph-name="thorn.sc" horiz-adv-x="462" 
d="M88 550h61v-90h87q170 0 170 -160q0 -81 -39.5 -124t-120.5 -43h-97v-133h-61v550zM241 184q51 0 76.5 26t25.5 87t-25 86.5t-82 25.5h-87v-225h92z" />
    <glyph glyph-name="ydieresis.sc" horiz-adv-x="474" 
d="M205 214l-157 336h67l92 -207q11 -25 17.5 -42.5t11.5 -35.5q6 18 12.5 35.5t17.5 42.5l91 207h65l-156 -336v-214h-61v214zM317 592q-19 0 -32 12.5t-13 32.5t12.5 32.5t31.5 12.5t32 -12.5t13 -32.5t-12.5 -32.5t-31.5 -12.5zM146 592q-19 0 -32 12.5t-13 32.5
t12.5 32.5t31.5 12.5t32 -12.5t13 -32.5t-12.5 -32.5t-31.5 -12.5z" />
    <glyph glyph-name="dotlessi.sc" horiz-adv-x="322" 
d="M68 516v34h186v-34l-63 -7v-468l63 -7v-34h-186v34l62 7v468z" />
    <glyph glyph-name="lslash.sc" horiz-adv-x="407" 
d="M150 52h205v-52h-266v219l-58 -20v50l58 21v280h61v-258l123 44v-51l-123 -44v-189z" />
    <glyph glyph-name="oe.sc" horiz-adv-x="730" 
d="M294 0q-57 0 -99 15t-69 48.5t-40 87t-13 130.5q0 73 12.5 124.5t39.5 83.5t68 46.5t98 14.5h363v-51h-225v-182h182v-50h-182v-215h239v-52h-374zM368 50v449h-78q-44 0 -73 -12t-46.5 -38t-25 -68.5t-7.5 -103.5q0 -62 7 -105.5t24.5 -70.5t47 -39t73.5 -12h78z" />
    <glyph glyph-name="scaron.sc" horiz-adv-x="457" 
d="M218 -10q-52 0 -96 18.5t-72 44.5l29 42q29 -25 61 -39t74 -14q59 0 85 26.5t26 73.5q0 26 -7 43.5t-20.5 31t-34.5 23.5t-48 21q-31 13 -56 26t-42.5 31t-27 42.5t-9.5 59.5q0 69 41.5 104.5t108.5 35.5q46 0 77 -10.5t57 -27.5l-25 -46q-22 14 -48 23.5t-58 9.5
q-42 0 -68 -21t-26 -66q0 -44 23 -64.5t74 -40.5q33 -13 61 -27t48 -33t31 -46t11 -66q0 -32 -9 -60t-29.5 -49t-52.5 -33.5t-78 -12.5zM81 706l25 30l107 -88l107 88l25 -30l-113 -118h-38z" />
    <glyph glyph-name="zcaron.sc" horiz-adv-x="436" 
d="M57 46l250 452h-235v52h304v-48l-248 -450h247v-52h-318v46zM83 706l25 30l107 -88l107 88l25 -30l-113 -118h-38z" />
    <glyph glyph-name="longs.sc" horiz-adv-x="457" 
d="M218 -10q-52 0 -96 18.5t-72 44.5l29 42q29 -25 61 -39t74 -14q59 0 85 26.5t26 73.5q0 26 -7 43.5t-20.5 31t-34.5 23.5t-48 21q-31 13 -56 26t-42.5 31t-27 42.5t-9.5 59.5q0 69 41.5 104.5t108.5 35.5q46 0 77 -10.5t57 -27.5l-25 -46q-22 14 -48 23.5t-58 9.5
q-42 0 -68 -21t-26 -66q0 -44 23 -64.5t74 -40.5q33 -13 61 -27t48 -33t31 -46t11 -66q0 -32 -9 -60t-29.5 -49t-52.5 -33.5t-78 -12.5z" />
    <glyph glyph-name="perthousand.sc" horiz-adv-x="1042" 
d="M546 -8q-60 0 -95.5 40t-35.5 109t35 109t94 40t95 -40t36 -111q0 -68 -34.5 -107.5t-94.5 -39.5zM859 -8q-60 0 -95.5 40t-35.5 109t35 109t93 40q59 0 95.5 -40t36.5 -111q0 -68 -34.5 -107.5t-94.5 -39.5zM185 260q-60 0 -95.5 40.5t-35.5 109.5t35.5 108.5t93.5 39.5
q59 0 95 -40t36 -110q0 -69 -34.5 -108.5t-94.5 -39.5zM501 550h56l-329 -550h-56zM545 35q74 0 74 102q0 58 -18.5 84t-56.5 26q-73 0 -73 -102q0 -59 18.5 -84.5t55.5 -25.5zM858 35q74 0 74 102q0 58 -18.5 84t-56.5 26q-73 0 -73 -102q0 -59 18.5 -84.5t55.5 -25.5z
M184 303q74 0 74 102q0 58 -18.5 84t-55.5 26q-74 0 -74 -102q0 -59 18.5 -84.5t55.5 -25.5z" />
    <glyph glyph-name="fraction.sc" horiz-adv-x="231" 
d="M251 550h57l-329 -550h-57z" />
    <glyph glyph-name="fi.sc" horiz-adv-x="753" 
d="M96 550h279v-51h-218v-181h177v-51h-177v-267h-61v550zM499 516v34h186v-34l-63 -7v-468l63 -7v-34h-186v34l62 7v468z" />
    <glyph glyph-name="fl.sc" horiz-adv-x="858" 
d="M96 550h279v-51h-218v-181h177v-51h-177v-267h-61v550zM528 550h61v-498h209v-52h-270v550z" />
    <glyph glyph-name="i.latn_TRK.sc" horiz-adv-x="322" 
d="M68 516v34h186v-34l-63 -7v-468l63 -7v-34h-186v34l62 7v468zM161 631q-18 0 -31 12.5t-13 32.5t12.5 32.5t31.5 12.5t32 -12.5t13 -32.5t-13 -32.5t-32 -12.5z" />
    <glyph glyph-name="numbersign.osf.sc" horiz-adv-x="492" 
d="M70 351v48h89l23 151h48l-23 -151h113l23 151h48l-23 -151h78v-48h-85l-21 -143h81v-49h-88l-24 -159h-48l24 159h-113l-24 -159h-48l24 159h-78v49h85l21 143h-82zM200 351l-21 -143h113l21 143h-113z" />
    <glyph glyph-name="dollar.osf.sc" horiz-adv-x="456" 
d="M207 660h47v-102q38 -4 67.5 -15t53.5 -27l-26 -44q-20 14 -44 23.5t-53 12.5v-196q31 -12 58 -25.5t47 -33t31.5 -45.5t11.5 -63q0 -29 -8 -55t-26 -46t-45.5 -33.5t-66.5 -17.5v-94h-47v94q-51 3 -93.5 20.5t-71.5 45.5l30 40q28 -25 61 -40t76 -17v224
q-29 12 -53.5 24.5t-43.5 30.5t-29.5 42t-10.5 58q0 62 37.5 97t97.5 40v102zM252 44q46 6 67 31t21 67q0 45 -22.5 67t-65.5 40v-205zM209 508q-37 -5 -58.5 -26t-21.5 -59q0 -39 21 -59t59 -36v180z" />
    <glyph glyph-name="plus.osf.sc" horiz-adv-x="532" 
d="M237 262h-160v51h160v178h58v-178h160v-51h-160v-177h-58v177z" />
    <glyph glyph-name="zero.osf.sc" horiz-adv-x="534" 
d="M269 -10q-103 0 -152.5 72t-49.5 211q0 138 51.5 212.5t148.5 74.5q99 0 149.5 -73.5t50.5 -210.5q0 -141 -48 -213.5t-150 -72.5zM268 40q75 0 104.5 58t29.5 174q0 117 -30.5 177.5t-104.5 60.5t-104.5 -59.5t-30.5 -175.5q0 -118 30.5 -176.5t105.5 -58.5z" />
    <glyph glyph-name="one.osf.sc" horiz-adv-x="413" 
d="M77 49h113v426l-109 -53l-18 34l142 99h46v-506h104v-49h-278v49z" />
    <glyph glyph-name="two.osf.sc" horiz-adv-x="438" 
d="M52 55q82 70 131 120.5t75.5 89t35 69.5t8.5 63q0 59 -25.5 85t-75.5 26q-39 0 -66.5 -10.5t-58.5 -29.5l-23 44q37 23 72 35t80 12q34 0 63.5 -9.5t51.5 -29t34 -50t12 -72.5q0 -38 -10.5 -73.5t-38 -76t-75 -88.5t-122.5 -109h256v-51h-324v55z" />
    <glyph glyph-name="three.osf.sc" horiz-adv-x="459" 
d="M194 -77q-46 0 -84 8.5t-69 22.5l15 46q28 -10 62 -17.5t73 -7.5q69 0 102 32t33 104q0 39 -9.5 64t-27 39.5t-42.5 20t-56 5.5h-42v49h42q61 0 88.5 28.5t27.5 85.5q0 104 -103 104q-37 0 -68.5 -9.5t-62.5 -26.5l-20 43q37 21 73 33t85 12q77 0 117.5 -41.5
t40.5 -107.5q0 -56 -21.5 -90t-66.5 -51q51 -14 80.5 -52.5t29.5 -107.5q0 -90 -49.5 -138t-147.5 -48z" />
    <glyph glyph-name="four.osf.sc" horiz-adv-x="511" 
d="M54 89v57l186 404h62l-187 -410h217v243l61 12v-255h67v-51h-67v-158h-61v158h-278z" />
    <glyph glyph-name="five.osf.sc" horiz-adv-x="459" 
d="M187 -77q-42 0 -77 7.5t-64 21.5l17 47q28 -11 58 -18t65 -7q76 0 111 41t35 116q0 77 -39 111.5t-107 34.5q-28 0 -53.5 -4.5t-50.5 -12.5l28 290h271v-52h-221l-18 -178q11 3 28 4.5t31 1.5q90 0 143 -49.5t53 -142.5q0 -98 -54 -154.5t-156 -56.5z" />
    <glyph glyph-name="six.osf.sc" horiz-adv-x="526" 
d="M140 329q25 23 59 39.5t80 16.5q35 0 67.5 -12.5t57 -37t39 -60.5t14.5 -83q0 -49 -14 -86.5t-39 -62.5t-59 -38t-74 -13q-43 0 -80 16t-64 48t-42.5 79.5t-15.5 110.5q0 88 22.5 154.5t64.5 113.5t101 76t133 43l12 -47q-56 -13 -101 -32.5t-78 -49.5t-53.5 -73
t-29.5 -102zM135 281q-1 -10 -1 -19.5v-20.5q0 -106 37 -153.5t100 -47.5q58 0 90 39.5t32 111.5t-34 108.5t-91 36.5q-42 0 -73.5 -16t-59.5 -39z" />
    <glyph glyph-name="seven.osf.sc" horiz-adv-x="453" 
d="M125 -68q9 100 30 185.5t50 156.5t63 127t69 97h-286v52h345v-57q-39 -45 -74 -105t-63 -132t-46.5 -155.5t-24.5 -175.5z" />
    <glyph glyph-name="eight.osf.sc" horiz-adv-x="509" 
d="M193 325q-59 29 -82 68t-23 83q0 70 44.5 111t121.5 41t121.5 -41.5t44.5 -107.5q0 -48 -26 -84.5t-86 -65.5q72 -30 103.5 -71t31.5 -100q0 -81 -51.5 -123.5t-136.5 -42.5q-87 0 -138.5 45t-51.5 123q0 67 35.5 104.5t92.5 60.5zM235 304q-52 -25 -80.5 -56.5
t-28.5 -85.5q0 -66 35 -95t95 -29q58 0 91.5 30t33.5 82q0 47 -21 78.5t-76 54.5zM263 351q55 28 75.5 57.5t20.5 69.5q0 50 -28 76.5t-78 26.5q-49 0 -76 -27t-27 -76q0 -41 18.5 -68.5t71.5 -49.5z" />
    <glyph glyph-name="nine.osf.sc" horiz-adv-x="523" 
d="M386 231q-25 -23 -59.5 -41.5t-80.5 -18.5q-36 0 -68.5 12.5t-57 37t-39 60t-14.5 81.5q0 49 14.5 86t39.5 61.5t59 37t74 12.5q43 0 79.5 -15.5t63.5 -47t42.5 -79t15.5 -111.5q0 -86 -21.5 -151.5t-62.5 -113t-100.5 -77.5t-134.5 -45l-13 48q57 13 102.5 33.5t78.5 52
t53.5 75.5t28.5 103zM390 278q1 8 1 16.5v16.5q0 53 -10 91t-28 62t-43.5 35t-56.5 11q-60 0 -91 -37.5t-31 -109.5q0 -73 33 -108t90 -35q43 0 76 17.5t60 40.5z" />
    <glyph glyph-name="less.osf.sc" horiz-adv-x="349" 
d="M57 276v25l205 196l36 -37l-179 -171l179 -172l-36 -37z" />
    <glyph glyph-name="equal.osf.sc" horiz-adv-x="541" 
d="M78 401h384v-52h-384v52zM78 228h384v-52h-384v52z" />
    <glyph glyph-name="greater.osf.sc" horiz-adv-x="350" 
d="M51 116l178 172l-178 172l35 37l206 -196v-25l-206 -196z" />
    <glyph glyph-name="cent.osf.sc" horiz-adv-x="402" 
d="M202 523h46v-99q33 -2 57.5 -14.5t46.5 -32.5l-33 -38q-16 16 -32.5 25t-39.5 11v-335q27 3 45 15t32 26l35 -36q-21 -21 -47.5 -35t-63.5 -17v-94h-46v95q-32 4 -58 18t-45 39.5t-29 64.5t-10 92q0 54 10.5 92.5t29 64.5t44.5 40t58 18v100zM203 374q-20 -3 -35 -13
t-26 -29.5t-16.5 -49.5t-5.5 -73q0 -85 20.5 -122.5t62.5 -45.5v333z" />
    <glyph glyph-name="sterling.osf.sc" horiz-adv-x="463" 
d="M197 250q5 -18 8 -37t3 -40q0 -35 -13 -66.5t-48 -55.5h261v-51h-335v55q41 21 59 49t18 68q0 21 -4 40t-10 38h-76v49h59q-8 24 -13.5 49.5t-5.5 56.5q0 39 12 67.5t33.5 48t50.5 29t62 9.5q47 0 82 -13t70 -38l-25 -43q-29 20 -55.5 31.5t-67.5 11.5q-48 0 -74 -25.5
t-26 -76.5q0 -29 6 -55t14 -52h163v-49h-148v0z" />
    <glyph glyph-name="currency.osf.sc" horiz-adv-x="515" 
d="M38 71l74 80q-28 51 -28 122q0 73 28 121q-6 6 -12 13q-5 6 -12 13t-14 15q-17 18 -37 41l39 35l69 -74q47 42 111 42q35 0 62.5 -10.5t50.5 -31.5q6 5 11 11q8 9 23 26q15 16 34 37l40 -36l-74 -81q29 -47 29 -120t-29 -122l75 -82l-39 -36l-70 75q-22 -20 -49.5 -30.5
t-61.5 -10.5q-65 0 -111 41l-69 -75zM258 118q57 0 84 35.5t27 117.5q0 85 -27.5 121.5t-84.5 36.5t-83.5 -35.5t-26.5 -118.5q0 -84 27.5 -120.5t83.5 -36.5z" />
    <glyph glyph-name="yen.osf.sc" horiz-adv-x="511" 
d="M59 550h68l96 -204q13 -26 20.5 -46t12.5 -40q7 20 14 40.5t19 45.5l98 204h64l-117 -236h113v-46h-136l-25 -51v-34h161v-47h-161v-136h-61v136h-161v47h161v35l-25 50h-136v46h113z" />
    <glyph glyph-name="section.osf.sc" horiz-adv-x="493" 
d="M157 344q-22 17 -32.5 40.5t-10.5 58.5q0 49 34.5 82.5t105.5 33.5q42 0 71.5 -10.5t56.5 -26.5l-23 -44q-24 15 -47.5 23.5t-55.5 8.5q-46 0 -65 -18t-19 -47q0 -20 5 -33t17 -22.5t32.5 -17.5t50.5 -18q33 -11 60.5 -22t47.5 -27t31 -39.5t11 -58.5q0 -47 -23.5 -76
t-70.5 -43q25 -18 38 -42t13 -59q0 -60 -37 -92.5t-107 -32.5q-52 0 -88.5 15t-59.5 33l26 42q23 -17 50 -29t71 -12q45 0 65 18t20 56q0 19 -6.5 33t-21 24.5t-36 19.5t-51.5 18q-34 11 -60.5 23.5t-45 29.5t-28.5 40t-10 55q0 88 92 116zM284 115q45 8 65 30.5t20 58.5
q0 23 -7 37.5t-21.5 25t-36.5 18.5t-52 17q-12 4 -23 7.5t-21 7.5q-48 -8 -67 -31t-19 -58q0 -20 6.5 -33.5t20 -24t35 -19.5t50.5 -18q14 -5 26.5 -9t23.5 -9z" />
    <glyph glyph-name="logicalnot.osf.sc" horiz-adv-x="469" 
d="M326 297h-248v52h305v-192h-57v140z" />
    <glyph glyph-name="plusminus.osf.sc" horiz-adv-x="533" 
d="M238 281h-161v51h161v159h57v-159h160v-51h-160v-143h-57v143zM77 82h378v-52h-378v52z" />
    <glyph glyph-name="multiply.osf.sc" horiz-adv-x="485" 
d="M82 146l125 138l-126 139l37 35l124 -135l123 135l38 -36l-126 -138l127 -139l-37 -35l-125 136l-123 -137z" />
    <glyph glyph-name="divide.osf.sc" horiz-adv-x="525" 
d="M73 313h378v-51h-378v51zM262 400q-20 0 -35 14.5t-15 36.5t15 36.5t35 14.5q22 0 36.5 -14.5t14.5 -36.5t-14.5 -36.5t-36.5 -14.5zM262 73q-20 0 -35 15t-15 36q0 22 15 36.5t35 14.5q22 0 36.5 -14.5t14.5 -36.5q0 -21 -14.5 -36t-36.5 -15z" />
    <glyph glyph-name="florin.osf.sc" horiz-adv-x="385" 
d="M64 326v48h72l8 76q4 33 8 77q8 66 37 92.5t74 26.5q26 0 45.5 -6t36.5 -17l-20 -45q-14 8 -26 12.5t-29 4.5q-27 0 -40 -14.5t-18 -53.5l-16 -153h93v-48h-98l-51 -501h-59l51 501h-68z" />
    <glyph glyph-name="Euro.osf.sc" horiz-adv-x="578" 
d="M57 316v46h83q14 94 63 145.5t139 51.5q46 0 80 -11.5t60 -31.5l-29 -42q-21 17 -48 26t-63 9q-65 0 -97.5 -36.5t-42.5 -110.5h186v-46h-190q-1 -10 -1 -20v-21v-18t1 -18h190v-46h-187q9 -78 42.5 -115t104.5 -37q38 0 65.5 11t48.5 28l30 -40q-27 -22 -62.5 -36
t-83.5 -14q-94 0 -144 52t-63 151h-82v46h78q-1 8 -1 16.5v17.5v21.5t1 21.5h-78z" />
    <glyph glyph-name="minus.osf.sc" horiz-adv-x="524" 
d="M73 313h378v-51h-378v51z" />
    <glyph glyph-name="numbersign.tosf.sc" 
d="M99 351v48h89l23 151h48l-23 -151h113l23 151h48l-23 -151h78v-48h-85l-21 -143h81v-49h-88l-24 -159h-48l24 159h-113l-24 -159h-48l24 159h-78v49h85l21 143h-82zM229 351l-21 -143h113l21 143h-113z" />
    <glyph glyph-name="dollar.tosf.sc" 
d="M261 660h47v-102q38 -4 67.5 -15t53.5 -27l-26 -44q-20 14 -44 23.5t-53 12.5v-196q31 -12 58 -25.5t47 -33t31.5 -45.5t11.5 -63q0 -29 -8 -55t-26 -46t-45.5 -33.5t-66.5 -17.5v-94h-47v94q-51 3 -93.5 20.5t-71.5 45.5l30 40q28 -25 61 -40t76 -17v224
q-29 12 -53.5 24.5t-43.5 30.5t-29.5 42t-10.5 58q0 62 37.5 97t97.5 40v102zM306 44q46 6 67 31t21 67q0 45 -22.5 67t-65.5 40v-205zM263 508q-37 -5 -58.5 -26t-21.5 -59q0 -39 21 -59t59 -36v180z" />
    <glyph glyph-name="plus.tosf.sc" 
d="M246 262h-160v51h160v178h58v-178h160v-51h-160v-177h-58v177z" />
    <glyph glyph-name="zero.tosf.sc" 
d="M277 -10q-103 0 -152.5 72t-49.5 211q0 138 51.5 212.5t148.5 74.5q99 0 149.5 -73.5t50.5 -210.5q0 -141 -48 -213.5t-150 -72.5zM276 40q75 0 104.5 58t29.5 174q0 117 -30.5 177.5t-104.5 60.5t-104.5 -59.5t-30.5 -175.5q0 -118 30.5 -176.5t105.5 -58.5z" />
    <glyph glyph-name="one.tosf.sc" 
d="M143 49h113v426l-109 -53l-18 34l142 99h46v-506h104v-49h-278v49z" />
    <glyph glyph-name="two.tosf.sc" 
d="M113 55q82 70 131 120.5t75.5 89t35 69.5t8.5 63q0 59 -25.5 85t-75.5 26q-39 0 -66.5 -10.5t-58.5 -29.5l-23 44q37 23 72 35t80 12q34 0 63.5 -9.5t51.5 -29t34 -50t12 -72.5q0 -38 -10.5 -73.5t-38 -76t-75 -88.5t-122.5 -109h256v-51h-324v55z" />
    <glyph glyph-name="three.tosf.sc" 
d="M253 -77q-46 0 -84 8.5t-69 22.5l15 46q28 -10 62 -17.5t73 -7.5q69 0 102 32t33 104q0 39 -9.5 64t-27 39.5t-42.5 20t-56 5.5h-42v49h42q61 0 88.5 28.5t27.5 85.5q0 104 -103 104q-37 0 -68.5 -9.5t-62.5 -26.5l-20 43q37 21 73 33t85 12q77 0 117.5 -41.5
t40.5 -107.5q0 -56 -21.5 -90t-66.5 -51q51 -14 80.5 -52.5t29.5 -107.5q0 -90 -49.5 -138t-147.5 -48z" />
    <glyph glyph-name="four.tosf.sc" 
d="M72 89v57l186 404h62l-187 -410h217v243l61 12v-255h67v-51h-67v-158h-61v158h-278z" />
    <glyph glyph-name="five.tosf.sc" 
d="M240 -77q-42 0 -77 7.5t-64 21.5l17 47q28 -11 58 -18t65 -7q76 0 111 41t35 116q0 77 -39 111.5t-107 34.5q-28 0 -53.5 -4.5t-50.5 -12.5l28 290h271v-52h-221l-18 -178q11 3 28 4.5t31 1.5q90 0 143 -49.5t53 -142.5q0 -98 -54 -154.5t-156 -56.5z" />
    <glyph glyph-name="six.tosf.sc" 
d="M152 329q25 23 59 39.5t80 16.5q35 0 67.5 -12.5t57 -37t39 -60.5t14.5 -83q0 -49 -14 -86.5t-39 -62.5t-59 -38t-74 -13q-43 0 -80 16t-64 48t-42.5 79.5t-15.5 110.5q0 88 22.5 154.5t64.5 113.5t101 76t133 43l12 -47q-56 -13 -101 -32.5t-78 -49.5t-53.5 -73
t-29.5 -102zM147 281q-1 -10 -1 -19.5v-20.5q0 -106 37 -153.5t100 -47.5q58 0 90 39.5t32 111.5t-34 108.5t-91 36.5q-42 0 -73.5 -16t-59.5 -39z" />
    <glyph glyph-name="seven.tosf.sc" 
d="M176 -68q9 100 30 185.5t50 156.5t63 127t69 97h-286v52h345v-57q-39 -45 -74 -105t-63 -132t-46.5 -155.5t-24.5 -175.5z" />
    <glyph glyph-name="eight.tosf.sc" 
d="M214 325q-59 29 -82 68t-23 83q0 70 44.5 111t121.5 41t121.5 -41.5t44.5 -107.5q0 -48 -26 -84.5t-86 -65.5q72 -30 103.5 -71t31.5 -100q0 -81 -51.5 -123.5t-136.5 -42.5q-87 0 -138.5 45t-51.5 123q0 67 35.5 104.5t92.5 60.5zM256 304q-52 -25 -80.5 -56.5
t-28.5 -85.5q0 -66 35 -95t95 -29q58 0 91.5 30t33.5 82q0 47 -21 78.5t-76 54.5zM284 351q55 28 75.5 57.5t20.5 69.5q0 50 -28 76.5t-78 26.5q-49 0 -76 -27t-27 -76q0 -41 18.5 -68.5t71.5 -49.5z" />
    <glyph glyph-name="nine.tosf.sc" 
d="M400 231q-25 -23 -59.5 -41.5t-80.5 -18.5q-36 0 -68.5 12.5t-57 37t-39 60t-14.5 81.5q0 49 14.5 86t39.5 61.5t59 37t74 12.5q43 0 79.5 -15.5t63.5 -47t42.5 -79t15.5 -111.5q0 -86 -21.5 -151.5t-62.5 -113t-100.5 -77.5t-134.5 -45l-13 48q57 13 102.5 33.5t78.5 52
t53.5 75.5t28.5 103zM404 278q1 8 1 16.5v16.5q0 53 -10 91t-28 62t-43.5 35t-56.5 11q-60 0 -91 -37.5t-31 -109.5q0 -73 33 -108t90 -35q43 0 76 17.5t60 40.5z" />
    <glyph glyph-name="less.tosf.sc" 
d="M154 276v25l205 196l36 -37l-179 -171l179 -172l-36 -37z" />
    <glyph glyph-name="equal.tosf.sc" 
d="M83 401h384v-52h-384v52zM83 228h384v-52h-384v52z" />
    <glyph glyph-name="greater.tosf.sc" 
d="M154 116l178 172l-178 172l35 37l206 -196v-25l-206 -196z" />
    <glyph glyph-name="cent.tosf.sc" 
d="M267 523h46v-99q33 -2 57.5 -14.5t46.5 -32.5l-33 -38q-16 16 -32.5 25t-39.5 11v-335q27 3 45 15t32 26l35 -36q-21 -21 -47.5 -35t-63.5 -17v-94h-46v95q-32 4 -58 18t-45 39.5t-29 64.5t-10 92q0 54 10.5 92.5t29 64.5t44.5 40t58 18v100zM268 374q-20 -3 -35 -13
t-26 -29.5t-16.5 -49.5t-5.5 -73q0 -85 20.5 -122.5t62.5 -45.5v333z" />
    <glyph glyph-name="sterling.tosf.sc" 
d="M237 250q5 -18 8 -37t3 -40q0 -35 -13 -66.5t-48 -55.5h261v-51h-335v55q41 21 59 49t18 68q0 21 -4 40t-10 38h-76v49h59q-8 24 -13.5 49.5t-5.5 56.5q0 39 12 67.5t33.5 48t50.5 29t62 9.5q47 0 82 -13t70 -38l-25 -43q-29 20 -55.5 31.5t-67.5 11.5q-48 0 -74 -25.5
t-26 -76.5q0 -29 6 -55t14 -52h163v-49h-148v0z" />
    <glyph glyph-name="currency.tosf.sc" 
d="M55 71l74 80q-28 51 -28 122q0 73 28 121q-6 6 -12 13q-5 6 -12 13t-14 15q-17 18 -37 41l39 35l69 -74q47 42 111 42q35 0 62.5 -10.5t50.5 -31.5q6 5 11 11q8 9 23 26q15 16 34 37l40 -36l-74 -81q29 -47 29 -120t-29 -122l75 -82l-39 -36l-70 75q-22 -20 -49.5 -30.5
t-61.5 -10.5q-65 0 -111 41l-69 -75zM275 118q57 0 84 35.5t27 117.5q0 85 -27.5 121.5t-84.5 36.5t-83.5 -35.5t-26.5 -118.5q0 -84 27.5 -120.5t83.5 -36.5z" />
    <glyph glyph-name="yen.tosf.sc" 
d="M79 550h68l96 -204q13 -26 20.5 -46t12.5 -40q7 20 14 40.5t19 45.5l98 204h64l-117 -236h113v-46h-136l-25 -51v-34h161v-47h-161v-136h-61v136h-161v47h161v35l-25 50h-136v46h113z" />
    <glyph glyph-name="section.tosf.sc" 
d="M186 344q-22 17 -32.5 40.5t-10.5 58.5q0 49 34.5 82.5t105.5 33.5q42 0 71.5 -10.5t56.5 -26.5l-23 -44q-24 15 -47.5 23.5t-55.5 8.5q-46 0 -65 -18t-19 -47q0 -20 5 -33t17 -22.5t32.5 -17.5t50.5 -18q33 -11 60.5 -22t47.5 -27t31 -39.5t11 -58.5q0 -47 -23.5 -76
t-70.5 -43q25 -18 38 -42t13 -59q0 -60 -37 -92.5t-107 -32.5q-52 0 -88.5 15t-59.5 33l26 42q23 -17 50 -29t71 -12q45 0 65 18t20 56q0 19 -6.5 33t-21 24.5t-36 19.5t-51.5 18q-34 11 -60.5 23.5t-45 29.5t-28.5 40t-10 55q0 88 92 116zM313 115q45 8 65 30.5t20 58.5
q0 23 -7 37.5t-21.5 25t-36.5 18.5t-52 17q-12 4 -23 7.5t-21 7.5q-48 -8 -67 -31t-19 -58q0 -20 6.5 -33.5t20 -24t35 -19.5t50.5 -18q14 -5 26.5 -9t23.5 -9z" />
    <glyph glyph-name="logicalnot.tosf.sc" 
d="M370 297h-248v52h305v-192h-57v140z" />
    <glyph glyph-name="plusminus.tosf.sc" 
d="M247 281h-161v51h161v159h57v-159h160v-51h-160v-143h-57v143zM86 82h378v-52h-378v52z" />
    <glyph glyph-name="multiply.tosf.sc" 
d="M114 146l125 138l-126 139l37 35l124 -135l123 135l38 -36l-126 -138l127 -139l-37 -35l-125 136l-123 -137z" />
    <glyph glyph-name="divide.tosf.sc" 
d="M86 313h378v-51h-378v51zM275 400q-20 0 -35 14.5t-15 36.5t15 36.5t35 14.5q22 0 36.5 -14.5t14.5 -36.5t-14.5 -36.5t-36.5 -14.5zM275 73q-20 0 -35 15t-15 36q0 22 15 36.5t35 14.5q22 0 36.5 -14.5t14.5 -36.5q0 -21 -14.5 -36t-36.5 -15z" />
    <glyph glyph-name="florin.tosf.sc" 
d="M134 326v48h72l8 76q4 33 8 77q8 66 37 92.5t74 26.5q26 0 45.5 -6t36.5 -17l-20 -45q-14 8 -26 12.5t-29 4.5q-27 0 -40 -14.5t-18 -53.5l-16 -153h93v-48h-98l-51 -501h-59l51 501h-68z" />
    <glyph glyph-name="Euro.tosf.sc" 
d="M57 316v46h83q14 94 63 145.5t139 51.5q46 0 80 -11.5t60 -31.5l-29 -42q-21 17 -48 26t-63 9q-65 0 -97.5 -36.5t-42.5 -110.5h186v-46h-190q-1 -10 -1 -20v-21v-18t1 -18h190v-46h-187q9 -78 42.5 -115t104.5 -37q38 0 65.5 11t48.5 28l30 -40q-27 -22 -62.5 -36
t-83.5 -14q-94 0 -144 52t-63 151h-82v46h78q-1 8 -1 16.5v17.5v21.5t1 21.5h-78z" />
    <glyph glyph-name="minus.tosf.sc" 
d="M86 313h378v-51h-378v51z" />
    <glyph glyph-name="parenleft.case" horiz-adv-x="327" 
d="M267 -119q-48 25 -85.5 64.5t-63.5 96t-40 131t-14 169.5q0 96 13.5 170.5t39 131t63 96t86.5 65.5l22 -38q-41 -27 -70.5 -63t-49 -87t-28.5 -118.5t-9 -156.5q0 -90 9.5 -157.5t29 -118t49 -86t69.5 -61.5l-21 -38v0z" />
    <glyph glyph-name="parenright.case" horiz-adv-x="327" 
d="M38 -81q41 26 70.5 61.5t49 85.5t29 117.5t9.5 157.5q0 89 -9.5 157t-29 119t-49 87.5t-70.5 62.5l22 38q48 -26 86 -65.5t64 -96.5t39.5 -132t13.5 -172q0 -95 -13.5 -168.5t-40 -129.5t-64 -95t-85.5 -65z" />
    <glyph glyph-name="hyphen.case" horiz-adv-x="292" 
d="M56 373h179v-60h-179v60z" />
    <glyph glyph-name="bracketleft.case" horiz-adv-x="306" 
d="M92 787h166v-49h-105v-791h105v-48h-166v888z" />
    <glyph glyph-name="bracketright.case" horiz-adv-x="305" 
d="M47 -53h106v791h-106v49h166v-888h-166v48z" />
    <glyph glyph-name="braceleft.case" horiz-adv-x="369" 
d="M250 -101q-49 0 -80.5 25.5t-31.5 84.5v225q0 48 -21 66t-72 18v53q50 0 71.5 18t21.5 66v221q0 59 31.5 85t80.5 26h71v-49h-66q-32 0 -44 -16.5t-12 -51.5v-218q0 -29 -5.5 -48t-15 -31t-22 -18t-27.5 -9v-2q15 -3 27.5 -9.5t22 -18.5t15 -31t5.5 -48v-222
q0 -35 12 -51.5t44 -16.5h66v-48h-71v0z" />
    <glyph glyph-name="braceright.case" horiz-adv-x="369" 
d="M47 -53h67q32 0 44 16.5t12 51.5v222q0 29 5.5 48t15 31t22 18.5t27.5 9.5v2q-15 3 -27.5 9t-22 18t-15 31t-5.5 48v218q0 35 -12 51.5t-44 16.5h-67v49h71q50 0 81.5 -26t31.5 -85v-221q0 -48 21 -66t72 -18v-53q-51 0 -72 -18t-21 -66v-225q0 -59 -31.5 -84.5
t-81.5 -25.5h-71v48z" />
    <glyph glyph-name="guillemotleft.case" horiz-adv-x="465" 
d="M226 342l133 206l45 -30l-112 -176l111 -175l-44 -30zM57 342l132 206l45 -30l-112 -176l112 -175l-45 -30z" />
    <glyph glyph-name="uni00AD.case" horiz-adv-x="292" 
d="M56 373h179v-60h-179v60z" />
    <glyph glyph-name="guillemotright.case" horiz-adv-x="465" 
d="M230 168l112 175l-112 175l45 30l133 -205l-133 -206zM60 168l112 175l-111 175l44 30l133 -205l-133 -206z" />
    <glyph glyph-name="endash.case" horiz-adv-x="505" 
d="M56 369h392v-52h-392v52z" />
    <glyph glyph-name="emdash.case" horiz-adv-x="706" 
d="M56 369h593v-52h-593v52z" />
    <glyph glyph-name="guilsinglleft.case" horiz-adv-x="295" 
d="M57 342l132 206l45 -30l-112 -176l112 -175l-45 -30z" />
    <glyph glyph-name="guilsinglright.case" horiz-adv-x="295" 
d="M60 168l112 175l-111 175l44 30l133 -205l-133 -206z" />
    <glyph glyph-name="c_l.ss01" horiz-adv-x="668" 
d="M518 613q-20 8 -52 18.5t-74 10.5q-56 0 -80 -25.5t-24 -62.5q0 -35 10 -53t22 -27q14 -10 27.5 -20t29.5 -24l-34 -39q-21 23 -43 34.5t-57 11.5q-30 0 -52.5 -9.5t-38 -32t-23.5 -60.5t-8 -95t8 -95.5t23.5 -61.5t39.5 -32.5t56 -9.5q38 0 61 15t40 33l39 -37
q-24 -27 -58 -44.5t-85 -17.5q-41 0 -75.5 13.5t-59.5 43.5t-38.5 77t-13.5 114q0 68 14 115.5t38.5 77.5t59 43.5t75.5 13.5h11t9 -1q-11 14 -16 34.5t-5 40.5q0 24 9 46t27.5 39t46 27.5t64.5 10.5q54 0 98 -11t88 -28v-646h-59v613z" />
    <glyph glyph-name="longs_i.ss01" horiz-adv-x="488" 
d="M150 0h-60v575q0 39 11 66.5t30 45.5t45 26.5t55 8.5q42 0 68 -8.5t52 -25.5l-24 -47q-21 13 -40 20.5t-51 7.5q-42 0 -64 -21t-22 -74v-574zM340 478h60v-478h-60v478z" />
    <glyph glyph-name="longs_j.ss01" horiz-adv-x="488" 
d="M150 0h-60v575q0 39 11 66.5t30 45.5t45 26.5t55 8.5q42 0 68 -8.5t52 -25.5l-24 -47q-21 13 -40 20.5t-51 7.5q-42 0 -64 -21t-22 -74v-574zM266 -167q21 12 35 24t23 27.5t12.5 36.5t3.5 52v505h60v-506q0 -44 -7 -73t-20.5 -48.5t-34.5 -32.5t-48 -26z" />
    <glyph glyph-name="longs_l.ss01" horiz-adv-x="491" 
d="M340 662q-17 4 -36 6.5t-45 2.5q-52 0 -80.5 -23t-28.5 -80v-568h-60v569q0 41 13 70t35 47.5t52 27t64 8.5q31 0 53.5 -2t39.5 -5h53v-715h-60v662z" />
    <glyph glyph-name="longs_longs_i.ss01" horiz-adv-x="738" 
d="M150 0h-60v588q0 33 9 56.5t24 38.5t34.5 22t40.5 7q28 0 48 -4.5t41 -18.5l-22 -45q-16 8 -29 12.5t-32 4.5q-26 0 -40 -17.5t-14 -56.5v-587zM400 0h-60v575q0 39 11 66.5t30 45.5t45 26.5t55 8.5q42 0 68 -8.5t52 -25.5l-24 -47q-21 13 -40 20.5t-51 7.5
q-42 0 -64 -21t-22 -74v-574zM590 478h60v-478h-60v478z" />
    <glyph glyph-name="longs_longs_j.ss01" horiz-adv-x="738" 
d="M150 0h-60v588q0 33 9 56.5t24 38.5t34.5 22t40.5 7q28 0 48 -4.5t41 -18.5l-22 -45q-16 8 -29 12.5t-32 4.5q-26 0 -40 -17.5t-14 -56.5v-587zM400 0h-60v575q0 39 11 66.5t30 45.5t45 26.5t55 8.5q42 0 68 -8.5t52 -25.5l-24 -47q-21 13 -40 20.5t-51 7.5
q-42 0 -64 -21t-22 -74v-574zM516 -167q21 12 35 24t23 27.5t12.5 36.5t3.5 52v505h60v-506q0 -44 -7 -73t-20.5 -48.5t-34.5 -32.5t-48 -26z" />
    <glyph glyph-name="longs_longs_l.ss01" horiz-adv-x="741" 
d="M150 0h-60v588q0 33 9 56.5t24 38.5t34.5 22t40.5 7q28 0 48 -4.5t41 -18.5l-22 -45q-16 8 -29 12.5t-32 4.5q-26 0 -40 -17.5t-14 -56.5v-587zM590 662q-17 4 -36 6.5t-45 2.5q-52 0 -80.5 -23t-28.5 -80v-568h-60v569q0 41 13 70t35 47.5t52 27t64 8.5q31 0 53.5 -2
t39.5 -5h53v-715h-60v662z" />
    <glyph glyph-name="s_l.ss01" horiz-adv-x="640" 
d="M490 613q-20 8 -52 18.5t-74 10.5q-53 0 -77 -23t-24 -65q0 -24 5.5 -40t14.5 -27.5t21 -20t26 -16.5l-19 -42q-26 14 -50 21.5t-57 7.5q-41 0 -63 -17t-22 -53q0 -20 5 -33t15.5 -22.5t28 -17t42.5 -15.5q30 -10 56 -21t45 -27.5t30 -41.5t11 -62q0 -70 -42 -103.5
t-117 -33.5q-48 0 -88 15.5t-66 36.5l26 43q28 -20 59 -32.5t70 -12.5q54 0 77 22.5t23 61.5q0 22 -5.5 36.5t-18 26t-33 20t-51.5 18.5q-27 8 -49.5 19t-39 27.5t-26 39.5t-9.5 55q0 25 8.5 47.5t26 39t44 26t62.5 9.5q22 0 42 -6q-14 18 -20 36t-6 44q0 51 36.5 87
t107.5 36q54 0 98 -11t88 -27v-647h-59v613z" />
    <glyph glyph-name="I.ss01" horiz-adv-x="268" 
d="M103 687h63v-687h-63v687z" />
    <glyph glyph-name="J.ss01" horiz-adv-x="319" 
d="M33 31q43 16 68.5 32t39 36t17.5 45t4 60v483h63v-477q0 -49 -7 -84t-26 -61t-54 -44.5t-90 -33.5z" />
    <glyph glyph-name="M.ss01" horiz-adv-x="771" 
d="M150 687h83l122 -467q17 -63 23 -105.5t7 -54.5h1q2 11 8 54.5t22 106.5l123 466h82l63 -687h-63l-44 485q-3 27 -4 53t-1 48v37v18h-1q-1 -3 -3 -18.5t-5 -37.5t-8 -48t-11 -51l-128 -486h-65l-127 481q-7 28 -12 55.5t-8 49.5t-5 37t-2 18h-2v-18.5v-36t-1 -49.5
t-4 -58l-44 -479h-59z" />
    <glyph glyph-name="U.ss01" horiz-adv-x="604" 
d="M302 -10q-45 0 -83 11t-66 36t-43.5 65.5t-15.5 98.5v486h63v-479q0 -46 9.5 -77t27.5 -50t45 -27.5t63 -8.5t63 8.5t45 28t27 50.5t9 77v478h64v-483q0 -59 -15.5 -99.5t-43 -66t-66 -37t-83.5 -11.5z" />
    <glyph glyph-name="a.ss01" horiz-adv-x="503" 
d="M220 -10q-35 0 -64 13t-50 42.5t-32.5 77t-11.5 116.5q0 130 41.5 189.5t119.5 59.5q44 0 78.5 -22t57.5 -47l14 59h42v-478h-42l-14 61q-27 -29 -62.5 -50t-76.5 -21zM229 42q40 0 70 19.5t57 44.5v268q-26 27 -56.5 44.5t-65.5 17.5q-27 0 -48 -9t-34.5 -31.5
t-20.5 -59.5t-7 -92q0 -60 6.5 -99t19.5 -62t32.5 -32t46.5 -9z" />
    <glyph glyph-name="g.ss01" horiz-adv-x="512" 
d="M265 -205q-60 0 -104 15.5t-82 38.5l24 45q32 -20 71.5 -34t87.5 -14q53 0 77 32.5t24 113.5v81q-26 -27 -61 -47.5t-78 -20.5q-36 0 -66 13t-51 42t-33 74.5t-12 111.5q0 125 42 183.5t123 58.5q45 0 80.5 -22t58.5 -47l14 59h42v-495q0 -102 -41 -145t-116 -43zM233 57
q41 0 72 19.5t58 43.5v254q-26 27 -57 44.5t-68 17.5q-28 0 -49.5 -9t-35.5 -30.5t-21.5 -57t-7.5 -88.5q0 -58 7 -95.5t20.5 -59.5t34 -30.5t47.5 -8.5z" />
    <glyph glyph-name="i.ss01" horiz-adv-x="247" 
d="M94 478h60v-478h-60v478zM123 588q-20 0 -32.5 13t-12.5 33t12.5 33.5t32.5 13.5t33 -13.5t13 -33.5t-13 -33t-33 -13z" />
    <glyph glyph-name="j.ss01" horiz-adv-x="247" 
d="M20 -167q21 12 35 24t23 27.5t12.5 36.5t3.5 52v505h60v-506q0 -44 -7 -73t-20.5 -48.5t-34.5 -32.5t-48 -26zM123 588q-20 0 -32.5 13t-12.5 33t12.5 33.5t32.5 13.5t33 -13.5t13 -33.5t-13 -33t-33 -13z" />
    <glyph glyph-name="l.ss01" horiz-adv-x="241" 
d="M91 715h59v-715h-59v715z" />
    <glyph glyph-name="r.ss01" horiz-adv-x="331" 
d="M89 478h42l14 -81q30 37 64.5 62.5t76.5 25.5q5 0 9.5 -0.5t6.5 -1.5v-62h-2q-8 2 -22 2q-37 0 -67 -18.5t-62 -53.5v-351h-60v478z" />
    <glyph glyph-name="registered.ss01" horiz-adv-x="715" 
d="M358 -11q-68 0 -123 25t-94 72t-60.5 113t-21.5 149q0 82 21.5 148.5t60.5 113.5t94 72.5t123 25.5q67 0 122 -25.5t94 -72.5t60.5 -113.5t21.5 -148.5q0 -83 -21.5 -149t-60.5 -113t-94 -72t-122 -25zM358 27q60 0 107 22.5t79 64t49 101t17 133.5t-17 133.5t-49 101
t-79 64t-107 22.5t-107 -22.5t-79.5 -64t-49.5 -101t-17 -133.5t17 -133.5t49.5 -101t79.5 -64t107 -22.5zM242 558h112q62 0 95 -27t33 -86q0 -48 -18.5 -73.5t-56.5 -34.5q17 -7 28.5 -22t22.5 -45l43 -123h-56l-41 120q-12 35 -26.5 46.5t-42.5 11.5h-40v-178h-53v411z
M355 366q41 0 56.5 19.5t15.5 57.5q0 36 -16.5 53.5t-57.5 17.5h-58v-148h60z" />
    <glyph glyph-name="Igrave.ss01" horiz-adv-x="268" 
d="M103 687h63v-687h-63v687zM-8 833l33 55l166 -118l-22 -35z" />
    <glyph glyph-name="Iacute.ss01" horiz-adv-x="268" 
d="M103 687h63v-687h-63v687zM84 770l166 118l33 -55l-176 -98z" />
    <glyph glyph-name="Icircumflex.ss01" horiz-adv-x="268" 
d="M103 687h63v-687h-63v687zM2 769l112 117h39l113 -117l-25 -30l-108 87l-106 -87z" />
    <glyph glyph-name="Idieresis.ss01" horiz-adv-x="268" 
d="M103 687h63v-687h-63v687zM221 746q-19 0 -32 12.5t-13 32.5t12.5 32.5t31.5 12.5t32 -12.5t13 -32.5t-12.5 -32.5t-31.5 -12.5zM50 746q-19 0 -32 12.5t-13 32.5t12.5 32.5t31.5 12.5t32 -12.5t13 -32.5t-12.5 -32.5t-31.5 -12.5z" />
    <glyph glyph-name="Ugrave.ss01" horiz-adv-x="604" 
d="M302 -10q-45 0 -83 11t-66 36t-43.5 65.5t-15.5 98.5v486h63v-479q0 -46 9.5 -77t27.5 -50t45 -27.5t63 -8.5t63 8.5t45 28t27 50.5t9 77v478h64v-483q0 -59 -15.5 -99.5t-43 -66t-66 -37t-83.5 -11.5zM178 833l33 55l166 -118l-22 -35z" />
    <glyph glyph-name="Uacute.ss01" horiz-adv-x="604" 
d="M302 -10q-45 0 -83 11t-66 36t-43.5 65.5t-15.5 98.5v486h63v-479q0 -46 9.5 -77t27.5 -50t45 -27.5t63 -8.5t63 8.5t45 28t27 50.5t9 77v478h64v-483q0 -59 -15.5 -99.5t-43 -66t-66 -37t-83.5 -11.5zM231 770l166 118l33 -55l-176 -98z" />
    <glyph glyph-name="Ucircumflex.ss01" horiz-adv-x="604" 
d="M302 -10q-45 0 -83 11t-66 36t-43.5 65.5t-15.5 98.5v486h63v-479q0 -46 9.5 -77t27.5 -50t45 -27.5t63 -8.5t63 8.5t45 28t27 50.5t9 77v478h64v-483q0 -59 -15.5 -99.5t-43 -66t-66 -37t-83.5 -11.5zM172 769l112 117h39l113 -117l-25 -30l-108 87l-106 -87z" />
    <glyph glyph-name="Udieresis.ss01" horiz-adv-x="604" 
d="M302 -10q-45 0 -83 11t-66 36t-43.5 65.5t-15.5 98.5v486h63v-479q0 -46 9.5 -77t27.5 -50t45 -27.5t63 -8.5t63 8.5t45 28t27 50.5t9 77v478h64v-483q0 -59 -15.5 -99.5t-43 -66t-66 -37t-83.5 -11.5zM389 746q-19 0 -32 12.5t-13 32.5t12.5 32.5t31.5 12.5t32 -12.5
t13 -32.5t-12.5 -32.5t-31.5 -12.5zM218 746q-19 0 -32 12.5t-13 32.5t12.5 32.5t31.5 12.5t32 -12.5t13 -32.5t-12.5 -32.5t-31.5 -12.5z" />
    <glyph glyph-name="agrave.ss01" horiz-adv-x="503" 
d="M220 -10q-35 0 -64 13t-50 42.5t-32.5 77t-11.5 116.5q0 130 41.5 189.5t119.5 59.5q44 0 78.5 -22t57.5 -47l14 59h42v-478h-42l-14 61q-27 -29 -62.5 -50t-76.5 -21zM229 42q40 0 70 19.5t57 44.5v268q-26 27 -56.5 44.5t-65.5 17.5q-27 0 -48 -9t-34.5 -31.5
t-20.5 -59.5t-7 -92q0 -60 6.5 -99t19.5 -62t32.5 -32t46.5 -9zM139 639l33 55l166 -118l-22 -35z" />
    <glyph glyph-name="aacute.ss01" horiz-adv-x="503" 
d="M220 -10q-35 0 -64 13t-50 42.5t-32.5 77t-11.5 116.5q0 130 41.5 189.5t119.5 59.5q44 0 78.5 -22t57.5 -47l14 59h42v-478h-42l-14 61q-27 -29 -62.5 -50t-76.5 -21zM229 42q40 0 70 19.5t57 44.5v268q-26 27 -56.5 44.5t-65.5 17.5q-27 0 -48 -9t-34.5 -31.5
t-20.5 -59.5t-7 -92q0 -60 6.5 -99t19.5 -62t32.5 -32t46.5 -9zM168 576l166 118l33 -55l-176 -98z" />
    <glyph glyph-name="acircumflex.ss01" horiz-adv-x="503" 
d="M220 -10q-35 0 -64 13t-50 42.5t-32.5 77t-11.5 116.5q0 130 41.5 189.5t119.5 59.5q44 0 78.5 -22t57.5 -47l14 59h42v-478h-42l-14 61q-27 -29 -62.5 -50t-76.5 -21zM229 42q40 0 70 19.5t57 44.5v268q-26 27 -56.5 44.5t-65.5 17.5q-27 0 -48 -9t-34.5 -31.5
t-20.5 -59.5t-7 -92q0 -60 6.5 -99t19.5 -62t32.5 -32t46.5 -9zM117 575l112 117h39l113 -117l-25 -30l-108 87l-106 -87z" />
    <glyph glyph-name="atilde.ss01" horiz-adv-x="503" 
d="M220 -10q-35 0 -64 13t-50 42.5t-32.5 77t-11.5 116.5q0 130 41.5 189.5t119.5 59.5q44 0 78.5 -22t57.5 -47l14 59h42v-478h-42l-14 61q-27 -29 -62.5 -50t-76.5 -21zM229 42q40 0 70 19.5t57 44.5v268q-26 27 -56.5 44.5t-65.5 17.5q-27 0 -48 -9t-34.5 -31.5
t-20.5 -59.5t-7 -92q0 -60 6.5 -99t19.5 -62t32.5 -32t46.5 -9zM109 578q32 73 87 73q16 0 30.5 -6t27.5 -12.5t25.5 -12.5t26.5 -6q18 0 27.5 11.5t20.5 28.5l35 -22q-32 -72 -86 -72q-17 0 -31.5 5.5t-27.5 12.5t-26 12.5t-26 5.5q-18 0 -27.5 -11.5t-20.5 -28.5z" />
    <glyph glyph-name="adieresis.ss01" horiz-adv-x="503" 
d="M220 -10q-35 0 -64 13t-50 42.5t-32.5 77t-11.5 116.5q0 130 41.5 189.5t119.5 59.5q44 0 78.5 -22t57.5 -47l14 59h42v-478h-42l-14 61q-27 -29 -62.5 -50t-76.5 -21zM229 42q40 0 70 19.5t57 44.5v268q-26 27 -56.5 44.5t-65.5 17.5q-27 0 -48 -9t-34.5 -31.5
t-20.5 -59.5t-7 -92q0 -60 6.5 -99t19.5 -62t32.5 -32t46.5 -9zM331 552q-19 0 -32 12.5t-13 32.5t12.5 32.5t31.5 12.5t32 -12.5t13 -32.5t-12.5 -32.5t-31.5 -12.5zM160 552q-19 0 -32 12.5t-13 32.5t12.5 32.5t31.5 12.5t32 -12.5t13 -32.5t-12.5 -32.5t-31.5 -12.5z" />
    <glyph glyph-name="aring.ss01" horiz-adv-x="503" 
d="M220 -10q-35 0 -64 13t-50 42.5t-32.5 77t-11.5 116.5q0 130 41.5 189.5t119.5 59.5q44 0 78.5 -22t57.5 -47l14 59h42v-478h-42l-14 61q-27 -29 -62.5 -50t-76.5 -21zM229 42q40 0 70 19.5t57 44.5v268q-26 27 -56.5 44.5t-65.5 17.5q-27 0 -48 -9t-34.5 -31.5
t-20.5 -59.5t-7 -92q0 -60 6.5 -99t19.5 -62t32.5 -32t46.5 -9zM245 543q-41 0 -64 28.5t-23 64.5t23 64.5t64 28.5q21 0 37 -8t27.5 -20.5t17.5 -29.5t6 -35t-6 -35t-17.5 -29.5t-27.5 -20.5t-37 -8zM245 580q20 0 32.5 13.5t12.5 42.5t-12.5 42.5t-32.5 13.5t-32 -13.5
t-12 -42.5t12 -42.5t32 -13.5z" />
    <glyph glyph-name="igrave.ss01" horiz-adv-x="247" 
d="M94 478h60v-478h-60v478zM-19 639l33 55l166 -118l-22 -35z" />
    <glyph glyph-name="iacute.ss01" horiz-adv-x="247" 
d="M94 478h60v-478h-60v478zM71 576l166 118l33 -55l-176 -98z" />
    <glyph glyph-name="icircumflex.ss01" horiz-adv-x="247" 
d="M94 478h60v-478h-60v478zM-8 575l112 117h39l113 -117l-25 -30l-108 87l-106 -87z" />
    <glyph glyph-name="idieresis.ss01" horiz-adv-x="247" 
d="M94 478h60v-478h-60v478zM210 552q-19 0 -32 12.5t-13 32.5t12.5 32.5t31.5 12.5t32 -12.5t13 -32.5t-12.5 -32.5t-31.5 -12.5zM39 552q-19 0 -32 12.5t-13 32.5t12.5 32.5t31.5 12.5t32 -12.5t13 -32.5t-12.5 -32.5t-31.5 -12.5z" />
    <glyph glyph-name="dotlessi.ss01" horiz-adv-x="247" 
d="M94 478h60v-478h-60v478z" />
    <glyph glyph-name="lslash.ss01" horiz-adv-x="247" 
d="M24 341l70 36v338h59v-308l86 44v-55l-86 -44v-352h-59v322l-70 -36v55z" />
    <glyph glyph-name="arrowleft.ss01" horiz-adv-x="890" 
d="M571 370h105v-52h-105v52zM517 370v-52h-360l275 -297l-34 -37l-347 359l347 359l34 -37l-274 -295h359zM730 370h105v-52h-105v52z" />
    <glyph glyph-name="arrowup.ss01" horiz-adv-x="768" 
d="M356 166h58v-105h-58v105zM61 304l-36 36l359 346l359 -346l-38 -38l-291 273v-355h-58v356zM356 7h58v-105h-58v105z" />
    <glyph glyph-name="arrowright.ss01" horiz-adv-x="890" 
d="M319 318h-105v52h105v-52zM732 370l-274 295l34 37l347 -359l-347 -359l-34 37l275 297h-360v52h359zM160 318h-105v52h105v-52z" />
    <glyph glyph-name="arrowdown.ss01" horiz-adv-x="768" 
d="M412 520h-58v105h58v-105zM707 382l36 -36l-359 -346l-359 346l38 38l291 -273v355h58v-356zM412 679h-58v105h58v-105z" />
    <glyph glyph-name="uni2196.ss01" horiz-adv-x="890" 
d="M556 277l78 -70l-35 -38l-78 70zM516 314l-35 -39l-267 241l5 -405l-50 -5l-17 499l498 35v-50l-401 -36zM674 171l78 -70l-34 -39l-78 70z" />
    <glyph glyph-name="uni2197.ss01" horiz-adv-x="890" 
d="M407 239l-78 -70l-35 38l78 70zM679 554l-401 36v50l498 -35l-17 -499l-50 5l5 405l-267 -241l-35 39zM288 132l-78 -70l-34 39l78 70z" />
    <glyph glyph-name="uni2198.ss01" horiz-adv-x="890" 
d="M373 400l-78 70l35 39l78 -70zM715 162l-6 403l50 5l17 -499l-498 -35v50l403 37l-268 241l35 39zM255 506l-78 71l35 38l78 -70z" />
    <glyph glyph-name="uni2199.ss01" horiz-adv-x="890" 
d="M520 439l78 70l35 -39l-78 -70zM480 403l35 -39l-268 -241l403 -37v-50l-498 35l17 499l50 -5l-6 -403zM638 545l78 70l35 -38l-78 -71z" />
    <glyph glyph-name="H18543.ss01" horiz-adv-x="457" 
d="M382 432v-318h-307v318h307z" />
    <glyph glyph-name="H18551.ss01" horiz-adv-x="457" 
d="M382 432v-318h-307v318h307zM319 173v200h-181v-200h181z" />
    <glyph glyph-name="uni25B6.ss01" horiz-adv-x="494" 
d="M105 703q21 0 36 -15t15 -36t-15 -36t-36 -15t-36 15t-15 36t15 36t36 15zM105 83q21 0 36 -15t15 -36t-15 -36t-36 -15t-36 15t-15 36t15 36t36 15zM105 238q21 0 36 -15t15 -36t-15 -36t-36 -15t-36 15t-15 36t15 36t36 15zM255 238q21 0 36 -15t15 -36t-15 -36
t-36 -15t-36 15t-15 36t15 36t36 15zM105 393q21 0 36 -15t15 -36t-15 -36t-36 -15t-36 15t-15 36t15 36t36 15zM255 393q21 0 36 -15t15 -36t-15 -36t-36 -15t-36 15t-15 36t15 36t36 15zM405 393q21 0 36 -15t15 -36t-15 -36t-36 -15t-36 15t-15 36t15 36t36 15zM105 548
q21 0 36 -15t15 -36t-15 -36t-36 -15t-36 15t-15 36t15 36t36 15zM255 548q21 0 36 -15t15 -36t-15 -36t-36 -15t-36 15t-15 36t15 36t36 15z" />
    <glyph glyph-name="uni25B8.ss01" horiz-adv-x="480" 
d="M110 548q23 0 39.5 -16.5t16.5 -39.5t-16.5 -39.5t-39.5 -16.5t-39.5 16.5t-16.5 39.5t16.5 39.5t39.5 16.5zM110 248q23 0 39.5 -16.5t16.5 -39.5t-16.5 -39.5t-39.5 -16.5t-39.5 16.5t-16.5 39.5t16.5 39.5t39.5 16.5zM248 323q23 0 39.5 -16.5t16.5 -39.5t-16.5 -39.5
t-39.5 -16.5t-39.5 16.5t-16.5 39.5t16.5 39.5t39.5 16.5zM110 398q23 0 39.5 -16.5t16.5 -39.5t-16.5 -39.5t-39.5 -16.5t-39.5 16.5t-16.5 39.5t16.5 39.5t39.5 16.5zM386 398q23 0 39.5 -16.5t16.5 -39.5t-16.5 -39.5t-39.5 -16.5t-39.5 16.5t-16.5 39.5t16.5 39.5
t39.5 16.5zM248 473q23 0 39.5 -16.5t16.5 -39.5t-16.5 -39.5t-39.5 -16.5t-39.5 16.5t-16.5 39.5t16.5 39.5t39.5 16.5z" />
    <glyph glyph-name="uni25C0.ss01" horiz-adv-x="494" 
d="M389 601q-21 0 -36 15t-15 36t15 36t36 15t36 -15t15 -36t-15 -36t-36 -15zM389 -19q-21 0 -36 15t-15 36t15 36t36 15t36 -15t15 -36t-15 -36t-36 -15zM239 136q-21 0 -36 15t-15 36t15 36t36 15t36 -15t15 -36t-15 -36t-36 -15zM389 136q-21 0 -36 15t-15 36t15 36
t36 15t36 -15t15 -36t-15 -36t-36 -15zM89 291q-21 0 -36 15t-15 36t15 36t36 15t36 -15t15 -36t-15 -36t-36 -15zM239 291q-21 0 -36 15t-15 36t15 36t36 15t36 -15t15 -36t-15 -36t-36 -15zM389 291q-21 0 -36 15t-15 36t15 36t36 15t36 -15t15 -36t-15 -36t-36 -15z
M239 446q-21 0 -36 15t-15 36t15 36t36 15t36 -15t15 -36t-15 -36t-36 -15zM389 446q-21 0 -36 15t-15 36t15 36t36 15t36 -15t15 -36t-15 -36t-36 -15z" />
    <glyph glyph-name="uni25C2.ss01" horiz-adv-x="480" 
d="M370 436q-23 0 -39.5 16.5t-16.5 39.5t16.5 39.5t39.5 16.5t39.5 -16.5t16.5 -39.5t-16.5 -39.5t-39.5 -16.5zM370 136q-23 0 -39.5 16.5t-16.5 39.5t16.5 39.5t39.5 16.5t39.5 -16.5t16.5 -39.5t-16.5 -39.5t-39.5 -16.5zM232 211q-23 0 -39.5 16.5t-16.5 39.5
t16.5 39.5t39.5 16.5t39.5 -16.5t16.5 -39.5t-16.5 -39.5t-39.5 -16.5zM94 286q-23 0 -39.5 16.5t-16.5 39.5t16.5 39.5t39.5 16.5t39.5 -16.5t16.5 -39.5t-16.5 -39.5t-39.5 -16.5zM370 286q-23 0 -39.5 16.5t-16.5 39.5t16.5 39.5t39.5 16.5t39.5 -16.5t16.5 -39.5
t-16.5 -39.5t-39.5 -16.5zM232 361q-23 0 -39.5 16.5t-16.5 39.5t16.5 39.5t39.5 16.5t39.5 -16.5t16.5 -39.5t-16.5 -39.5t-39.5 -16.5z" />
    <glyph glyph-name="fl.ss01" horiz-adv-x="497" 
d="M346 662q-17 4 -36 6.5t-45 2.5q-52 0 -80.5 -23t-28.5 -80v-90h107v-49h-107v-429h-60v429h-57v49h57v91q0 41 13 70t35 47.5t52 27t64 8.5q31 0 53.5 -2t39.5 -5h53v-715h-60v662z" />
    <glyph glyph-name="uniFB04.ss01" horiz-adv-x="747" 
d="M346 429h-190v-429h-60v429h-57v49h57v110q0 33 9 56.5t24 38.5t34.5 22t40.5 7q28 0 48 -4.5t41 -18.5l-22 -45q-16 8 -29 12.5t-32 4.5q-26 0 -40 -17.5t-14 -56.5v-109h190v91q0 41 13 70t35.5 47.5t52 27t63.5 8.5q31 0 53.5 -2t39.5 -5h53v-715h-59v662
q-17 4 -35.5 6.5t-45.5 2.5q-52 0 -81 -23t-29 -80v-90h107v-49h-107v-429h-60v429z" />
    <glyph glyph-name="orn001" horiz-adv-x="500" 
d="M75 0v692h357v-692h-357zM402 203v133h-133v-133h133zM238 366v133h-133v-133h133zM238 40v133h-133v-133h133zM402 529v133h-133v-133h133z" />
    <glyph glyph-name="orn002" horiz-adv-x="507" 
d="M75 0v692h357v-692h-357zM238 529v133h-133v-133h133zM402 40v133h-133v-133h133zM402 366v133h-133v-133h133zM238 203v133h-133v-133h133z" />
    <glyph glyph-name="orn003" horiz-adv-x="500" 
d="M75 0v529h357v-529h-357zM402 40v133h-133v-133h133zM402 366v133h-133v-133h133zM238 203v133h-133v-133h133z" />
    <glyph glyph-name="orn004" horiz-adv-x="500" 
d="M75 0v529h357v-529h-357zM402 203v133h-133v-133h133zM238 366v133h-133v-133h133zM238 40v133h-133v-133h133z" />
    <glyph glyph-name="orn005" horiz-adv-x="500" 
d="M75 0v366h357v-366h-357zM238 203v133h-133v-133h133zM402 40v133h-133v-133h133z" />
    <glyph glyph-name="orn006" horiz-adv-x="507" 
d="M75 0v366h357v-366h-357zM238 40v133h-133v-133h133zM402 203v133h-133v-133h133z" />
    <glyph glyph-name="U_N" horiz-adv-x="956" 
d="M506 619q30 29 73.5 53t102.5 24q38 0 71 -11t57 -35t38 -62.5t14 -94.5v-493h-63v482q0 87 -28 123.5t-93 36.5q-30 0 -55.5 -7t-46.5 -17.5t-37.5 -23t-28.5 -23.5v-571h-45l-15 67q-30 -29 -73.5 -53t-102.5 -24q-38 0 -71 11t-57 35t-38 63t-14 95v493h63v-482
q0 -87 28 -123.5t93 -36.5q30 0 55.5 7t46.5 17.5t37.5 23t28.5 23.5v571h45q3 -19 7 -34l8 -34v0z" />
    <glyph glyph-name="ascendercaron" horiz-adv-x="277" 
d="M130 544l16 144h65l-34 -144h-47z" />
    <glyph glyph-name="c_b" horiz-adv-x="941" 
d="M713 -10q-45 0 -80.5 20.5t-58.5 46.5l-14 -57h-42v613q-20 8 -52 18.5t-74 10.5q-56 0 -80 -25.5t-24 -62.5q0 -35 10 -53t22 -27q14 -10 27.5 -20t29.5 -24l-34 -39q-21 23 -43 34.5t-57 11.5q-30 0 -52.5 -9.5t-38 -32t-23.5 -60.5t-8 -95t8 -95.5t23.5 -61.5
t39.5 -32.5t56 -9.5q38 0 61 15t40 33l39 -37q-24 -27 -58 -44.5t-85 -17.5q-41 0 -75.5 13.5t-59.5 43.5t-38.5 77t-13.5 114q0 68 14 115.5t38.5 77.5t59 43.5t75.5 13.5h11t9 -1q-11 14 -16 34.5t-5 40.5q0 24 9 46t27.5 39t46 27.5t64.5 10.5q54 0 98 -11t89 -28v-228
q25 26 60.5 48t78.5 22q36 0 65.5 -13.5t51 -43t33.5 -77t12 -115.5q0 -130 -42.5 -189.5t-123.5 -59.5zM702 42q28 0 49.5 9t35.5 31.5t21.5 59t7.5 92.5q0 60 -7 99t-20.5 62t-33.5 32t-47 9q-41 0 -72.5 -21t-57.5 -45v-269q26 -26 57 -42.5t67 -16.5z" />
    <glyph glyph-name="c_h" horiz-adv-x="933" 
d="M518 613q-20 8 -52 18.5t-74 10.5q-56 0 -80 -25.5t-24 -62.5q0 -35 10 -53t22 -27q14 -10 27.5 -20t29.5 -24l-34 -39q-21 23 -43 34.5t-57 11.5q-30 0 -52.5 -9.5t-38 -32t-23.5 -60.5t-8 -95t8 -95.5t23.5 -61.5t39.5 -32.5t56 -9.5q38 0 61 15t40 33l39 -37
q-24 -27 -58 -44.5t-85 -17.5q-41 0 -75.5 13.5t-59.5 43.5t-38.5 77t-13.5 114q0 68 14 115.5t38.5 77.5t59 43.5t75.5 13.5h11t9 -1q-11 14 -16 34.5t-5 40.5q0 24 9 46t27.5 39t46 27.5t64.5 10.5q54 0 98 -11t89 -28v-233q35 33 71 54t81 21q51 0 84.5 -30t33.5 -93
v-365h-60v349q0 48 -17.5 67t-54.5 19q-36 0 -71 -20t-67 -49v-366h-60v613z" />
    <glyph glyph-name="c_k" horiz-adv-x="882" 
d="M518 613q-20 8 -52 18.5t-74 10.5q-56 0 -80 -25.5t-24 -62.5q0 -35 10 -53t22 -27q14 -10 27.5 -20t29.5 -24l-34 -39q-21 23 -43 34.5t-57 11.5q-30 0 -52.5 -9.5t-38 -32t-23.5 -60.5t-8 -95t8 -95.5t23.5 -61.5t39.5 -32.5t56 -9.5q38 0 61 15t40 33l39 -37
q-24 -27 -58 -44.5t-85 -17.5q-41 0 -75.5 13.5t-59.5 43.5t-38.5 77t-13.5 114q0 68 14 115.5t38.5 77.5t59 43.5t75.5 13.5h11t9 -1q-11 14 -16 34.5t-5 40.5q0 24 9 46t27.5 39t46 27.5t64.5 10.5q54 0 98 -11t89 -28v-646h-60v613zM597 270l171 208h69l-172 -207
l197 -271h-71z" />
    <glyph glyph-name="c_l" horiz-adv-x="679" 
d="M596 -8q-35 0 -56.5 20.5t-21.5 73.5v527q-20 8 -52 18.5t-74 10.5q-56 0 -80 -25.5t-24 -62.5q0 -35 10 -53t22 -27q14 -10 27.5 -20t29.5 -24l-34 -39q-21 23 -43 34.5t-57 11.5q-30 0 -52.5 -9.5t-38 -32t-23.5 -60.5t-8 -95t8 -95.5t23.5 -61.5t39.5 -32.5t56 -9.5
q38 0 61 15t40 33l39 -37q-24 -27 -58 -44.5t-85 -17.5q-41 0 -75.5 13.5t-59.5 43.5t-38.5 77t-13.5 114q0 68 14 115.5t38.5 77.5t59 43.5t75.5 13.5h11t9 -1q-11 14 -16 34.5t-5 40.5q0 24 9 46t27.5 39t46 27.5t64.5 10.5q54 0 98 -11t89 -28v-566q0 -23 8.5 -31
t25.5 -8q11 0 15 1t6 2l10 -43q-10 -4 -22 -6.5t-25 -2.5z" />
    <glyph glyph-name="c_t" horiz-adv-x="740" 
d="M265 487q-11 14 -16 34.5t-5 40.5q0 24 9 46t27.5 39t46 27.5t64.5 10.5q29 0 63 -7.5t63.5 -29.5t49.5 -60.5t20 -101.5v-8h100v-49h-100v-346q0 -44 40 -44q19 0 32.5 4.5t23.5 9.5l15 -44q-15 -8 -32.5 -13.5t-41.5 -5.5q-41 0 -68.5 20.5t-27.5 69.5v349h-58v49h58
q0 52 -13.5 84.5t-33.5 50t-44 23.5t-45 6q-56 0 -80 -25.5t-24 -62.5q0 -35 10 -53t22 -27q14 -10 27.5 -20t29.5 -24l-34 -39q-21 23 -43 34.5t-57 11.5q-30 0 -52.5 -9.5t-38 -32t-23.5 -60.5t-8 -95t8 -95.5t23.5 -61.5t39.5 -32.5t56 -9.5q38 0 61 15t40 33l39 -37
q-24 -27 -58 -44.5t-85 -17.5q-41 0 -75.5 13.5t-59.5 43.5t-38.5 77t-13.5 114q0 68 14 115.5t38.5 77.5t59 43.5t75.5 13.5h11t9 -1z" />
    <glyph glyph-name="commaaccent" horiz-adv-x="241" 
d="M70 -193l26 144h65l-44 -144h-47z" />
    <glyph glyph-name="commaturn" horiz-adv-x="241" 
d="M163 711l-26 -144h-65l44 144h47z" />
    <glyph glyph-name="f_b" horiz-adv-x="769" 
d="M541 -10q-45 0 -80.5 20.5t-58.5 46.5l-14 -57h-42v662q-16 4 -35 6.5t-46 2.5q-52 0 -80.5 -23t-28.5 -80v-90h107v-49h-107v-429h-60v429h-57v49h57v91q0 41 13 70t35 47.5t52 27t64 8.5q31 0 53 -2t39 -5h54v-297q25 26 60.5 48t78.5 22q36 0 65.5 -13.5t51 -43
t33.5 -77t12 -115.5q0 -130 -42.5 -189.5t-123.5 -59.5zM530 42q28 0 49.5 9t35.5 31.5t21.5 59t7.5 92.5q0 60 -7 99t-20.5 62t-33.5 32t-47 9q-41 0 -72.5 -21t-57.5 -45v-269q26 -26 57 -42.5t67 -16.5z" />
    <glyph glyph-name="f_f_b" horiz-adv-x="1019" 
d="M791 -10q-45 0 -80.5 20.5t-58.5 46.5l-14 -57h-42v662q-16 4 -35 6.5t-46 2.5q-52 0 -80.5 -23t-28.5 -80v-90h107v-49h-107v-429h-60v429h-190v-429h-60v429h-57v49h57v110q0 33 9 56.5t24 38.5t34.5 22t40.5 7q28 0 48 -4.5t41 -18.5l-22 -45q-16 8 -29 12.5t-32 4.5
q-26 0 -40 -17.5t-14 -56.5v-109h190v91q0 41 13 70t35 47.5t52 27t64 8.5q31 0 53 -2t39 -5h54v-297q25 26 60.5 48t78.5 22q36 0 65.5 -13.5t51 -43t33.5 -77t12 -115.5q0 -130 -42.5 -189.5t-123.5 -59.5zM780 42q28 0 49.5 9t35.5 31.5t21.5 59t7.5 92.5q0 60 -7 99
t-20.5 62t-33.5 32t-47 9q-41 0 -72.5 -21t-57.5 -45v-269q26 -26 57 -42.5t67 -16.5z" />
    <glyph glyph-name="f_f_h" horiz-adv-x="1011" 
d="M596 662q-16 4 -35 6.5t-46 2.5q-52 0 -80.5 -23t-28.5 -80v-90h107v-49h-107v-429h-60v429h-190v-429h-60v429h-57v49h57v110q0 33 9 56.5t24 38.5t34.5 22t40.5 7q28 0 48 -4.5t41 -18.5l-22 -45q-16 8 -29 12.5t-32 4.5q-26 0 -40 -17.5t-14 -56.5v-109h190v91
q0 41 13 70t35 47.5t52 27t64 8.5q31 0 53 -2t39 -5h54v-302q35 33 71 54t81 21q51 0 84.5 -30t33.5 -93v-365h-60v349q0 48 -17.5 67t-54.5 19q-36 0 -71 -20t-67 -49v-366h-60v662z" />
    <glyph glyph-name="f_f_j" horiz-adv-x="744" 
d="M523 -167q21 12 35 24t22.5 27.5t12 36.5t3.5 52v456h-190v-429h-60v429h-190v-429h-60v429h-57v49h57v110q0 33 9 56.5t24 38.5t34.5 22t40.5 7q28 0 48 -4.5t41 -18.5l-22 -45q-16 8 -29 12.5t-32 4.5q-26 0 -40 -17.5t-14 -56.5v-109h190v97q0 39 11 66.5t30 45.5
t45 26.5t55 8.5q42 0 68 -8.5t52 -25.5l-24 -47q-21 13 -40 20.5t-51 7.5q-42 0 -64 -21t-22 -74v-96h250v-506q0 -44 -7 -73t-20.5 -48.5t-34.5 -32.5t-48 -26z" />
    <glyph glyph-name="f_f_k" horiz-adv-x="960" 
d="M596 662q-16 4 -35 6.5t-46 2.5q-52 0 -80.5 -23t-28.5 -80v-90h107v-49h-107v-429h-60v429h-190v-429h-60v429h-57v49h57v110q0 33 9 56.5t24 38.5t34.5 22t40.5 7q28 0 48 -4.5t41 -18.5l-22 -45q-16 8 -29 12.5t-32 4.5q-26 0 -40 -17.5t-14 -56.5v-109h190v91
q0 41 13 70t35 47.5t52 27t64 8.5q31 0 53 -2t39 -5h54v-715h-60v662zM675 270l171 208h69l-172 -207l197 -271h-71z" />
    <glyph glyph-name="f_f_r" horiz-adv-x="843" 
d="M596 429h-190v-429h-60v429h-190v-429h-60v429h-57v49h57v110q0 33 9 56.5t24 38.5t34.5 22t40.5 7q28 0 48 -4.5t41 -18.5l-22 -45q-16 8 -29 12.5t-32 4.5q-26 0 -40 -17.5t-14 -56.5v-109h190v118q0 67 33 96.5t80 29.5q29 0 51 -5.5t43 -19.5l-23 -44q-16 8 -31 13
t-34 5q-29 0 -44 -18t-15 -58v-117h232l14 -81q30 37 66 62.5t79 25.5q4 0 9 -0.5t6 -1.5l-6 -64q-6 3 -21 3q-37 0 -67 -18t-62 -53v-351h-60v429z" />
    <glyph glyph-name="f_f_t" horiz-adv-x="808" 
d="M406 0h-60v429h-190v-429h-60v429h-57v49h57v110q0 33 9 56.5t24 38.5t34.5 22t40.5 7q28 0 48 -4.5t41 -18.5l-22 -45q-16 8 -29 12.5t-32 4.5q-26 0 -40 -17.5t-14 -56.5v-109h190v46q0 97 44 147.5t119 50.5q72 0 109 -37t37 -97v-110h100v-49h-100v-346q0 -44 40 -44
q19 0 32.5 4.5t23.5 9.5l15 -44q-15 -8 -32.5 -13.5t-41.5 -5.5q-41 0 -68.5 20.5t-27.5 69.5v349h-190v-429zM596 478v111q0 86 -86 86q-57 0 -80.5 -42t-23.5 -117v-38h190z" />
    </font>
</defs>
</svg>
